<svg width="40" height="40" viewBox="0 0 40 40" fill="none" xmlns="http://www.w3.org/2000/svg">
<circle cx="20" cy="20" r="19.5" stroke="#4C4C4C"/>
<path d="M26.8025 13.3536C26.8859 13.4267 26.9576 13.5135 27 13.5579C26.0816 14.4885 25.1824 15.4008 24.2552 16.3396C23.0833 15.1985 21.6334 14.7578 19.9982 15.0038C18.7942 15.1848 17.7959 15.7896 17.0327 16.74C15.498 18.6519 15.621 21.3653 17.2336 23.1221C18.8469 24.8795 22.0454 25.4145 24.2955 23.2662C24.3549 23.31 24.424 23.3482 24.4779 23.4022C25.2774 24.1983 26.0707 24.9991 26.8743 25.7897C27.0328 25.9461 27.0396 26.0507 26.8722 26.2037C24.7861 28.1081 22.3276 28.9335 19.5472 28.499C16.0563 27.953 13.6756 25.9366 12.486 22.6123C10.8529 18.0479 13.4857 12.8555 18.1349 11.4403C21.3648 10.4571 24.2634 11.1315 26.8025 13.3536Z" fill="#4C4C4C" stroke="#4C4C4C"/>
</svg>
