<svg width="40" height="40" viewBox="0 0 40 40" fill="none" xmlns="http://www.w3.org/2000/svg">
<path d="M19.9908 26.394C20.4375 26.394 20.8809 26.4005 21.3275 26.394C21.5166 26.394 21.6634 26.3221 21.634 26.0967C21.5982 25.7896 21.559 25.4824 21.5101 25.1753C21.471 24.927 21.233 24.7114 20.9885 24.7081C20.3201 24.7016 19.6517 24.7016 18.9833 24.7081C18.7584 24.7114 18.4845 24.9368 18.4617 25.1263C18.4258 25.4106 18.3899 25.6948 18.3671 25.9791C18.341 26.3091 18.416 26.3907 18.7518 26.3973C19.1627 26.4038 19.5767 26.3973 19.9908 26.3973V26.394Z" fill="#4C4C4C"/>
<path d="M15.7423 21.1728C16.6189 21.4638 17.5067 21.7212 18.3945 21.9562C18.7072 22.0401 18.9305 21.8107 18.9305 21.4918C18.925 21.4638 18.9305 21.419 18.9138 21.3855C18.6346 20.8147 18.3778 20.2272 18.0651 19.6733C18.0037 19.5614 17.7077 19.4886 17.5737 19.539C16.9428 19.7852 16.323 20.0594 15.72 20.3671C15.357 20.5573 15.3682 21.0497 15.7423 21.1728Z" fill="#4C4C4C"/>
<path d="M24.2578 21.1728C23.3812 21.4638 22.4934 21.7212 21.6056 21.9562C21.2929 22.0401 21.0696 21.8107 21.0696 21.4918C21.0752 21.4638 21.0696 21.419 21.0863 21.3855C21.3655 20.8147 21.6224 20.2272 21.935 19.6733C21.9965 19.5614 22.2924 19.4886 22.4264 19.539C23.0573 19.7852 23.6771 20.0594 24.2801 20.3671C24.6431 20.5573 24.6319 21.0497 24.2578 21.1728Z" fill="#4C4C4C"/>
<path fill-rule="evenodd" clip-rule="evenodd" d="M28.7799 11.0553C28.9315 11.1238 29.0495 11.2498 29.1079 11.4055L29.9602 13.6783C30.0031 13.7927 30.0115 13.9171 29.9845 14.0362L28.6027 20.1159L29.9679 24.2114C30.0091 24.335 30.0107 24.4684 29.9724 24.5929L28.836 28.2861C28.7359 28.6113 28.3941 28.7967 28.0669 28.7032L24.3759 27.6486L21.7789 29.4666C21.6738 29.5401 21.5487 29.5795 21.4205 29.5795H18.8636C18.7354 29.5795 18.6103 29.5401 18.5052 29.4666L15.9027 27.6448L11.9224 28.7062C11.5978 28.7927 11.2628 28.6072 11.164 28.2861L10.0276 24.5929C9.98933 24.4684 9.99088 24.335 10.0321 24.2114L11.3973 20.1159L10.0155 14.0362C9.98629 13.9075 9.99854 13.7729 10.0505 13.6515L10.9028 11.6629C11.0323 11.3608 11.3736 11.2106 11.6837 11.3192L17.2653 13.2727H22.4418L28.3002 11.0409C28.4557 10.9817 28.6283 10.9869 28.7799 11.0553ZM28.1581 12.4327L22.7793 14.4818C22.7083 14.5089 22.6329 14.5227 22.5568 14.5227H17.1591C17.0888 14.5227 17.019 14.5109 16.9526 14.4876L11.8218 12.6918L11.2795 13.9573L12.6549 20.0092C12.6802 20.1207 12.6745 20.2369 12.6384 20.3454L11.2813 24.4167L12.1818 27.3433L15.8617 26.362C16.0399 26.3145 16.23 26.3481 16.3811 26.4539L19.0606 28.3295H21.2234L23.903 26.4539C24.0572 26.3459 24.252 26.3132 24.4331 26.365L27.8214 27.3331L28.7187 24.4167L27.3616 20.3454C27.3255 20.2369 27.3198 20.1207 27.3451 20.0092L28.724 13.9418L28.1581 12.4327Z" fill="#4C4C4C"/>
<path fill-rule="evenodd" clip-rule="evenodd" d="M20 39C30.4934 39 39 30.4934 39 20C39 9.50659 30.4934 1 20 1C9.50659 1 1 9.50659 1 20C1 30.4934 9.50659 39 20 39ZM20 40C31.0457 40 40 31.0457 40 20C40 8.9543 31.0457 0 20 0C8.9543 0 0 8.9543 0 20C0 31.0457 8.9543 40 20 40Z" fill="#4C4C4C"/>
</svg>
