<svg width="35" height="35" viewBox="0 0 35 35" fill="none" xmlns="http://www.w3.org/2000/svg">
<circle cx="17.5" cy="17.5" r="17.25" stroke="#0A0806" stroke-width="0.5"/>
<path d="M11.3136 13.3554C11.3605 12.2942 11.3444 11.2944 11.4592 10.3091C11.8443 7.03955 14.6609 4.80052 18.0582 5.01407C21.0932 5.20497 23.5765 7.88565 23.6105 11.0129C23.6186 11.7878 23.6121 12.5627 23.6121 13.3198C24.2722 13.4994 24.8708 13.5884 25.3949 13.8343C25.6635 13.9605 25.966 14.3682 25.9693 14.6513C26.0065 18.3965 25.9887 22.1433 26 25.8901C26.0016 26.4046 25.78 26.6747 25.3124 26.8398C22.8518 27.7118 20.3992 28.6096 17.9337 29.4687C17.6586 29.5641 17.2914 29.5544 17.0147 29.4574C14.6285 28.621 12.2584 27.7312 9.86894 26.9061C9.22829 26.6845 8.99856 26.3641 9.00503 25.6798C9.03577 22.0948 9.04062 18.5097 9.00018 14.9263C8.99209 14.1854 9.25579 13.8311 9.94012 13.6903C10.385 13.5997 10.8218 13.4768 11.3136 13.3554ZM22.6107 20.3945C22.6107 19.3186 22.5945 18.2412 22.6172 17.1653C22.6269 16.6849 22.4845 16.4034 21.9749 16.3306C18.9998 15.9132 16.0263 15.9002 13.0495 16.316C12.5448 16.3872 12.3878 16.6412 12.3927 17.1297C12.4089 19.283 12.4089 21.4347 12.3895 23.588C12.3846 24.0313 12.5237 24.2659 12.9557 24.4131C14.3292 24.8806 15.6849 25.3999 17.0584 25.8658C17.314 25.9532 17.6489 25.9613 17.9029 25.8739C19.3023 25.3983 20.6839 24.8709 22.0801 24.3888C22.5201 24.2367 22.6285 23.9746 22.6172 23.5411C22.5929 22.4944 22.6107 21.4444 22.6107 20.3945ZM14.2645 13.0076C16.476 13.0076 18.5371 13.0076 20.7357 13.0076C20.6726 12.0078 20.7114 11.0307 20.5302 10.0988C20.2552 8.69455 19.1098 7.93581 17.5292 7.93095C15.9244 7.92772 14.7644 8.65896 14.4845 10.0438C14.2871 11.0015 14.3292 12.0062 14.2645 13.0076Z" fill="black"/>
</svg>
