<svg width="40" height="40" viewBox="0 0 40 40" fill="none" xmlns="http://www.w3.org/2000/svg">
<path d="M14.6813 15.3724C14.7227 14.436 14.7084 13.5538 14.8098 12.6845C15.1495 9.7996 17.6347 7.82398 20.6324 8.01241C23.3103 8.18085 25.5015 10.5462 25.5315 13.3055C25.5386 13.9892 25.5329 14.673 25.5329 15.341C26.1153 15.4995 26.6435 15.578 27.106 15.795C27.3429 15.9063 27.6099 16.266 27.6127 16.5158C27.6455 19.8204 27.6298 23.1264 27.6398 26.4325C27.6413 26.8864 27.4457 27.1248 27.0332 27.2704C24.862 28.0398 22.6979 28.832 20.5225 29.59C20.2798 29.6742 19.9558 29.6657 19.7117 29.58C17.6062 28.842 15.5149 28.0569 13.4066 27.3289C12.8413 27.1333 12.6386 26.8507 12.6443 26.2469C12.6714 23.0836 12.6757 19.9203 12.64 16.7585C12.6329 16.1047 12.8655 15.7921 13.4694 15.6679C13.8619 15.588 14.2473 15.4795 14.6813 15.3724ZM24.6493 21.5834C24.6493 20.6341 24.635 19.6834 24.655 18.7341C24.6636 18.3102 24.5379 18.0618 24.0883 17.9976C21.4632 17.6293 18.8395 17.6178 16.213 17.9847C15.7676 18.0475 15.6291 18.2716 15.6334 18.7027C15.6477 20.6027 15.6477 22.5012 15.6305 24.4012C15.6263 24.7923 15.749 24.9993 16.1302 25.1292C17.3421 25.5417 18.5383 25.9999 19.7502 26.411C19.9758 26.4881 20.2712 26.4953 20.4954 26.4182C21.7301 25.9985 22.9492 25.5332 24.1811 25.1078C24.5694 24.9736 24.665 24.7423 24.655 24.3598C24.6336 23.4362 24.6493 22.5098 24.6493 21.5834ZM17.285 15.0655C19.2363 15.0655 21.0549 15.0655 22.9949 15.0655C22.9392 14.1834 22.9734 13.3212 22.8136 12.4989C22.5709 11.2599 21.5603 10.5904 20.1656 10.5861C18.7496 10.5833 17.7261 11.2285 17.4791 12.4504C17.305 13.2955 17.3421 14.1819 17.285 15.0655Z" fill="#4C4C4C"/>
<path fill-rule="evenodd" clip-rule="evenodd" d="M20 39C30.4934 39 39 30.4934 39 20C39 9.50659 30.4934 1 20 1C9.50659 1 1 9.50659 1 20C1 30.4934 9.50659 39 20 39ZM20 40C31.0457 40 40 31.0457 40 20C40 8.9543 31.0457 0 20 0C8.9543 0 0 8.9543 0 20C0 31.0457 8.9543 40 20 40Z" fill="#4C4C4C"/>
</svg>
