<svg width="10" height="10" viewBox="0 0 10 10" fill="none" xmlns="http://www.w3.org/2000/svg">
<path fill-rule="evenodd" clip-rule="evenodd" d="M2.90026 0.234177C2.99185 0.372248 2.95416 0.558422 2.81609 0.650008C1.89436 1.26141 1.34023 2.29393 1.34023 3.40001C1.34023 4.50608 1.89436 5.5386 2.81609 6.15001C2.95416 6.24159 2.99185 6.42777 2.90026 6.56584C2.80867 6.70391 2.6225 6.74159 2.48443 6.65001C1.39511 5.92744 0.740234 4.70719 0.740234 3.40001C0.740234 2.09283 1.39511 0.872579 2.48443 0.150008C2.6225 0.058422 2.80867 0.0961057 2.90026 0.234177ZM6.98066 0.234177C7.07225 0.0961057 7.25842 0.058422 7.39649 0.150008C8.48581 0.872579 9.14069 2.09283 9.14069 3.40001C9.14069 4.70719 8.48581 5.92744 7.39649 6.65001C7.25842 6.74159 7.07225 6.70391 6.98066 6.56584C6.88908 6.42777 6.92676 6.24159 7.06483 6.15001C7.98656 5.5386 8.54069 4.50608 8.54069 3.40001C8.54069 2.29393 7.98656 1.26141 7.06483 0.650008C6.92676 0.558422 6.88908 0.372248 6.98066 0.234177ZM3.35012 1.71684C3.46852 1.83275 3.47053 2.02269 3.35462 2.14108C2.66939 2.84097 2.66939 3.96025 3.35462 4.66014C3.47053 4.77853 3.46852 4.96847 3.35012 5.08438C3.23173 5.20029 3.04179 5.19828 2.92588 5.07988C2.0123 4.14675 2.0123 2.65447 2.92588 1.72133C3.04179 1.60294 3.23173 1.60093 3.35012 1.71684ZM6.5303 1.71692C6.64865 1.60097 6.83859 1.60291 6.95455 1.72126C7.86866 2.65423 7.86866 4.14698 6.95455 5.07996C6.83859 5.19831 6.64865 5.20025 6.5303 5.0843C6.41196 4.96834 6.41002 4.7784 6.52597 4.66006C7.21152 3.96036 7.21152 2.84086 6.52597 2.14116C6.41002 2.02282 6.41196 1.83288 6.5303 1.71692ZM4.94026 3.1004C5.10594 3.1004 5.24026 3.23471 5.24026 3.4004V4.546L6.56873 8.08858C6.57046 8.09288 6.57209 8.09723 6.57362 8.10163L7.02116 9.29506C7.07933 9.4502 7.00073 9.62312 6.84559 9.6813C6.69046 9.73947 6.51754 9.66087 6.45936 9.50574L6.08236 8.5004H3.79816L3.42116 9.50574C3.36298 9.66087 3.19006 9.73947 3.03492 9.6813C2.87979 9.62312 2.80118 9.4502 2.85936 9.29506L3.3069 8.10163C3.30843 8.09723 3.31006 8.09288 3.31179 8.08858L4.64026 4.546V3.4004C4.64026 3.23471 4.77457 3.1004 4.94026 3.1004ZM4.94026 5.4548L4.02316 7.9004H5.85736L4.94026 5.4548Z" fill="#4C4C4C"/>
</svg>
