<svg width="140" height="105" viewBox="0 0 140 105" fill="none" xmlns="http://www.w3.org/2000/svg">
<circle cx="52.3192" cy="52.3192" r="52.3192" fill="#52388A"/>
<mask id="mask0" mask-type="alpha" maskUnits="userSpaceOnUse" x="0" y="0" width="105" height="105">
<circle cx="52.3192" cy="52.3192" r="52.3192" fill="#52388A"/>
</mask>
<g mask="url(#mask0)">
<path d="M-64.0308 31.3643C-79.3145 36.5641 -87.8224 34.9139 -92.1643 32.791C-93.7818 32.0001 -96.6306 32.9146 -96.9052 34.694C-100.829 60.1222 -99.1034 102.874 17.2527 102.874C143.877 102.874 135.272 59.0136 129.863 33.9073C129.525 32.3403 127.824 32.0191 127.434 33.5738C126.356 37.863 126.651 43.1282 113.374 43.1696C103.532 43.2004 98.9436 38.9256 96.8207 35.2837C95.8866 33.6812 92.8299 33.0088 91.5463 34.3477C87.9165 38.1339 81.8335 43.1696 75.1551 43.1696C67.9675 43.1696 62.8488 37.3368 60.2623 33.5063C59.3615 32.1723 57.1485 32.0748 56.1382 33.3279C52.8618 37.3919 46.0299 44.0253 36.3415 44.0253C28.9887 44.0253 24.2265 36.9208 22.1247 32.9122C21.4683 31.6604 19.7947 31.3194 18.8721 32.3901C15.2489 36.5952 10.2034 43.1696 0.416977 43.1696C-14.4651 43.1696 -15.8751 36.9443 -17.5181 32.7346C-18.022 31.4434 -19.6274 31.4832 -20.4985 32.5615C-23.5558 36.3463 -31.057 43.3624 -44.2826 42.6877C-56.022 42.0889 -59.5212 36.9905 -60.534 33.5072C-60.9539 32.0631 -62.607 30.8799 -64.0308 31.3643Z" fill="#1BA58C"/>
<path d="M-80.0223 50.6474C-94.7321 55.7511 -103.005 54.2037 -107.287 52.1222C-108.919 51.3289 -111.823 52.2598 -112.092 54.0542C-115.906 79.495 -114.068 122.129 -0.48761 122.129C123.163 122.129 114.892 78.356 109.603 53.2375C109.27 51.6548 107.571 51.3442 107.192 52.9166C106.163 57.1895 106.359 62.3834 93.4704 62.4246C83.9438 62.4551 79.4526 58.2638 77.3509 54.6457C76.4128 53.0309 73.3089 52.3576 72.0272 53.7159C68.4674 57.4884 62.5746 62.4246 56.1113 62.4246C49.1413 62.4246 44.1616 56.6839 41.6145 52.8528C40.7139 51.4983 38.4597 51.4022 37.4486 52.6764C34.2178 56.7478 27.5695 63.2803 18.1715 63.2803C11.0213 63.2803 6.37734 56.2491 4.30676 52.2296C3.65209 50.9588 1.95677 50.6205 1.03681 51.7147C-2.50072 55.9223 -7.43085 62.4246 -16.9444 62.4246C-31.408 62.4246 -32.8535 56.2706 -34.4481 52.0623C-34.9455 50.7496 -36.5686 50.7852 -37.4424 51.8839C-40.4643 55.6839 -47.7863 62.6134 -60.6378 61.9427C-72.0921 61.345 -75.5209 56.2641 -76.5179 52.7813C-76.933 51.3313 -78.5974 50.153 -80.0223 50.6474Z" fill="#18D4B2"/>
</g>
<path d="M124.259 69.1361C124.259 68.3204 124.92 67.6592 125.736 67.6592C126.551 67.6592 127.213 68.3204 127.213 69.1361L127.213 71.4991H129.576C130.391 71.4991 131.052 72.1603 131.052 72.9759C131.052 73.7916 130.391 74.4528 129.576 74.4528H127.213L127.213 76.8158C127.213 77.6315 126.551 78.2927 125.736 78.2927C124.92 78.2927 124.259 77.6315 124.259 76.8158V74.4528H121.896C121.08 74.4528 120.419 73.7916 120.419 72.9759C120.419 72.1603 121.08 71.4991 121.896 71.4991H124.259V69.1361Z" fill="#12C0A1"/>
<path d="M100.818 39.9825C100.818 39.1668 101.479 38.5056 102.295 38.5056C103.11 38.5056 103.772 39.1668 103.772 39.9825L103.772 42.3455H106.135C106.95 42.3455 107.611 43.0067 107.611 43.8224C107.611 44.638 106.95 45.2992 106.135 45.2992H103.772L103.772 47.6622C103.772 48.4779 103.11 49.1391 102.295 49.1391C101.479 49.1391 100.818 48.4779 100.818 47.6622V45.2992H98.4548C97.6392 45.2992 96.9779 44.638 96.9779 43.8224C96.9779 43.0067 97.6392 42.3455 98.4548 42.3455H100.818V39.9825Z" fill="#48DBB4"/>
<path d="M104.892 3.25861C104.892 4.29161 104.054 5.12903 103.021 5.12903C101.988 5.12903 101.151 4.29161 101.151 3.25861C101.151 2.2256 101.988 1.38818 103.021 1.38818C104.054 1.38818 104.892 2.2256 104.892 3.25861Z" fill="#1BA58C"/>
<path d="M119.519 86.2239C119.519 87.2027 118.726 87.9962 117.747 87.9962C116.768 87.9962 115.975 87.2027 115.975 86.2239C115.975 85.2451 116.768 84.4517 117.747 84.4517C118.726 84.4517 119.519 85.2451 119.519 86.2239Z" fill="#91E9D2"/>
<path d="M140 25.7273C140 26.7061 139.207 27.4996 138.228 27.4996C137.249 27.4996 136.456 26.7061 136.456 25.7273C136.456 24.7485 137.249 23.9551 138.228 23.9551C139.207 23.9551 140 24.7485 140 25.7273Z" fill="#48DBB4"/>
<path d="M120.295 28.3128L118.002 29.5157L118.002 29.5165C113.534 31.9352 112.225 38.2687 115.085 43.7232C117.946 49.1776 123.901 51.7014 128.431 49.4008L128.438 49.3971C128.466 49.3827 128.494 49.3682 128.522 49.3535C128.581 49.3229 128.638 49.2919 128.695 49.2605L130.719 48.1872L130.566 47.8964L120.295 28.3128Z" fill="#12C0A1"/>
<mask id="mask1" mask-type="alpha" maskUnits="userSpaceOnUse" x="113" y="28" width="18" height="23">
<path d="M120.295 28.3128L118.002 29.5157L118.002 29.5165C113.534 31.9352 112.225 38.2687 115.085 43.7232C117.946 49.1776 123.901 51.7014 128.431 49.4008L128.438 49.3971C128.466 49.3827 128.494 49.3682 128.522 49.3535C128.581 49.3229 128.638 49.2919 128.695 49.2605L130.719 48.1872L130.566 47.8964L120.295 28.3128Z" fill="#12C0A1"/>
</mask>
<g mask="url(#mask1)">
<rect x="112.405" y="71.8311" width="23.3539" height="40.2207" transform="rotate(-120.101 112.405 71.8311)" fill="#1BA58C"/>
<rect x="118.903" y="75.0487" width="23.3539" height="40.2207" transform="rotate(-120.101 118.903 75.0487)" fill="#118263"/>
</g>
<ellipse cx="125.399" cy="38.3211" rx="9.2846" ry="11.2272" transform="rotate(-27.6757 125.399 38.3211)" fill="#91E9D2"/>
<path d="M131.885 34.6991C134.094 38.9099 133.036 43.7411 129.628 45.5285C126.22 47.3159 121.644 45.4396 119.435 41.2288C117.227 37.0181 118.285 32.1868 121.693 30.3995C125.101 28.6121 129.677 30.4884 131.885 34.6991Z" fill="#91E9D2" stroke="#48DBB4" stroke-width="0.4"/>
<path d="M118.71 7.42347L117.468 7.0549L117.468 7.05533C115.024 6.36427 112.346 8.1775 111.47 11.1296C110.593 14.0818 111.847 17.0625 114.273 17.8175L114.276 17.8186L114.322 17.8324C114.353 17.8418 114.385 17.8508 114.416 17.8594L115.516 18.1803L115.562 18.0229L118.71 7.42347Z" fill="#12C0A1"/>
<mask id="mask2" mask-type="alpha" maskUnits="userSpaceOnUse" x="111" y="6" width="8" height="13">
<path d="M118.71 7.42347L117.468 7.0549L117.468 7.05533C115.024 6.36427 112.346 8.1775 111.47 11.1296C110.593 14.0818 111.847 17.0625 114.273 17.8175L114.276 17.8186L114.322 17.8324C114.353 17.8418 114.385 17.8508 114.416 17.8594L115.516 18.1803L115.562 18.0229L118.71 7.42347Z" fill="#12C0A1"/>
</mask>
<g mask="url(#mask2)">
<rect x="102.941" y="25.8267" width="11.6769" height="20.1103" transform="rotate(-105.109 102.941 25.8267)" fill="#1BA58C"/>
<rect x="105.663" y="28.2218" width="11.6769" height="20.1103" transform="rotate(-105.109 105.663 28.2218)" fill="#118263"/>
</g>
<ellipse cx="117.05" cy="12.7894" rx="4.64228" ry="5.61357" transform="rotate(16.5372 117.05 12.7894)" fill="#91E9D2"/>
<path d="M120.541 13.7248C119.874 15.9687 117.856 17.2783 116.08 16.7512C114.305 16.2241 113.328 14.0249 113.994 11.7809C114.66 9.53701 116.679 8.22738 118.455 8.75452C120.23 9.28166 121.207 11.4809 120.541 13.7248Z" fill="#91E9D2" stroke="#48DBB4" stroke-width="0.4"/>
<path d="M89.8018 58.1857L85.4806 58.7659L85.4808 58.7674C77.0188 60.0169 71.2957 69.2799 72.6756 79.5568C74.0555 89.8338 82.0194 97.2592 90.5113 96.2323L90.5244 96.2305C90.5773 96.224 90.6302 96.2172 90.6831 96.2101C90.793 96.1954 90.9021 96.1796 91.0105 96.1629L94.8298 95.6319L94.7562 95.084L89.8018 58.1857Z" fill="#12C0A1"/>
<mask id="mask3" mask-type="alpha" maskUnits="userSpaceOnUse" x="72" y="58" width="23" height="39">
<path d="M89.8019 58.1866L85.4807 58.7669L85.4809 58.7684C77.0189 60.0179 71.2958 69.2809 72.6757 79.5578C74.0556 89.8348 82.0195 97.2602 90.5114 96.2333L90.5246 96.2314C90.5774 96.225 90.6303 96.2182 90.6832 96.2111C90.7931 96.1964 90.9022 96.1806 91.0106 96.1639L94.8299 95.6329L94.7563 95.085L89.8019 58.1866Z" fill="#12C0A1"/>
</mask>
<g mask="url(#mask3)">
<rect x="71.5496" y="101.54" width="18.9901" height="32.7051" transform="rotate(-110.678 71.5496 101.54)" fill="#1BA58C"/>
<rect x="77.3896" y="112.842" width="18.9901" height="32.7051" transform="rotate(-110.678 77.3896 112.842)" fill="#118263"/>
</g>
<ellipse cx="91.7532" cy="76.9958" rx="15.6311" ry="18.9016" transform="rotate(-7.64752 91.7532 76.9958)" fill="#91E9D2"/>
<path d="M96.9252 72.6235L96.521 69.6137L90.9044 70.3679L91.3033 73.3385L92.1795 73.2208L90.7743 75.906L90.056 76.0024L89.7267 73.5501L90.7143 73.4175L90.3154 70.4469L88.9831 70.6258L89.1328 71.7409L88.411 71.8378L88.2613 70.7228L86.9433 70.8997L87.093 72.0148L86.3712 72.1117L86.2215 70.9966L84.8892 71.1755L85.2933 74.1853L86.4712 74.0272L86.9742 77.7731L87.4772 81.519L86.2992 81.6772L86.7034 84.687L92.1297 83.9584L91.7308 80.9878L90.7432 81.1204L90.4139 78.6681L91.1322 78.5717L93.196 80.7911L92.3198 80.9087L92.7186 83.8793L98.3352 83.1252L97.9311 80.1154L97.0585 80.2325L93.9088 76.842L96.0525 72.7407L96.9252 72.6235Z" fill="#12C0A1"/>
<path fill-rule="evenodd" clip-rule="evenodd" d="M89.2828 60.251C89.2926 60.2496 89.3025 60.2483 89.3123 60.247C89.3222 60.2457 89.332 60.2443 89.3419 60.243C89.4751 60.2255 89.6004 60.3421 89.6218 60.5035C89.6432 60.6649 89.5525 60.8099 89.4193 60.8275C89.4098 60.8287 89.4003 60.83 89.3908 60.8313C89.3813 60.8325 89.3718 60.8338 89.3622 60.8351C89.2292 60.8533 89.1035 60.7373 89.0815 60.576C89.0596 60.4147 89.1497 60.2692 89.2828 60.251ZM87.8457 60.8416C87.8841 60.9993 87.8104 61.1582 87.6811 61.1965C87.6628 61.2019 87.6444 61.2074 87.6261 61.2129C87.4969 61.2519 87.3607 61.1557 87.3217 60.9981C87.2827 60.8405 87.3558 60.6812 87.4849 60.6422C87.5039 60.6365 87.5229 60.6308 87.542 60.6252C87.6713 60.5869 87.8072 60.6838 87.8457 60.8416ZM90.8839 60.4336C90.8794 60.2713 90.985 60.142 91.1198 60.1448C91.1396 60.1452 91.1595 60.1457 91.1793 60.1462C91.3141 60.1497 91.4266 60.2841 91.4306 60.4463C91.4346 60.6086 91.3285 60.7374 91.1937 60.7339C91.1745 60.7334 91.1554 60.733 91.1362 60.7326C91.0014 60.7298 90.8884 60.5959 90.8839 60.4336ZM86.1345 61.4569C86.1895 61.6083 86.1343 61.7785 86.0111 61.8371C85.9936 61.8455 85.9761 61.8539 85.9586 61.8623C85.8357 61.9216 85.691 61.8471 85.6354 61.696C85.5799 61.5448 85.6344 61.3743 85.7574 61.315C85.7755 61.3063 85.7936 61.2976 85.8118 61.2889C85.9349 61.2303 86.0794 61.3055 86.1345 61.4569ZM92.6968 60.5758C92.71 60.4152 92.8295 60.3046 92.9638 60.3286C92.9836 60.3322 93.0034 60.3358 93.0231 60.3394C93.1573 60.3642 93.255 60.5143 93.2412 60.6747C93.2275 60.8351 93.1076 60.9451 92.9734 60.9204C92.9543 60.9169 92.9352 60.9134 92.9161 60.91C92.7818 60.8859 92.6837 60.7363 92.6968 60.5758ZM84.5164 62.3421C84.5871 62.4845 84.5514 62.6631 84.4366 62.7411C84.4203 62.7522 84.404 62.7633 84.3878 62.7745C84.2732 62.8531 84.1226 62.8017 84.0513 62.6597C83.9801 62.5176 84.0152 62.3388 84.1297 62.2602C84.1465 62.2486 84.1634 62.2371 84.1803 62.2256C84.2951 62.1476 84.4456 62.1998 84.5164 62.3421ZM94.4911 61.0028C94.5218 60.8468 94.6532 60.7568 94.7846 60.8018C94.8039 60.8084 94.8232 60.815 94.8425 60.8217C94.9737 60.8673 95.0547 61.0306 95.0234 61.1864C94.9922 61.3422 94.8604 61.4315 94.7292 61.3859C94.7106 61.3794 94.692 61.373 94.6734 61.3666C94.542 61.3217 94.4604 61.1588 94.4911 61.0028ZM83.0199 63.4818C83.1051 63.6127 83.0894 63.7967 82.9848 63.8927C82.97 63.9063 82.9551 63.92 82.9403 63.9337C82.8361 64.0302 82.6822 64.0027 82.5966 63.8722C82.5109 63.7417 82.526 63.5577 82.6302 63.4611C82.6455 63.4469 82.6609 63.4327 82.6763 63.4186C82.7808 63.3226 82.9347 63.3509 83.0199 63.4818ZM96.2352 61.7074C96.2829 61.5586 96.4238 61.4907 96.55 61.5557C96.5686 61.5653 96.5871 61.5749 96.6057 61.5846C96.7317 61.6502 96.7947 61.8238 96.7465 61.9723C96.6983 62.1207 96.5571 62.1879 96.4312 62.1222C96.4133 62.1129 96.3953 62.1036 96.3774 62.0944C96.2512 62.0294 96.1876 61.8561 96.2352 61.7074ZM81.6704 64.855C81.7685 64.9723 81.773 65.1584 81.6804 65.2706C81.6673 65.2866 81.6541 65.3026 81.641 65.3186C81.5489 65.4313 81.3943 65.428 81.2958 65.3112C81.1973 65.1944 81.1922 65.0083 81.2843 64.8956C81.2979 64.879 81.3115 64.8625 81.3251 64.8459C81.4177 64.7337 81.5723 64.7378 81.6704 64.855ZM97.8992 62.676C97.9629 62.537 98.1109 62.4922 98.2298 62.5761C98.2473 62.5884 98.2648 62.6008 98.2823 62.6133C98.4009 62.6977 98.445 62.8785 98.3808 63.0172C98.3166 63.1558 98.1684 63.1998 98.0498 63.1153C98.0329 63.1033 98.016 63.0914 97.9991 63.0795C97.8802 62.9956 97.8355 62.815 97.8992 62.676ZM80.4899 66.4374C80.5992 66.5391 80.6237 66.7241 80.5447 66.8506C80.5334 66.8686 80.5222 66.8866 80.5111 66.9046C80.4325 67.0316 80.2799 67.0525 80.1703 66.9513C80.0606 66.8501 80.0355 66.6652 80.1141 66.5382C80.1256 66.5196 80.1372 66.5009 80.1489 66.4823C80.2279 66.3558 80.3806 66.3357 80.4899 66.4374ZM99.4552 63.8908C99.5338 63.7639 99.6864 63.743 99.796 63.8442C99.8122 63.8591 99.8283 63.874 99.8444 63.889C99.9537 63.9907 99.9782 64.1757 99.8991 64.3022C99.8201 64.4288 99.6674 64.4489 99.5581 64.3471C99.5426 64.3327 99.527 64.3183 99.5114 64.3039C99.4018 64.2027 99.3766 64.0178 99.4552 63.8908ZM79.4981 68.2014C79.6167 68.2858 79.6609 68.4666 79.5967 68.6053C79.5875 68.625 79.5785 68.6447 79.5694 68.6645C79.5057 68.8035 79.3577 68.8482 79.2388 68.7644C79.1199 68.6805 79.0751 68.4999 79.1388 68.3609C79.1482 68.3404 79.1576 68.32 79.167 68.2995C79.2312 68.1609 79.3795 68.1169 79.4981 68.2014ZM100.877 65.3307C100.969 65.218 101.124 65.2213 101.222 65.3381C101.237 65.3553 101.251 65.3725 101.266 65.3898C101.364 65.5071 101.368 65.6931 101.276 65.8054C101.183 65.9176 101.029 65.9135 100.931 65.7963C100.917 65.7796 100.903 65.7629 100.889 65.7463C100.79 65.6295 100.785 65.4435 100.877 65.3307ZM78.712 70.1174C78.838 70.183 78.9011 70.3566 78.8529 70.505C78.846 70.5261 78.8392 70.5472 78.8325 70.5684C78.7848 70.7171 78.6439 70.785 78.5177 70.72C78.3915 70.655 78.3278 70.4817 78.3755 70.3329C78.3825 70.311 78.3895 70.2892 78.3966 70.2673C78.4448 70.1189 78.586 70.0517 78.712 70.1174ZM102.141 66.9715C102.245 66.8749 102.399 66.9025 102.485 67.033C102.497 67.0522 102.51 67.0714 102.522 67.0907C102.608 67.2216 102.592 67.4055 102.487 67.5015C102.383 67.5975 102.229 67.5692 102.144 67.4383C102.132 67.4197 102.119 67.4011 102.107 67.3826C102.022 67.2521 102.037 67.0681 102.141 66.9715ZM78.146 72.1536C78.2772 72.1992 78.3583 72.3625 78.327 72.5183C78.3226 72.5404 78.3182 72.5625 78.3138 72.5846C78.2831 72.7406 78.1517 72.8306 78.0204 72.7856C77.889 72.7407 77.8074 72.5778 77.8381 72.4218C77.8427 72.3989 77.8472 72.376 77.8518 72.3531C77.8831 72.1973 78.0148 72.108 78.146 72.1536ZM103.224 68.7863C103.339 68.7077 103.489 68.7591 103.56 68.9011C103.571 68.922 103.581 68.9429 103.592 68.9638C103.662 69.1062 103.627 69.2848 103.512 69.3628C103.397 69.4408 103.247 69.3887 103.176 69.2463C103.17 69.2341 103.164 69.2218 103.158 69.2096C103.154 69.2017 103.15 69.1937 103.146 69.1858C103.074 69.0438 103.109 68.8649 103.224 68.7863ZM77.8111 74.275C77.9453 74.2997 78.043 74.4498 78.0292 74.6103C78.0273 74.6331 78.0254 74.6559 78.0235 74.6788C78.0103 74.8393 77.8908 74.95 77.7566 74.9259C77.6223 74.9019 77.5242 74.7522 77.5373 74.5917C77.5393 74.568 77.5412 74.5444 77.5433 74.5207C77.557 74.3603 77.6769 74.2503 77.8111 74.275ZM104.107 70.7442C104.23 70.685 104.374 70.7594 104.43 70.9106C104.434 70.921 104.437 70.9315 104.441 70.942C104.446 70.9538 104.45 70.9657 104.454 70.9775C104.509 71.1289 104.454 71.2991 104.331 71.3577C104.208 71.4163 104.063 71.3411 104.008 71.1898C104.004 71.1783 104 71.1669 103.996 71.1555C103.992 71.1454 103.988 71.1353 103.985 71.1252C103.929 70.974 103.984 70.8035 104.107 70.7442ZM77.7135 76.4451C77.8483 76.4486 77.9608 76.583 77.9648 76.7453C77.9654 76.7683 77.966 76.7914 77.9666 76.8144C77.9712 76.9767 77.8655 77.106 77.7307 77.1032C77.5959 77.1004 77.4829 76.9666 77.4784 76.8043C77.4777 76.7804 77.4771 76.7565 77.4765 76.7326C77.4725 76.5704 77.5786 76.4416 77.7135 76.4451ZM104.773 72.8117C104.902 72.7728 105.039 72.869 105.078 73.0266C105.083 73.0497 105.089 73.0729 105.095 73.0962C105.133 73.2539 105.06 73.4128 104.93 73.4511C104.801 73.4893 104.665 73.3925 104.627 73.2347C104.621 73.2123 104.616 73.1899 104.61 73.1675C104.571 73.0099 104.644 72.8506 104.773 72.8117ZM77.8532 78.6276C77.9864 78.6101 78.1117 78.7267 78.1331 78.8881C78.1346 78.8996 78.1362 78.9111 78.1377 78.9227C78.1393 78.9342 78.1408 78.9457 78.1424 78.9573C78.1644 79.1186 78.0742 79.2641 77.9411 79.2823C77.808 79.3005 77.6824 79.1845 77.6604 79.0232C77.6588 79.0113 77.6572 78.9993 77.6556 78.9874C77.654 78.9755 77.6524 78.9635 77.6508 78.9516C77.6294 78.7902 77.7201 78.6452 77.8532 78.6276ZM105.214 74.9538C105.347 74.9356 105.473 75.0516 105.495 75.2129C105.497 75.2248 105.498 75.2368 105.5 75.2487C105.501 75.2606 105.503 75.2726 105.505 75.2845C105.526 75.4459 105.435 75.5909 105.302 75.6085C105.169 75.626 105.044 75.5094 105.022 75.348C105.021 75.3365 105.019 75.325 105.018 75.3134C105.016 75.3019 105.014 75.2904 105.013 75.2788C104.991 75.1175 105.081 74.972 105.214 74.9538ZM78.2251 80.785C78.3544 80.7468 78.4904 80.8436 78.5288 81.0014C78.5343 81.0238 78.5398 81.0462 78.5453 81.0686C78.5843 81.2262 78.5112 81.3855 78.382 81.4244C78.2529 81.4633 78.1166 81.3671 78.0776 81.2095C78.0719 81.1864 78.0662 81.1632 78.0606 81.1399C78.0221 80.9822 78.0958 80.8233 78.2251 80.785ZM105.425 77.1329C105.559 77.1357 105.672 77.2695 105.677 77.4318C105.678 77.4557 105.678 77.4796 105.679 77.5035C105.683 77.6657 105.577 77.7945 105.442 77.791C105.307 77.7875 105.195 77.6531 105.191 77.4908C105.19 77.4678 105.189 77.4447 105.189 77.4217C105.184 77.2594 105.29 77.1301 105.425 77.1329ZM78.8244 82.8784C78.9475 82.8198 79.092 82.895 79.147 83.0463C79.1548 83.0679 79.1627 83.0894 79.1706 83.1109C79.2262 83.2621 79.1716 83.4326 79.0487 83.4919C78.9258 83.5511 78.7811 83.4767 78.7255 83.3255C78.7173 83.3032 78.7092 83.2809 78.701 83.2586C78.646 83.1072 78.7012 82.937 78.8244 82.8784ZM105.399 79.3102C105.533 79.3342 105.631 79.4839 105.618 79.6444C105.616 79.6681 105.614 79.6917 105.612 79.7154C105.598 79.8758 105.478 79.9858 105.344 79.9611C105.21 79.9364 105.112 79.7863 105.126 79.6258C105.128 79.603 105.13 79.5802 105.132 79.5573C105.145 79.3968 105.265 79.2861 105.399 79.3102ZM79.6434 84.8733C79.7582 84.7953 79.9087 84.8474 79.9795 84.9898C79.9895 85.01 79.9996 85.0301 80.0097 85.0503C80.081 85.1923 80.0459 85.3712 79.9313 85.4498C79.8168 85.5284 79.6662 85.477 79.5949 85.335C79.5845 85.3141 79.574 85.2932 79.5636 85.2723C79.4928 85.1299 79.5286 84.9513 79.6434 84.8733ZM105.135 81.4505C105.266 81.4954 105.348 81.6583 105.317 81.8143C105.313 81.8372 105.308 81.8601 105.304 81.883C105.272 82.0388 105.141 82.1281 105.009 82.0825C104.878 82.0369 104.797 81.8736 104.828 81.7178C104.833 81.6957 104.837 81.6736 104.842 81.6515C104.872 81.4955 105.004 81.4055 105.135 81.4505ZM80.668 86.7346C80.7726 86.6386 80.9264 86.6669 81.0116 86.7978C81.0237 86.8164 81.0359 86.835 81.048 86.8535C81.1337 86.984 81.1186 87.168 81.0144 87.2646C80.9102 87.3612 80.7563 87.3336 80.6707 87.2031C80.6581 87.1839 80.6455 87.1647 80.6329 87.1454C80.5477 87.0145 80.5634 86.8306 80.668 86.7346ZM104.638 83.5161C104.764 83.5811 104.828 83.7544 104.78 83.9032C104.773 83.9251 104.766 83.9469 104.759 83.9688C104.71 84.1172 104.569 84.1844 104.443 84.1187C104.317 84.0531 104.254 83.8795 104.302 83.7311C104.309 83.71 104.316 83.6889 104.323 83.6677C104.371 83.519 104.511 83.4511 104.638 83.5161ZM81.8794 88.4307C81.972 88.3185 82.1266 88.3226 82.2247 88.4398C82.2386 88.4565 82.2526 88.4732 82.2666 88.4898C82.3651 88.6066 82.3702 88.7926 82.2781 88.9054C82.1859 89.0181 82.0314 89.0148 81.9329 88.898C81.9184 88.8808 81.9039 88.8636 81.8894 88.8463C81.7913 88.729 81.7868 88.543 81.8794 88.4307ZM103.917 85.4717C104.035 85.5556 104.08 85.7362 104.017 85.8752C104.007 85.8957 103.998 85.9161 103.988 85.9366C103.924 86.0752 103.776 86.1192 103.657 86.0347C103.539 85.9503 103.494 85.7695 103.559 85.6308C103.568 85.6111 103.577 85.5914 103.586 85.5716C103.65 85.4326 103.798 85.3879 103.917 85.4717ZM83.2562 89.9339C83.3352 89.8074 83.4879 89.7872 83.5972 89.889C83.6128 89.9034 83.6283 89.9178 83.6439 89.9322C83.7535 90.0334 83.7787 90.2183 83.7001 90.3453C83.6215 90.4722 83.4689 90.4931 83.3593 90.3919C83.3431 90.377 83.327 90.3621 83.3109 90.3471C83.2016 90.2454 83.1771 90.0604 83.2562 89.9339ZM102.985 87.2848C103.095 87.386 103.12 87.5709 103.041 87.6979C103.03 87.7166 103.018 87.7352 103.006 87.7538C102.927 87.8803 102.775 87.9004 102.665 87.7987C102.556 87.697 102.532 87.512 102.611 87.3855C102.622 87.3675 102.633 87.3495 102.644 87.3315C102.723 87.2045 102.875 87.1836 102.985 87.2848ZM84.7745 91.2189C84.8387 91.0803 84.9869 91.0363 85.1056 91.1208C85.1135 91.1264 85.1214 91.132 85.1294 91.1377C85.1383 91.144 85.1472 91.1503 85.1562 91.1566C85.2751 91.2405 85.3199 91.4211 85.2562 91.5601C85.1925 91.6991 85.0444 91.7439 84.9255 91.66C84.908 91.6477 84.8905 91.6353 84.8731 91.6228C84.7544 91.5384 84.7103 91.3576 84.7745 91.2189ZM101.86 88.9249C101.958 89.0417 101.963 89.2278 101.871 89.3405C101.857 89.3571 101.844 89.3736 101.83 89.3902C101.738 89.5024 101.583 89.4983 101.485 89.3811C101.387 89.2638 101.382 89.0777 101.475 88.9655C101.488 88.9495 101.501 88.9335 101.514 88.9175C101.606 88.8048 101.761 88.8081 101.86 88.9249ZM86.4088 92.2638C86.457 92.1154 86.5982 92.0482 86.7242 92.1139C86.7421 92.1232 86.76 92.1325 86.7779 92.1417C86.9041 92.2067 86.9678 92.38 86.9201 92.5287C86.8725 92.6775 86.7315 92.7454 86.6053 92.6804C86.5962 92.6756 86.587 92.6709 86.5778 92.6661C86.5684 92.6613 86.559 92.6564 86.5496 92.6515C86.4237 92.5859 86.3606 92.4123 86.4088 92.2638ZM100.559 90.3639C100.644 90.4944 100.629 90.6784 100.525 90.775C100.51 90.7892 100.494 90.8034 100.479 90.8175C100.374 90.9135 100.221 90.8852 100.135 90.7543C100.05 90.6234 100.066 90.4394 100.17 90.3435C100.185 90.3298 100.2 90.3161 100.215 90.3024C100.319 90.2059 100.473 90.2334 100.559 90.3639ZM88.1319 93.0497C88.1632 92.8939 88.2949 92.8046 88.4261 92.8502C88.4447 92.8567 88.4633 92.8631 88.482 92.8695C88.6133 92.9144 88.6949 93.0773 88.6642 93.2333C88.6335 93.3893 88.5021 93.4793 88.3708 93.4343C88.3515 93.4277 88.3322 93.4211 88.3129 93.4144C88.1817 93.3688 88.1006 93.2055 88.1319 93.0497ZM99.104 91.5764C99.1752 91.7185 99.1401 91.8973 99.0256 91.9759C99.0088 91.9875 98.9919 91.999 98.975 92.0105C98.8602 92.0885 98.7097 92.0363 98.639 91.894C98.5682 91.7516 98.6039 91.573 98.7188 91.495C98.7351 91.4839 98.7513 91.4728 98.7676 91.4616C98.8821 91.383 99.0327 91.4344 99.104 91.5764ZM89.9141 93.5614C89.9278 93.401 90.0477 93.291 90.1819 93.3157C90.201 93.3192 90.2201 93.3227 90.2393 93.3261C90.3735 93.3502 90.4717 93.4998 90.4585 93.6603C90.4453 93.8209 90.3258 93.9315 90.1916 93.9075C90.1718 93.9039 90.152 93.9003 90.1322 93.8967C89.998 93.8719 89.9003 93.7218 89.9141 93.5614ZM97.5199 92.5401C97.5755 92.6913 97.5209 92.8618 97.398 92.9211C97.3798 92.9298 97.3617 92.9385 97.3435 92.9472C97.2204 93.0058 97.0759 92.9306 97.0209 92.7792C96.9658 92.6278 97.021 92.4576 97.1442 92.399C97.1617 92.3906 97.1792 92.3822 97.1967 92.3738C97.3196 92.3145 97.4643 92.389 97.5199 92.5401ZM91.7247 93.7898C91.7207 93.6275 91.8268 93.4987 91.9616 93.5022C91.9808 93.5027 91.9999 93.5031 92.0191 93.5035C92.1539 93.5063 92.2669 93.6402 92.2714 93.8025C92.276 93.9648 92.1704 94.0941 92.0355 94.0913C92.0157 94.0909 91.9959 94.0904 91.976 94.0899C91.8412 94.0864 91.7287 93.9521 91.7247 93.7898ZM95.8336 93.238C95.8726 93.3956 95.7995 93.5549 95.6704 93.5939C95.6514 93.5996 95.6324 93.6053 95.6134 93.6109C95.4841 93.6492 95.3481 93.5523 95.3097 93.3945C95.2712 93.2368 95.3449 93.0779 95.4742 93.0396C95.4852 93.0364 95.4962 93.0331 95.5072 93.0298C95.5146 93.0276 95.5219 93.0254 95.5292 93.0232C95.6584 92.9842 95.7947 93.0804 95.8336 93.238ZM93.5336 93.7326C93.5122 93.5712 93.6028 93.4262 93.736 93.4086L93.7511 93.4066L93.7645 93.4048C93.7741 93.4036 93.7836 93.4023 93.7931 93.401C93.9262 93.3828 94.0519 93.4988 94.0738 93.6601C94.0957 93.8214 94.0056 93.9669 93.8725 93.9851C93.8627 93.9865 93.8528 93.9878 93.843 93.9891C93.8367 93.99 93.8304 93.9908 93.8241 93.9916L93.8134 93.9931C93.6802 94.0106 93.5549 93.894 93.5336 93.7326Z" fill="#12C0A1"/>
</svg>
