<svg width="380" height="242" viewBox="0 0 380 242" fill="none" xmlns="http://www.w3.org/2000/svg">
<circle cx="42" cy="173" r="23" fill="#E6E6E6"/>
<circle cx="44.5" cy="168.5" r="22.25" fill="white" stroke="#0A0806" stroke-width="0.5"/>
<line x1="189.5" y1="93.5" x2="189.5" y2="150.5" stroke="#0A0806" stroke-linecap="round" stroke-linejoin="round" stroke-dasharray="0.5 3"/>
<line x1="335.5" y1="91.5" x2="335.5" y2="150.5" stroke="#0A0806" stroke-linecap="round" stroke-linejoin="round" stroke-dasharray="0.5 3"/>
<path d="M44.5 91.5L189.5 91.5V44.5" stroke="#0A0806" stroke-linecap="round" stroke-linejoin="round" stroke-dasharray="0.5 3"/>
<path d="M334.5 91.5L190 91.5" stroke="#0A0806" stroke-linecap="round" stroke-linejoin="round" stroke-dasharray="0.5 3"/>
<line x1="44.5" y1="91.5" x2="44.5" y2="145.5" stroke="#0A0806" stroke-linecap="round" stroke-linejoin="round" stroke-dasharray="0.5 3"/>
<path d="M37 169.968V163.212C37 163.212 39.3851 163.223 41.363 162.248C43.3409 161.273 44.75 160 44.75 160C44.75 160 46.5748 161.313 48.8328 162.248C51.0909 163.183 52.5 163.212 52.5 163.212V170.811C52.5 173.902 47.1606 176.649 45.3456 177.671C44.9837 177.876 44.5163 177.876 44.1544 177.671C42.3394 176.649 37 174.464 37 169.968Z" stroke="#0A0806" stroke-width="1.5" stroke-linecap="round" stroke-linejoin="round"/>
<line x1="44.7656" y1="164.625" x2="44.7656" y2="173.2" stroke="#0A0806" stroke-width="1.5" stroke-linecap="round"/>
<path d="M4.228 237.14C3.108 237.14 2.254 236.734 1.666 235.922C1.078 235.11 0.784 233.929 0.784 232.38C0.784 230.831 1.078 229.65 1.666 228.838C2.254 228.026 3.108 227.62 4.228 227.62C5.348 227.62 6.202 228.026 6.79 228.838C7.378 229.65 7.672 230.831 7.672 232.38C7.672 233.929 7.378 235.11 6.79 235.922C6.202 236.734 5.348 237.14 4.228 237.14ZM4.228 236.132C4.96533 236.132 5.53 235.815 5.922 235.18C6.314 234.536 6.51 233.603 6.51 232.38C6.51 231.157 6.314 230.229 5.922 229.594C5.53 228.95 4.96533 228.628 4.228 228.628C3.49067 228.628 2.926 228.95 2.534 229.594C2.142 230.229 1.946 231.157 1.946 232.38C1.946 233.603 2.142 234.536 2.534 235.18C2.926 235.815 3.49067 236.132 4.228 236.132ZM14.0772 237L12.1452 234.298L10.1572 237H8.85522L11.5432 233.472L9.02322 230H10.4232L12.2712 232.59L14.0912 230H15.4072L12.8732 233.43L15.4492 237H14.0772ZM20.1421 237.14C19.0221 237.14 18.1681 236.734 17.5801 235.922C16.9921 235.11 16.6981 233.929 16.6981 232.38C16.6981 230.831 16.9921 229.65 17.5801 228.838C18.1681 228.026 19.0221 227.62 20.1421 227.62C21.2621 227.62 22.1161 228.026 22.7041 228.838C23.2921 229.65 23.5861 230.831 23.5861 232.38C23.5861 233.929 23.2921 235.11 22.7041 235.922C22.1161 236.734 21.2621 237.14 20.1421 237.14ZM20.1421 236.132C20.8794 236.132 21.4441 235.815 21.8361 235.18C22.2281 234.536 22.4241 233.603 22.4241 232.38C22.4241 231.157 22.2281 230.229 21.8361 229.594C21.4441 228.95 20.8794 228.628 20.1421 228.628C19.4047 228.628 18.8401 228.95 18.4481 229.594C18.0561 230.229 17.8601 231.157 17.8601 232.38C17.8601 233.603 18.0561 234.536 18.4481 235.18C18.8401 235.815 19.4047 236.132 20.1421 236.132ZM28.5913 237.14C27.4713 237.14 26.6173 236.734 26.0293 235.922C25.4413 235.11 25.1473 233.929 25.1473 232.38C25.1473 230.831 25.4413 229.65 26.0293 228.838C26.6173 228.026 27.4713 227.62 28.5913 227.62C29.7113 227.62 30.5653 228.026 31.1533 228.838C31.7413 229.65 32.0353 230.831 32.0353 232.38C32.0353 233.929 31.7413 235.11 31.1533 235.922C30.5653 236.734 29.7113 237.14 28.5913 237.14ZM28.5913 236.132C29.3286 236.132 29.8933 235.815 30.2853 235.18C30.6773 234.536 30.8733 233.603 30.8733 232.38C30.8733 231.157 30.6773 230.229 30.2853 229.594C29.8933 228.95 29.3286 228.628 28.5913 228.628C27.8539 228.628 27.2893 228.95 26.8973 229.594C26.5053 230.229 26.3093 231.157 26.3093 232.38C26.3093 233.603 26.5053 234.536 26.8973 235.18C27.2893 235.815 27.8539 236.132 28.5913 236.132ZM37.0405 237.14C35.9205 237.14 35.0665 236.734 34.4785 235.922C33.8905 235.11 33.5965 233.929 33.5965 232.38C33.5965 230.831 33.8905 229.65 34.4785 228.838C35.0665 228.026 35.9205 227.62 37.0405 227.62C38.1605 227.62 39.0145 228.026 39.6025 228.838C40.1905 229.65 40.4845 230.831 40.4845 232.38C40.4845 233.929 40.1905 235.11 39.6025 235.922C39.0145 236.734 38.1605 237.14 37.0405 237.14ZM37.0405 236.132C37.7778 236.132 38.3425 235.815 38.7345 235.18C39.1265 234.536 39.3225 233.603 39.3225 232.38C39.3225 231.157 39.1265 230.229 38.7345 229.594C38.3425 228.95 37.7778 228.628 37.0405 228.628C36.3032 228.628 35.7385 228.95 35.3465 229.594C34.9545 230.229 34.7585 231.157 34.7585 232.38C34.7585 233.603 34.9545 234.536 35.3465 235.18C35.7385 235.815 36.3032 236.132 37.0405 236.132ZM43.3757 235.32C43.6464 235.32 43.8657 235.404 44.0337 235.572C44.2017 235.74 44.2857 235.959 44.2857 236.23C44.2857 236.501 44.2017 236.72 44.0337 236.888C43.8657 237.056 43.6464 237.14 43.3757 237.14C43.1051 237.14 42.8857 237.056 42.7177 236.888C42.5497 236.72 42.4657 236.501 42.4657 236.23C42.4657 235.959 42.5497 235.74 42.7177 235.572C42.8857 235.404 43.1051 235.32 43.3757 235.32ZM47.6003 235.32C47.871 235.32 48.0903 235.404 48.2583 235.572C48.4263 235.74 48.5103 235.959 48.5103 236.23C48.5103 236.501 48.4263 236.72 48.2583 236.888C48.0903 237.056 47.871 237.14 47.6003 237.14C47.3297 237.14 47.1103 237.056 46.9423 236.888C46.7743 236.72 46.6903 236.501 46.6903 236.23C46.6903 235.959 46.7743 235.74 46.9423 235.572C47.1103 235.404 47.3297 235.32 47.6003 235.32ZM51.8249 235.32C52.0956 235.32 52.3149 235.404 52.4829 235.572C52.6509 235.74 52.7349 235.959 52.7349 236.23C52.7349 236.501 52.6509 236.72 52.4829 236.888C52.3149 237.056 52.0956 237.14 51.8249 237.14C51.5543 237.14 51.3349 237.056 51.1669 236.888C50.9989 236.72 50.9149 236.501 50.9149 236.23C50.9149 235.959 50.9989 235.74 51.1669 235.572C51.3349 235.404 51.5543 235.32 51.8249 235.32ZM58.1635 237.14C57.0435 237.14 56.1895 236.734 55.6015 235.922C55.0135 235.11 54.7195 233.929 54.7195 232.38C54.7195 230.831 55.0135 229.65 55.6015 228.838C56.1895 228.026 57.0435 227.62 58.1635 227.62C59.2835 227.62 60.1375 228.026 60.7255 228.838C61.3135 229.65 61.6075 230.831 61.6075 232.38C61.6075 233.929 61.3135 235.11 60.7255 235.922C60.1375 236.734 59.2835 237.14 58.1635 237.14ZM58.1635 236.132C58.9009 236.132 59.4655 235.815 59.8575 235.18C60.2495 234.536 60.4455 233.603 60.4455 232.38C60.4455 231.157 60.2495 230.229 59.8575 229.594C59.4655 228.95 58.9009 228.628 58.1635 228.628C57.4262 228.628 56.8615 228.95 56.4695 229.594C56.0775 230.229 55.8815 231.157 55.8815 232.38C55.8815 233.603 56.0775 234.536 56.4695 235.18C56.8615 235.815 57.4262 236.132 58.1635 236.132ZM66.6128 237.14C65.4928 237.14 64.6388 236.734 64.0508 235.922C63.4628 235.11 63.1688 233.929 63.1688 232.38C63.1688 230.831 63.4628 229.65 64.0508 228.838C64.6388 228.026 65.4928 227.62 66.6128 227.62C67.7328 227.62 68.5868 228.026 69.1748 228.838C69.7628 229.65 70.0568 230.831 70.0568 232.38C70.0568 233.929 69.7628 235.11 69.1748 235.922C68.5868 236.734 67.7328 237.14 66.6128 237.14ZM66.6128 236.132C67.3501 236.132 67.9148 235.815 68.3068 235.18C68.6988 234.536 68.8948 233.603 68.8948 232.38C68.8948 231.157 68.6988 230.229 68.3068 229.594C67.9148 228.95 67.3501 228.628 66.6128 228.628C65.8754 228.628 65.3108 228.95 64.9188 229.594C64.5268 230.229 64.3308 231.157 64.3308 232.38C64.3308 233.603 64.5268 234.536 64.9188 235.18C65.3108 235.815 65.8754 236.132 66.6128 236.132ZM75.062 237.14C73.942 237.14 73.088 236.734 72.5 235.922C71.912 235.11 71.618 233.929 71.618 232.38C71.618 230.831 71.912 229.65 72.5 228.838C73.088 228.026 73.942 227.62 75.062 227.62C76.182 227.62 77.036 228.026 77.624 228.838C78.212 229.65 78.506 230.831 78.506 232.38C78.506 233.929 78.212 235.11 77.624 235.922C77.036 236.734 76.182 237.14 75.062 237.14ZM75.062 236.132C75.7993 236.132 76.364 235.815 76.756 235.18C77.148 234.536 77.344 233.603 77.344 232.38C77.344 231.157 77.148 230.229 76.756 229.594C76.364 228.95 75.7993 228.628 75.062 228.628C74.3247 228.628 73.76 228.95 73.368 229.594C72.976 230.229 72.78 231.157 72.78 232.38C72.78 233.603 72.976 234.536 73.368 235.18C73.76 235.815 74.3247 236.132 75.062 236.132ZM87.2072 235.992V237H80.7952V235.992H83.5812V230.196C83.5812 229.991 83.5905 229.617 83.6092 229.076C83.2545 229.393 82.8345 229.673 82.3492 229.916C81.8732 230.159 81.4019 230.336 80.9352 230.448L80.6412 229.426C80.8652 229.398 81.1919 229.295 81.6212 229.118C82.0599 228.931 82.4799 228.717 82.8812 228.474C83.2825 228.222 83.5625 227.984 83.7212 227.76H84.7012V235.992H87.2072Z" fill="#4C4C4C"/>
<path d="M5.652 212.924H2.316L1.56 215H0.24L3.228 207.08H4.764L7.752 215H6.396L5.652 212.924ZM5.268 211.88L4.356 209.336L3.996 208.196H3.96L3.624 209.312L2.688 211.88H5.268ZM16.4472 211.964C16.4472 213.004 16.1712 213.792 15.6192 214.328C15.0672 214.856 14.2632 215.12 13.2072 215.12C12.1512 215.12 11.3472 214.856 10.7952 214.328C10.2432 213.792 9.96722 213.004 9.96722 211.964V207.08H11.2632V211.808C11.2632 212.56 11.4192 213.116 11.7312 213.476C12.0512 213.828 12.5432 214.004 13.2072 214.004C13.8712 214.004 14.3592 213.828 14.6712 213.476C14.9912 213.116 15.1512 212.56 15.1512 211.808V207.08H16.4472V211.964ZM25.7805 208.184H23.0685V215H21.7845V208.184H19.0725V207.08H25.7805V208.184ZM35.0102 207.08V215H33.7142V211.544H29.8022V215H28.5182V207.08H29.8022V210.44H33.7142V207.08H35.0102ZM41.8421 206.96C42.6021 206.96 43.2621 207.124 43.8221 207.452C44.3901 207.78 44.8261 208.252 45.1301 208.868C45.4341 209.484 45.5861 210.208 45.5861 211.04C45.5861 211.872 45.4341 212.596 45.1301 213.212C44.8261 213.828 44.3901 214.3 43.8221 214.628C43.2621 214.956 42.6021 215.12 41.8421 215.12C41.0821 215.12 40.4221 214.956 39.8621 214.628C39.3021 214.3 38.8701 213.828 38.5661 213.212C38.2621 212.596 38.1101 211.872 38.1101 211.04C38.1101 210.208 38.2621 209.484 38.5661 208.868C38.8701 208.252 39.3021 207.78 39.8621 207.452C40.4221 207.124 41.0821 206.96 41.8421 206.96ZM41.8421 208.076C41.0981 208.076 40.5141 208.336 40.0901 208.856C39.6661 209.376 39.4541 210.104 39.4541 211.04C39.4541 211.976 39.6661 212.704 40.0901 213.224C40.5141 213.744 41.0981 214.004 41.8421 214.004C42.5941 214.004 43.1821 213.744 43.6061 213.224C44.0301 212.704 44.2421 211.976 44.2421 211.04C44.2421 210.104 44.0301 209.376 43.6061 208.856C43.1821 208.336 42.5941 208.076 41.8421 208.076ZM51.6715 211.832H49.9675V215H48.6955V207.08H51.9235C52.7795 207.08 53.4555 207.292 53.9515 207.716C54.4475 208.132 54.6955 208.712 54.6955 209.456C54.6955 210.024 54.5475 210.5 54.2515 210.884C53.9635 211.26 53.5515 211.528 53.0155 211.688L55.1635 215H53.6875L51.6715 211.832ZM49.9675 210.764H51.8155C52.3355 210.764 52.7235 210.66 52.9795 210.452C53.2355 210.236 53.3635 209.908 53.3635 209.468C53.3635 209.028 53.2355 208.704 52.9795 208.496C52.7235 208.28 52.3355 208.172 51.8155 208.172H49.9675V210.764ZM59.242 215H57.958V207.08H59.242V215ZM68.6108 213.908V215H62.2148V213.956L67.0028 208.172H62.3228V207.08H68.4668V208.124L63.6788 213.908H68.6108ZM77.4652 213.896V215H71.5612V207.08H77.2972V208.184H72.8452V210.464H76.3252V211.544H72.8452V213.896H77.4652ZM83.3661 211.832H81.6621V215H80.3901V207.08H83.6181C84.4741 207.08 85.1501 207.292 85.6461 207.716C86.1421 208.132 86.3901 208.712 86.3901 209.456C86.3901 210.024 86.2421 210.5 85.9461 210.884C85.6581 211.26 85.2461 211.528 84.7101 211.688L86.8581 215H85.3821L83.3661 211.832ZM81.6621 210.764H83.5101C84.0301 210.764 84.4181 210.66 84.6741 210.452C84.9301 210.236 85.0581 209.908 85.0581 209.468C85.0581 209.028 84.9301 208.704 84.6741 208.496C84.4181 208.28 84.0301 208.172 83.5101 208.172H81.6621V210.764Z" fill="#4C4C4C"/>
<circle opacity="0.5" cx="187.5" cy="28.5" r="22.5" fill="#E6E6E6"/>
<circle cx="190.5" cy="23.5" r="22.5" fill="#D7F6EE"/>
<path d="M190.5 2.65352C201.9 2.65352 211.2 11.9535 211.2 23.3535C211.2 34.7535 201.9 44.0535 190.5 44.0535C179.1 44.0535 169.8 34.7535 169.8 23.3535C169.8 11.9535 179.1 2.65352 190.5 2.65352ZM190.5 0.853516C178.08 0.853516 168 10.9335 168 23.3535C168 35.7735 178.08 45.8535 190.5 45.8535C202.92 45.8535 213 35.7735 213 23.3535C213 10.9335 202.92 0.853516 190.5 0.853516ZM199.95 18.3435H198.54L194.22 23.3535L198.51 28.3635H199.92V32.3835H190.83V28.4235H192.24L189.42 25.1535H188.25V28.4235H189.84V32.4135H181.05V28.3635H182.97V23.3535V18.3435H181.05V14.2935H183.21V15.7935H184.38V14.2935H186.51V15.7935H187.68V14.2935H189.84V18.2835H188.25V21.5535H189.42L192.24 18.2835H190.83V14.2935H199.95V18.3435Z" fill="#48DBB4"/>
<circle cx="186.5" cy="173.5" r="22.5" fill="#E6E6E6"/>
<path d="M149.228 237.14C148.108 237.14 147.254 236.734 146.666 235.922C146.078 235.11 145.784 233.929 145.784 232.38C145.784 230.831 146.078 229.65 146.666 228.838C147.254 228.026 148.108 227.62 149.228 227.62C150.348 227.62 151.202 228.026 151.79 228.838C152.378 229.65 152.672 230.831 152.672 232.38C152.672 233.929 152.378 235.11 151.79 235.922C151.202 236.734 150.348 237.14 149.228 237.14ZM149.228 236.132C149.965 236.132 150.53 235.815 150.922 235.18C151.314 234.536 151.51 233.603 151.51 232.38C151.51 231.157 151.314 230.229 150.922 229.594C150.53 228.95 149.965 228.628 149.228 228.628C148.491 228.628 147.926 228.95 147.534 229.594C147.142 230.229 146.946 231.157 146.946 232.38C146.946 233.603 147.142 234.536 147.534 235.18C147.926 235.815 148.491 236.132 149.228 236.132ZM159.077 237L157.145 234.298L155.157 237H153.855L156.543 233.472L154.023 230H155.423L157.271 232.59L159.091 230H160.407L157.873 233.43L160.449 237H159.077ZM165.142 237.14C164.022 237.14 163.168 236.734 162.58 235.922C161.992 235.11 161.698 233.929 161.698 232.38C161.698 230.831 161.992 229.65 162.58 228.838C163.168 228.026 164.022 227.62 165.142 227.62C166.262 227.62 167.116 228.026 167.704 228.838C168.292 229.65 168.586 230.831 168.586 232.38C168.586 233.929 168.292 235.11 167.704 235.922C167.116 236.734 166.262 237.14 165.142 237.14ZM165.142 236.132C165.879 236.132 166.444 235.815 166.836 235.18C167.228 234.536 167.424 233.603 167.424 232.38C167.424 231.157 167.228 230.229 166.836 229.594C166.444 228.95 165.879 228.628 165.142 228.628C164.405 228.628 163.84 228.95 163.448 229.594C163.056 230.229 162.86 231.157 162.86 232.38C162.86 233.603 163.056 234.536 163.448 235.18C163.84 235.815 164.405 236.132 165.142 236.132ZM173.591 237.14C172.471 237.14 171.617 236.734 171.029 235.922C170.441 235.11 170.147 233.929 170.147 232.38C170.147 230.831 170.441 229.65 171.029 228.838C171.617 228.026 172.471 227.62 173.591 227.62C174.711 227.62 175.565 228.026 176.153 228.838C176.741 229.65 177.035 230.831 177.035 232.38C177.035 233.929 176.741 235.11 176.153 235.922C175.565 236.734 174.711 237.14 173.591 237.14ZM173.591 236.132C174.329 236.132 174.893 235.815 175.285 235.18C175.677 234.536 175.873 233.603 175.873 232.38C175.873 231.157 175.677 230.229 175.285 229.594C174.893 228.95 174.329 228.628 173.591 228.628C172.854 228.628 172.289 228.95 171.897 229.594C171.505 230.229 171.309 231.157 171.309 232.38C171.309 233.603 171.505 234.536 171.897 235.18C172.289 235.815 172.854 236.132 173.591 236.132ZM182.041 237.14C180.921 237.14 180.067 236.734 179.479 235.922C178.891 235.11 178.597 233.929 178.597 232.38C178.597 230.831 178.891 229.65 179.479 228.838C180.067 228.026 180.921 227.62 182.041 227.62C183.161 227.62 184.015 228.026 184.603 228.838C185.191 229.65 185.485 230.831 185.485 232.38C185.485 233.929 185.191 235.11 184.603 235.922C184.015 236.734 183.161 237.14 182.041 237.14ZM182.041 236.132C182.778 236.132 183.343 235.815 183.735 235.18C184.127 234.536 184.323 233.603 184.323 232.38C184.323 231.157 184.127 230.229 183.735 229.594C183.343 228.95 182.778 228.628 182.041 228.628C181.303 228.628 180.739 228.95 180.347 229.594C179.955 230.229 179.759 231.157 179.759 232.38C179.759 233.603 179.955 234.536 180.347 235.18C180.739 235.815 181.303 236.132 182.041 236.132ZM188.376 235.32C188.646 235.32 188.866 235.404 189.034 235.572C189.202 235.74 189.286 235.959 189.286 236.23C189.286 236.501 189.202 236.72 189.034 236.888C188.866 237.056 188.646 237.14 188.376 237.14C188.105 237.14 187.886 237.056 187.718 236.888C187.55 236.72 187.466 236.501 187.466 236.23C187.466 235.959 187.55 235.74 187.718 235.572C187.886 235.404 188.105 235.32 188.376 235.32ZM192.6 235.32C192.871 235.32 193.09 235.404 193.258 235.572C193.426 235.74 193.51 235.959 193.51 236.23C193.51 236.501 193.426 236.72 193.258 236.888C193.09 237.056 192.871 237.14 192.6 237.14C192.33 237.14 192.11 237.056 191.942 236.888C191.774 236.72 191.69 236.501 191.69 236.23C191.69 235.959 191.774 235.74 191.942 235.572C192.11 235.404 192.33 235.32 192.6 235.32ZM196.825 235.32C197.096 235.32 197.315 235.404 197.483 235.572C197.651 235.74 197.735 235.959 197.735 236.23C197.735 236.501 197.651 236.72 197.483 236.888C197.315 237.056 197.096 237.14 196.825 237.14C196.554 237.14 196.335 237.056 196.167 236.888C195.999 236.72 195.915 236.501 195.915 236.23C195.915 235.959 195.999 235.74 196.167 235.572C196.335 235.404 196.554 235.32 196.825 235.32ZM203.164 237.14C202.044 237.14 201.19 236.734 200.602 235.922C200.014 235.11 199.72 233.929 199.72 232.38C199.72 230.831 200.014 229.65 200.602 228.838C201.19 228.026 202.044 227.62 203.164 227.62C204.284 227.62 205.138 228.026 205.726 228.838C206.314 229.65 206.608 230.831 206.608 232.38C206.608 233.929 206.314 235.11 205.726 235.922C205.138 236.734 204.284 237.14 203.164 237.14ZM203.164 236.132C203.901 236.132 204.466 235.815 204.858 235.18C205.25 234.536 205.446 233.603 205.446 232.38C205.446 231.157 205.25 230.229 204.858 229.594C204.466 228.95 203.901 228.628 203.164 228.628C202.426 228.628 201.862 228.95 201.47 229.594C201.078 230.229 200.882 231.157 200.882 232.38C200.882 233.603 201.078 234.536 201.47 235.18C201.862 235.815 202.426 236.132 203.164 236.132ZM211.613 237.14C210.493 237.14 209.639 236.734 209.051 235.922C208.463 235.11 208.169 233.929 208.169 232.38C208.169 230.831 208.463 229.65 209.051 228.838C209.639 228.026 210.493 227.62 211.613 227.62C212.733 227.62 213.587 228.026 214.175 228.838C214.763 229.65 215.057 230.831 215.057 232.38C215.057 233.929 214.763 235.11 214.175 235.922C213.587 236.734 212.733 237.14 211.613 237.14ZM211.613 236.132C212.35 236.132 212.915 235.815 213.307 235.18C213.699 234.536 213.895 233.603 213.895 232.38C213.895 231.157 213.699 230.229 213.307 229.594C212.915 228.95 212.35 228.628 211.613 228.628C210.875 228.628 210.311 228.95 209.919 229.594C209.527 230.229 209.331 231.157 209.331 232.38C209.331 233.603 209.527 234.536 209.919 235.18C210.311 235.815 210.875 236.132 211.613 236.132ZM220.062 237.14C218.942 237.14 218.088 236.734 217.5 235.922C216.912 235.11 216.618 233.929 216.618 232.38C216.618 230.831 216.912 229.65 217.5 228.838C218.088 228.026 218.942 227.62 220.062 227.62C221.182 227.62 222.036 228.026 222.624 228.838C223.212 229.65 223.506 230.831 223.506 232.38C223.506 233.929 223.212 235.11 222.624 235.922C222.036 236.734 221.182 237.14 220.062 237.14ZM220.062 236.132C220.799 236.132 221.364 235.815 221.756 235.18C222.148 234.536 222.344 233.603 222.344 232.38C222.344 231.157 222.148 230.229 221.756 229.594C221.364 228.95 220.799 228.628 220.062 228.628C219.325 228.628 218.76 228.95 218.368 229.594C217.976 230.229 217.78 231.157 217.78 232.38C217.78 233.603 217.976 234.536 218.368 235.18C218.76 235.815 219.325 236.132 220.062 236.132ZM225.445 236.09C226.724 235.147 227.704 234.373 228.385 233.766C229.067 233.15 229.552 232.595 229.841 232.1C230.14 231.596 230.289 231.069 230.289 230.518C230.289 229.967 230.112 229.524 229.757 229.188C229.403 228.843 228.927 228.67 228.329 228.67C227.704 228.67 227.195 228.875 226.803 229.286C226.421 229.697 226.197 230.252 226.131 230.952L225.151 230.364C225.273 229.533 225.609 228.871 226.159 228.376C226.719 227.872 227.457 227.62 228.371 227.62C228.987 227.62 229.529 227.741 229.995 227.984C230.471 228.227 230.835 228.567 231.087 229.006C231.339 229.445 231.465 229.949 231.465 230.518C231.465 231.115 231.321 231.689 231.031 232.24C230.751 232.791 230.289 233.369 229.645 233.976C229.001 234.583 228.133 235.25 227.041 235.978V235.992C227.657 235.964 228.119 235.95 228.427 235.95H231.661V237H225.445V236.09Z" fill="#4C4C4C"/>
<path d="M157.464 206.96C158.224 206.96 158.884 207.124 159.444 207.452C160.012 207.78 160.448 208.252 160.752 208.868C161.056 209.484 161.208 210.208 161.208 211.04C161.208 211.872 161.056 212.596 160.752 213.212C160.448 213.828 160.012 214.3 159.444 214.628C158.884 214.956 158.224 215.12 157.464 215.12C156.704 215.12 156.044 214.956 155.484 214.628C154.924 214.3 154.492 213.828 154.188 213.212C153.884 212.596 153.732 211.872 153.732 211.04C153.732 210.208 153.884 209.484 154.188 208.868C154.492 208.252 154.924 207.78 155.484 207.452C156.044 207.124 156.704 206.96 157.464 206.96ZM157.464 208.076C156.72 208.076 156.136 208.336 155.712 208.856C155.288 209.376 155.076 210.104 155.076 211.04C155.076 211.976 155.288 212.704 155.712 213.224C156.136 213.744 156.72 214.004 157.464 214.004C158.216 214.004 158.804 213.744 159.228 213.224C159.652 212.704 159.864 211.976 159.864 211.04C159.864 210.104 159.652 209.376 159.228 208.856C158.804 208.336 158.216 208.076 157.464 208.076ZM167.365 207.08C168.221 207.08 168.897 207.3 169.393 207.74C169.897 208.18 170.149 208.784 170.149 209.552C170.149 210.32 169.897 210.924 169.393 211.364C168.897 211.796 168.221 212.012 167.365 212.012H165.601V215H164.317V207.08H167.365ZM167.161 210.92C167.721 210.92 168.137 210.808 168.409 210.584C168.681 210.352 168.817 210.008 168.817 209.552C168.817 208.632 168.265 208.172 167.161 208.172H165.601V210.92H167.161ZM178.945 213.896V215H173.041V207.08H178.777V208.184H174.325V210.464H177.805V211.544H174.325V213.896H178.945ZM184.846 211.832H183.142V215H181.87V207.08H185.098C185.954 207.08 186.63 207.292 187.126 207.716C187.622 208.132 187.87 208.712 187.87 209.456C187.87 210.024 187.722 210.5 187.426 210.884C187.138 211.26 186.726 211.528 186.19 211.688L188.338 215H186.862L184.846 211.832ZM183.142 210.764H184.99C185.51 210.764 185.898 210.66 186.154 210.452C186.41 210.236 186.538 209.908 186.538 209.468C186.538 209.028 186.41 208.704 186.154 208.496C185.898 208.28 185.51 208.172 184.99 208.172H183.142V210.764ZM195.608 212.924H192.272L191.516 215H190.196L193.184 207.08H194.72L197.708 215H196.352L195.608 212.924ZM195.224 211.88L194.312 209.336L193.952 208.196H193.916L193.58 209.312L192.644 211.88H195.224ZM205.127 208.184H202.415V215H201.131V208.184H198.419V207.08H205.127V208.184ZM210.871 206.96C211.631 206.96 212.291 207.124 212.851 207.452C213.419 207.78 213.855 208.252 214.159 208.868C214.463 209.484 214.615 210.208 214.615 211.04C214.615 211.872 214.463 212.596 214.159 213.212C213.855 213.828 213.419 214.3 212.851 214.628C212.291 214.956 211.631 215.12 210.871 215.12C210.111 215.12 209.451 214.956 208.891 214.628C208.331 214.3 207.899 213.828 207.595 213.212C207.291 212.596 207.139 211.872 207.139 211.04C207.139 210.208 207.291 209.484 207.595 208.868C207.899 208.252 208.331 207.78 208.891 207.452C209.451 207.124 210.111 206.96 210.871 206.96ZM210.871 208.076C210.127 208.076 209.543 208.336 209.119 208.856C208.695 209.376 208.483 210.104 208.483 211.04C208.483 211.976 208.695 212.704 209.119 213.224C209.543 213.744 210.127 214.004 210.871 214.004C211.623 214.004 212.211 213.744 212.635 213.224C213.059 212.704 213.271 211.976 213.271 211.04C213.271 210.104 213.059 209.376 212.635 208.856C212.211 208.336 211.623 208.076 210.871 208.076ZM220.7 211.832H218.996V215H217.724V207.08H220.952C221.808 207.08 222.484 207.292 222.98 207.716C223.476 208.132 223.724 208.712 223.724 209.456C223.724 210.024 223.576 210.5 223.28 210.884C222.992 211.26 222.58 211.528 222.044 211.688L224.192 215H222.716L220.7 211.832ZM218.996 210.764H220.844C221.364 210.764 221.752 210.66 222.008 210.452C222.264 210.236 222.392 209.908 222.392 209.468C222.392 209.028 222.264 208.704 222.008 208.496C221.752 208.28 221.364 208.172 220.844 208.172H218.996V210.764Z" fill="#4C4C4C"/>
<circle cx="189.5" cy="168.5" r="22.25" fill="white" stroke="#0A0806" stroke-width="0.5"/>
<path fill-rule="evenodd" clip-rule="evenodd" d="M189.751 170.661C190.822 170.661 191.69 169.793 191.69 168.723C191.69 167.652 190.822 166.784 189.751 166.784C188.68 166.784 187.812 167.652 187.812 168.723C187.812 169.793 188.68 170.661 189.751 170.661Z" stroke="#0A0806" stroke-width="1.5" stroke-linecap="round" stroke-linejoin="round"/>
<path fill-rule="evenodd" clip-rule="evenodd" d="M191.397 161.228L191.968 163.105C192.163 163.752 192.826 164.137 193.484 163.986L195.388 163.544C196.129 163.377 196.891 163.712 197.269 164.37C197.647 165.028 197.552 165.856 197.035 166.411L195.703 167.847C195.242 168.343 195.242 169.111 195.703 169.608L197.035 171.043C197.553 171.598 197.648 172.426 197.27 173.085C196.892 173.743 196.129 174.078 195.388 173.91L193.484 173.469C192.826 173.317 192.163 173.702 191.968 174.349L191.397 176.219C191.178 176.946 190.509 177.444 189.75 177.444C188.991 177.444 188.322 176.946 188.103 176.219L187.532 174.343C187.337 173.696 186.674 173.311 186.016 173.463L184.112 173.903C183.371 174.071 182.608 173.737 182.23 173.078C181.852 172.42 181.947 171.592 182.465 171.037L183.797 169.601C184.258 169.105 184.258 168.337 183.797 167.841L182.465 166.405C181.948 165.85 181.853 165.022 182.231 164.364C182.609 163.705 183.371 163.37 184.112 163.537L186.016 163.979C186.674 164.13 187.337 163.746 187.532 163.099L188.103 161.221C188.323 160.495 188.993 159.999 189.752 160C190.511 160.001 191.18 160.5 191.397 161.228Z" stroke="#0A0806" stroke-width="1.5" stroke-linecap="round" stroke-linejoin="round"/>
<circle cx="331.5" cy="173.5" r="22.5" fill="#E6E6E6"/>
<path d="M295.228 237.14C294.108 237.14 293.254 236.734 292.666 235.922C292.078 235.11 291.784 233.929 291.784 232.38C291.784 230.831 292.078 229.65 292.666 228.838C293.254 228.026 294.108 227.62 295.228 227.62C296.348 227.62 297.202 228.026 297.79 228.838C298.378 229.65 298.672 230.831 298.672 232.38C298.672 233.929 298.378 235.11 297.79 235.922C297.202 236.734 296.348 237.14 295.228 237.14ZM295.228 236.132C295.965 236.132 296.53 235.815 296.922 235.18C297.314 234.536 297.51 233.603 297.51 232.38C297.51 231.157 297.314 230.229 296.922 229.594C296.53 228.95 295.965 228.628 295.228 228.628C294.491 228.628 293.926 228.95 293.534 229.594C293.142 230.229 292.946 231.157 292.946 232.38C292.946 233.603 293.142 234.536 293.534 235.18C293.926 235.815 294.491 236.132 295.228 236.132ZM305.077 237L303.145 234.298L301.157 237H299.855L302.543 233.472L300.023 230H301.423L303.271 232.59L305.091 230H306.407L303.873 233.43L306.449 237H305.077ZM311.142 237.14C310.022 237.14 309.168 236.734 308.58 235.922C307.992 235.11 307.698 233.929 307.698 232.38C307.698 230.831 307.992 229.65 308.58 228.838C309.168 228.026 310.022 227.62 311.142 227.62C312.262 227.62 313.116 228.026 313.704 228.838C314.292 229.65 314.586 230.831 314.586 232.38C314.586 233.929 314.292 235.11 313.704 235.922C313.116 236.734 312.262 237.14 311.142 237.14ZM311.142 236.132C311.879 236.132 312.444 235.815 312.836 235.18C313.228 234.536 313.424 233.603 313.424 232.38C313.424 231.157 313.228 230.229 312.836 229.594C312.444 228.95 311.879 228.628 311.142 228.628C310.405 228.628 309.84 228.95 309.448 229.594C309.056 230.229 308.86 231.157 308.86 232.38C308.86 233.603 309.056 234.536 309.448 235.18C309.84 235.815 310.405 236.132 311.142 236.132ZM319.591 237.14C318.471 237.14 317.617 236.734 317.029 235.922C316.441 235.11 316.147 233.929 316.147 232.38C316.147 230.831 316.441 229.65 317.029 228.838C317.617 228.026 318.471 227.62 319.591 227.62C320.711 227.62 321.565 228.026 322.153 228.838C322.741 229.65 323.035 230.831 323.035 232.38C323.035 233.929 322.741 235.11 322.153 235.922C321.565 236.734 320.711 237.14 319.591 237.14ZM319.591 236.132C320.329 236.132 320.893 235.815 321.285 235.18C321.677 234.536 321.873 233.603 321.873 232.38C321.873 231.157 321.677 230.229 321.285 229.594C320.893 228.95 320.329 228.628 319.591 228.628C318.854 228.628 318.289 228.95 317.897 229.594C317.505 230.229 317.309 231.157 317.309 232.38C317.309 233.603 317.505 234.536 317.897 235.18C318.289 235.815 318.854 236.132 319.591 236.132ZM328.041 237.14C326.921 237.14 326.067 236.734 325.479 235.922C324.891 235.11 324.597 233.929 324.597 232.38C324.597 230.831 324.891 229.65 325.479 228.838C326.067 228.026 326.921 227.62 328.041 227.62C329.161 227.62 330.015 228.026 330.603 228.838C331.191 229.65 331.485 230.831 331.485 232.38C331.485 233.929 331.191 235.11 330.603 235.922C330.015 236.734 329.161 237.14 328.041 237.14ZM328.041 236.132C328.778 236.132 329.343 235.815 329.735 235.18C330.127 234.536 330.323 233.603 330.323 232.38C330.323 231.157 330.127 230.229 329.735 229.594C329.343 228.95 328.778 228.628 328.041 228.628C327.303 228.628 326.739 228.95 326.347 229.594C325.955 230.229 325.759 231.157 325.759 232.38C325.759 233.603 325.955 234.536 326.347 235.18C326.739 235.815 327.303 236.132 328.041 236.132ZM334.376 235.32C334.646 235.32 334.866 235.404 335.034 235.572C335.202 235.74 335.286 235.959 335.286 236.23C335.286 236.501 335.202 236.72 335.034 236.888C334.866 237.056 334.646 237.14 334.376 237.14C334.105 237.14 333.886 237.056 333.718 236.888C333.55 236.72 333.466 236.501 333.466 236.23C333.466 235.959 333.55 235.74 333.718 235.572C333.886 235.404 334.105 235.32 334.376 235.32ZM338.6 235.32C338.871 235.32 339.09 235.404 339.258 235.572C339.426 235.74 339.51 235.959 339.51 236.23C339.51 236.501 339.426 236.72 339.258 236.888C339.09 237.056 338.871 237.14 338.6 237.14C338.33 237.14 338.11 237.056 337.942 236.888C337.774 236.72 337.69 236.501 337.69 236.23C337.69 235.959 337.774 235.74 337.942 235.572C338.11 235.404 338.33 235.32 338.6 235.32ZM342.825 235.32C343.096 235.32 343.315 235.404 343.483 235.572C343.651 235.74 343.735 235.959 343.735 236.23C343.735 236.501 343.651 236.72 343.483 236.888C343.315 237.056 343.096 237.14 342.825 237.14C342.554 237.14 342.335 237.056 342.167 236.888C341.999 236.72 341.915 236.501 341.915 236.23C341.915 235.959 341.999 235.74 342.167 235.572C342.335 235.404 342.554 235.32 342.825 235.32ZM349.164 237.14C348.044 237.14 347.19 236.734 346.602 235.922C346.014 235.11 345.72 233.929 345.72 232.38C345.72 230.831 346.014 229.65 346.602 228.838C347.19 228.026 348.044 227.62 349.164 227.62C350.284 227.62 351.138 228.026 351.726 228.838C352.314 229.65 352.608 230.831 352.608 232.38C352.608 233.929 352.314 235.11 351.726 235.922C351.138 236.734 350.284 237.14 349.164 237.14ZM349.164 236.132C349.901 236.132 350.466 235.815 350.858 235.18C351.25 234.536 351.446 233.603 351.446 232.38C351.446 231.157 351.25 230.229 350.858 229.594C350.466 228.95 349.901 228.628 349.164 228.628C348.426 228.628 347.862 228.95 347.47 229.594C347.078 230.229 346.882 231.157 346.882 232.38C346.882 233.603 347.078 234.536 347.47 235.18C347.862 235.815 348.426 236.132 349.164 236.132ZM357.613 237.14C356.493 237.14 355.639 236.734 355.051 235.922C354.463 235.11 354.169 233.929 354.169 232.38C354.169 230.831 354.463 229.65 355.051 228.838C355.639 228.026 356.493 227.62 357.613 227.62C358.733 227.62 359.587 228.026 360.175 228.838C360.763 229.65 361.057 230.831 361.057 232.38C361.057 233.929 360.763 235.11 360.175 235.922C359.587 236.734 358.733 237.14 357.613 237.14ZM357.613 236.132C358.35 236.132 358.915 235.815 359.307 235.18C359.699 234.536 359.895 233.603 359.895 232.38C359.895 231.157 359.699 230.229 359.307 229.594C358.915 228.95 358.35 228.628 357.613 228.628C356.875 228.628 356.311 228.95 355.919 229.594C355.527 230.229 355.331 231.157 355.331 232.38C355.331 233.603 355.527 234.536 355.919 235.18C356.311 235.815 356.875 236.132 357.613 236.132ZM366.062 237.14C364.942 237.14 364.088 236.734 363.5 235.922C362.912 235.11 362.618 233.929 362.618 232.38C362.618 230.831 362.912 229.65 363.5 228.838C364.088 228.026 364.942 227.62 366.062 227.62C367.182 227.62 368.036 228.026 368.624 228.838C369.212 229.65 369.506 230.831 369.506 232.38C369.506 233.929 369.212 235.11 368.624 235.922C368.036 236.734 367.182 237.14 366.062 237.14ZM366.062 236.132C366.799 236.132 367.364 235.815 367.756 235.18C368.148 234.536 368.344 233.603 368.344 232.38C368.344 231.157 368.148 230.229 367.756 229.594C367.364 228.95 366.799 228.628 366.062 228.628C365.325 228.628 364.76 228.95 364.368 229.594C363.976 230.229 363.78 231.157 363.78 232.38C363.78 233.603 363.976 234.536 364.368 235.18C364.76 235.815 365.325 236.132 366.062 236.132ZM374.581 227.62C375.188 227.62 375.706 227.732 376.135 227.956C376.574 228.171 376.905 228.46 377.129 228.824C377.353 229.188 377.465 229.589 377.465 230.028C377.465 230.457 377.386 230.845 377.227 231.19C377.069 231.535 376.854 231.811 376.583 232.016C376.322 232.212 376.037 232.31 375.729 232.31V232.338C376.317 232.338 376.789 232.553 377.143 232.982C377.498 233.402 377.675 233.915 377.675 234.522C377.675 235.017 377.54 235.465 377.269 235.866C377.008 236.267 376.63 236.58 376.135 236.804C375.641 237.028 375.071 237.14 374.427 237.14C372.887 237.14 371.823 236.403 371.235 234.928L372.327 234.354C372.486 234.933 372.729 235.367 373.055 235.656C373.382 235.945 373.867 236.09 374.511 236.09C375.137 236.09 375.627 235.936 375.981 235.628C376.336 235.311 376.513 234.905 376.513 234.41C376.513 233.841 376.341 233.444 375.995 233.22C375.659 232.987 375.123 232.87 374.385 232.87H374.021V231.82H374.385C375.664 231.82 376.303 231.297 376.303 230.252C376.303 229.729 376.154 229.337 375.855 229.076C375.566 228.805 375.146 228.67 374.595 228.67C374.054 228.67 373.62 228.796 373.293 229.048C372.976 229.291 372.757 229.636 372.635 230.084L371.585 229.594C371.809 228.987 372.187 228.507 372.719 228.152C373.261 227.797 373.881 227.62 374.581 227.62Z" fill="#4C4C4C"/>
<path d="M291.176 207.08H294.296C295.224 207.08 295.912 207.268 296.36 207.644C296.816 208.02 297.044 208.556 297.044 209.252C297.044 209.684 296.92 210.06 296.672 210.38C296.424 210.7 296.076 210.9 295.628 210.98V210.992C296.124 211.072 296.516 211.28 296.804 211.616C297.1 211.952 297.248 212.348 297.248 212.804C297.248 213.492 296.996 214.032 296.492 214.424C295.988 214.808 295.272 215 294.344 215H291.176V207.08ZM294.2 210.488C295.208 210.488 295.712 210.1 295.712 209.324C295.712 208.548 295.208 208.16 294.2 208.16H292.436V210.488H294.2ZM294.404 213.932C294.9 213.932 295.276 213.832 295.532 213.632C295.788 213.424 295.916 213.128 295.916 212.744C295.916 212.36 295.788 212.068 295.532 211.868C295.276 211.66 294.9 211.556 294.404 211.556H292.436V213.932H294.404ZM306.225 213.896V215H300.321V207.08H306.057V208.184H301.605V210.464H305.085V211.544H301.605V213.896H306.225ZM315.642 215H314.118L311.058 210.008L310.29 208.544H310.278L310.326 209.888V215H309.15V207.08H310.662L313.71 212.06L314.49 213.536H314.502L314.454 212.192V207.08H315.642V215ZM325.09 213.896V215H319.186V207.08H324.922V208.184H320.47V210.464H323.95V211.544H320.47V213.896H325.09ZM329.299 208.184V210.476H332.779V211.592H329.299V215H328.015V207.08H333.739V208.184H329.299ZM337.835 215H336.551V207.08H337.835V215ZM347.948 212.9C347.708 213.612 347.296 214.16 346.712 214.544C346.136 214.928 345.456 215.12 344.672 215.12C343.912 215.12 343.252 214.956 342.692 214.628C342.132 214.3 341.7 213.828 341.396 213.212C341.092 212.596 340.94 211.872 340.94 211.04C340.94 210.208 341.092 209.484 341.396 208.868C341.7 208.252 342.132 207.78 342.692 207.452C343.252 207.124 343.908 206.96 344.66 206.96C345.452 206.96 346.116 207.124 346.652 207.452C347.196 207.78 347.588 208.264 347.828 208.904L346.616 209.444C346.456 208.972 346.224 208.628 345.92 208.412C345.616 208.188 345.22 208.076 344.732 208.076C343.988 208.076 343.392 208.34 342.944 208.868C342.504 209.388 342.284 210.112 342.284 211.04C342.284 211.976 342.496 212.704 342.92 213.224C343.344 213.744 343.932 214.004 344.684 214.004C345.196 214.004 345.624 213.876 345.968 213.62C346.32 213.364 346.572 212.988 346.724 212.492L347.948 212.9ZM352.071 215H350.787V207.08H352.071V215ZM360.096 212.924H356.76L356.004 215H354.684L357.672 207.08H359.208L362.196 215H360.84L360.096 212.924ZM359.712 211.88L358.8 209.336L358.44 208.196H358.404L358.068 209.312L357.132 211.88H359.712ZM367.776 211.832H366.072V215H364.8V207.08H368.028C368.884 207.08 369.56 207.292 370.056 207.716C370.552 208.132 370.8 208.712 370.8 209.456C370.8 210.024 370.652 210.5 370.356 210.884C370.068 211.26 369.656 211.528 369.12 211.688L371.268 215H369.792L367.776 211.832ZM366.072 210.764H367.92C368.44 210.764 368.828 210.66 369.084 210.452C369.34 210.236 369.468 209.908 369.468 209.468C369.468 209.028 369.34 208.704 369.084 208.496C368.828 208.28 368.44 208.172 367.92 208.172H366.072V210.764ZM376.783 211.964V215H375.499V211.964L372.679 207.08H374.107L375.523 209.624L376.147 210.812L376.771 209.624L378.175 207.08H379.615L376.783 211.964Z" fill="#4C4C4C"/>
<circle cx="334.5" cy="168.5" r="22.25" fill="white" stroke="#0A0806" stroke-width="0.5"/>
<path fill-rule="evenodd" clip-rule="evenodd" d="M339.9 161.451C339.698 161.167 339.38 161 339.042 161H330.46C330.122 161 329.804 161.167 329.602 161.451L327.215 164.796C326.917 165.214 326.931 165.793 327.25 166.194L333.928 174.686C334.132 174.942 334.433 175.09 334.75 175.09C335.068 175.09 335.369 174.942 335.573 174.686L342.251 166.194C342.569 165.793 342.583 165.214 342.285 164.796L339.9 161.451Z" stroke="#0A0806" stroke-width="1.5" stroke-linecap="round" stroke-linejoin="round"/>
<path d="M334.752 161L332.812 165.751L334.752 175.091" stroke="#0A0806" stroke-width="1.5" stroke-linecap="round" stroke-linejoin="round"/>
<path d="M327 165.509H342.5" stroke="#0A0806" stroke-width="1.5" stroke-linecap="round" stroke-linejoin="round"/>
</svg>
