<svg width="20" height="20" viewBox="0 0 20 20" fill="none" xmlns="http://www.w3.org/2000/svg">
<path fill-rule="evenodd" clip-rule="evenodd" d="M13.3231 6.29092C13.1924 6.10778 12.9873 6 12.7694 6H7.23264C7.0148 6 6.80967 6.10778 6.67896 6.29092L5.13927 8.44905C4.94691 8.71874 4.95608 9.09199 5.16142 9.3509L9.46996 14.8299C9.60146 14.9949 9.79576 15.0902 10.0006 15.0902C10.2054 15.0902 10.3997 14.9949 10.5312 14.8299L14.8397 9.3509C15.0451 9.09199 15.0542 8.71874 14.8619 8.44905L13.3231 6.29092Z" stroke="#AC6E16" stroke-linecap="round" stroke-linejoin="round"/>
<path d="M10.0015 6L8.75 9.06507L10.0015 15.0912" stroke="#AC6E16" stroke-linecap="round" stroke-linejoin="round"/>
<path d="M5 8.90918H14.9999" stroke="#AC6E16" stroke-linecap="round" stroke-linejoin="round"/>
<circle cx="10" cy="10" r="9.75" stroke="#AC6E16" stroke-width="0.5"/>
</svg>
