<svg width="75" height="75" viewBox="0 0 75 75" fill="none" xmlns="http://www.w3.org/2000/svg">
<circle cx="37.5" cy="37.5" r="37.5" fill="#D7F6EE"/>
<path fill-rule="evenodd" clip-rule="evenodd" d="M48.9999 47.6922C48.9999 48.6268 48.2422 49.3845 47.3076 49.3845H28.6923C27.7577 49.3845 27 48.6268 27 47.6922V25.6923C27 24.7577 27.7577 24 28.6923 24H40.6839C41.1324 24.0001 41.5626 24.1782 41.8798 24.4953L48.5046 31.1201C48.8217 31.4373 48.9998 31.8674 48.9999 32.316V47.6922Z" stroke="#4C4C4C" stroke-width="1.7" stroke-linecap="round" stroke-linejoin="round"/>
<path d="M48.9996 32.4615H42.2304C41.2958 32.4615 40.5381 31.7038 40.5381 30.7692V24" stroke="#4C4C4C" stroke-width="1.7" stroke-linecap="round" stroke-linejoin="round"/>
<path d="M31.5 39H44.5" stroke="#4C4C4C" stroke-width="1.7" stroke-linecap="round" stroke-linejoin="round"/>
<path d="M31.5 35H38.5" stroke="#4C4C4C" stroke-width="1.7" stroke-linecap="round" stroke-linejoin="round"/>
<path d="M31.5 31H36.5" stroke="#4C4C4C" stroke-width="1.7" stroke-linecap="round" stroke-linejoin="round"/>
<path d="M31.5 43H44.5" stroke="#4C4C4C" stroke-width="1.7" stroke-linecap="round" stroke-linejoin="round"/>
</svg>
