<svg width="64" height="65" viewBox="0 0 64 65" fill="none" xmlns="http://www.w3.org/2000/svg">
<path class="color" fill-rule="evenodd" clip-rule="evenodd" d="M0.958563 24.2652C-3.31789 41.409 7.11622 58.7749 24.256 63.0493C41.4029 67.3248 58.7677 56.8907 63.0422 39.7458C67.3166 22.6 56.8835 5.23215 39.7377 0.957698C22.5959 -3.31676 5.23102 7.11835 0.958563 24.2652ZM24.9047 60.448C40.6149 64.3653 56.5246 54.8054 60.4409 39.0973C64.3573 23.3878 54.798 7.47519 39.0892 3.559L39.089 3.55896C23.3842 -0.357161 7.47442 9.20321 3.55994 24.9134L3.55977 24.914C-0.358311 40.6212 9.2016 56.5318 24.9047 60.448Z" fill="#48DBB4"/>
<path class="color" opacity="0.6" d="M31.9969 26.6162L19.9258 32.1039L31.9969 39.2397L44.0702 32.1039L31.9969 26.6162Z" fill="#48DBB4"/>
<path class="color" opacity="0.45" d="M19.9336 32.1045L32.0047 39.2403V26.6168V12.0747L19.9336 32.1045Z" fill="#48DBB4"/>
<path class="color" opacity="0.8" d="M32 12.0747V26.6168V39.2403L44.0711 32.1045L32 12.0747Z" fill="#48DBB4"/>
<path class="color" opacity="0.45" d="M19.9258 34.3945L31.9969 51.4054V41.5258L19.9258 34.3945Z" fill="#48DBB4"/>
<path class="color" opacity="0.8" d="M31.9961 41.5258V51.4054L44.0762 34.3945L31.9961 41.5258Z" fill="#48DBB4"/>
</svg>
