<svg class="eth-icon" width="16" height="17" viewBox="0 0 16 17" fill="none" xmlns="http://www.w3.org/2000/svg">
<path class="bg-color" d="M15.7605 9.93646C14.6919 14.2227 10.3507 16.8312 6.06401 15.7623C1.77905 14.6937 -0.829473 10.3523 0.239641 6.0663C1.30775 1.77959 5.64897 -0.829189 9.93442 0.239424C14.2209 1.30804 16.8292 5.65 15.7605 9.93646Z" fill="#F4F4F4"/>
<path class="color" opacity="0.6" d="M7.99922 6.65405L4.98145 8.02597L7.99922 9.80992L11.0176 8.02597L7.99922 6.65405Z" fill="black"/>
<path class="color" opacity="0.45" d="M4.9834 8.02613L8.00117 9.81007V6.65421V3.01868L4.9834 8.02613Z" fill="black"/>
<path class="color" opacity="0.8" d="M8 3.01868V6.65421V9.81007L11.0178 8.02613L8 3.01868Z" fill="black"/>
<path class="color" opacity="0.45" d="M4.98145 8.59863L7.99922 12.8514V10.3815L4.98145 8.59863Z" fill="black"/>
<path class="color" opacity="0.8" d="M7.99902 10.3815V12.8514L11.019 8.59863L7.99902 10.3815Z" fill="black"/>
</svg>
