<svg width="24" height="24" viewBox="0 0 24 24" fill="none" xmlns="http://www.w3.org/2000/svg">
<path fill-rule="evenodd" clip-rule="evenodd" d="M12 2.22701C10.6077 3.71138 9.57543 5.47627 8.96036 7.38462H15.0396C14.4246 5.47627 13.3923 3.71138 12 2.22701ZM9.67603 2.11334C8.46217 3.6901 7.56687 5.4811 7.03252 7.38462H2.95331C4.29339 4.76315 6.7394 2.80095 9.67603 2.11334ZM6.63372 9.23077H2.22837C1.97939 10.1111 1.84615 11.04 1.84615 12C1.84615 12.96 1.97939 13.8889 2.22837 14.7692H6.63371C6.49461 13.86 6.43569 12.9335 6.46116 12C6.43569 11.0665 6.49461 10.14 6.63372 9.23077ZM7.03252 16.6154H2.95331C4.29339 19.2368 6.7394 21.199 9.67602 21.8867C8.46217 20.3099 7.56687 18.5189 7.03252 16.6154ZM8.96036 16.6154H15.0396C14.4246 18.5237 13.3923 20.2886 12 21.773C10.6077 20.2886 9.57543 18.5237 8.96036 16.6154ZM15.4957 14.7692H8.50432C8.34786 13.8713 8.28042 12.953 8.30729 12.0268C8.30781 12.0089 8.30781 11.9911 8.30729 11.9732C8.28042 11.047 8.34786 10.1287 8.50433 9.23077H15.4957C15.6521 10.1287 15.7196 11.047 15.6927 11.9732C15.6922 11.9911 15.6922 12.0089 15.6927 12.0268C15.7196 12.953 15.6521 13.8713 15.4957 14.7692ZM16.9675 16.6154C16.4331 18.5189 15.5378 20.3099 14.324 21.8867C17.2606 21.1991 19.7066 19.2368 21.0467 16.6154H16.9675ZM21.7716 14.7692H17.3663C17.5054 13.86 17.5643 12.9335 17.5388 12C17.5643 11.0665 17.5054 10.14 17.3663 9.23077H21.7716C22.0206 10.1111 22.1538 11.04 22.1538 12C22.1538 12.96 22.0206 13.8889 21.7716 14.7692ZM14.324 2.11334C17.2606 2.80095 19.7066 4.76315 21.0467 7.38462H16.9675C16.4331 5.4811 15.5378 3.6901 14.324 2.11334ZM12.0069 24C18.6312 23.9962 24 18.6251 24 12C24 5.37258 18.6274 0 12 0C5.37258 0 0 5.37258 0 12C0 18.6261 5.37049 23.9979 11.9961 24H11.9965L12.0069 24Z" fill="white"/>
</svg>
