<svg class="glossary" width="10" height="11" viewBox="0 0 10 11" fill="none" xmlns="http://www.w3.org/2000/svg">
<path fill-rule="evenodd" clip-rule="evenodd" d="M5.66439 3.75329C5.59031 3.43492 5.28681 3.22231 4.95906 3.2592C4.63132 3.29609 4.38371 3.57073 4.38365 3.89744C4.38363 4.01573 4.2868 4.1116 4.16737 4.11158C4.04794 4.11156 3.95115 4.01565 3.95117 3.89736C3.95128 3.35282 4.36397 2.89506 4.91023 2.83358C5.4565 2.77209 5.96236 3.12646 6.08582 3.65709C6.20928 4.18773 5.91102 4.72564 5.39268 4.90715C5.30625 4.93742 5.24849 5.01837 5.24854 5.10917V5.18238C5.24854 5.30067 5.15173 5.39656 5.0323 5.39656C4.91288 5.39656 4.81606 5.30067 4.81606 5.18238L4.81606 5.10939C4.81606 5.10935 4.81606 5.10943 4.81606 5.10939C4.81597 4.83703 4.98926 4.59408 5.24852 4.50329C5.55951 4.39439 5.73846 4.07166 5.66439 3.75329Z" fill="#4C4C4C"/>
<path d="M4.81606 5.10939L4.81606 5.18238C4.81606 5.30067 4.91288 5.39656 5.0323 5.39656C5.15173 5.39656 5.24854 5.30067 5.24854 5.18238V5.10917C5.24849 5.01837 5.30625 4.93742 5.39268 4.90715C5.91102 4.72564 6.20928 4.18773 6.08582 3.65709C5.96236 3.12646 5.4565 2.77209 4.91023 2.83358C4.36397 2.89506 3.95128 3.35282 3.95117 3.89736C3.95115 4.01565 4.04794 4.11156 4.16737 4.11158C4.2868 4.1116 4.38363 4.01573 4.38365 3.89744C4.38371 3.57073 4.63132 3.29609 4.95906 3.2592C5.28681 3.22231 5.59031 3.43492 5.66439 3.75329C5.73846 4.07166 5.55951 4.39439 5.24852 4.50329C4.98926 4.59408 4.81597 4.83703 4.81606 5.10939ZM4.81606 5.10939C4.81606 5.10943 4.81606 5.10935 4.81606 5.10939Z" stroke="#4C4C4C" stroke-width="0.3" stroke-linecap="round" stroke-linejoin="round"/>
<path fill-rule="evenodd" clip-rule="evenodd" d="M4.70703 6.32126C4.70703 6.14383 4.85225 6 5.03138 6C5.21052 6 5.35573 6.14383 5.35573 6.32126C5.35573 6.49869 5.21052 6.64252 5.03138 6.64252C4.85225 6.64252 4.70703 6.49869 4.70703 6.32126Z" fill="#4C4C4C" stroke="#4C4C4C" stroke-width="0.3" stroke-linecap="round" stroke-linejoin="round"/>
<path fill-rule="evenodd" clip-rule="evenodd" d="M1 1.91909C1 1.41023 1.41611 1 1.92658 1H8.07342C8.58389 1 9 1.41023 9 1.91909V7.58263C9 8.09149 8.58389 8.50172 8.07342 8.50172H5.47528L3.28253 10.1306C3.17513 10.2104 3.03181 10.2231 2.91199 10.1638C2.79201 10.1044 2.7154 9.98237 2.7154 9.84804V8.50172H1.92658C1.41611 8.50172 1 8.09149 1 7.58263V1.91909ZM1.92658 1.70547C1.80545 1.70547 1.70955 1.80237 1.70955 1.91909V7.58263C1.70955 7.69934 1.80545 7.79625 1.92658 7.79625H3.07018C3.26484 7.79625 3.42495 7.95291 3.42495 8.14898V9.14418L5.14502 7.86641C5.20643 7.82079 5.28094 7.79625 5.35737 7.79625H8.07342C8.19455 7.79625 8.29045 7.69934 8.29045 7.58263V1.91909C8.29045 1.80237 8.19455 1.70547 8.07342 1.70547H1.92658Z" fill="#4C4C4C" stroke="#4C4C4C" stroke-width="0.3" stroke-linecap="round" stroke-linejoin="round"/>
</svg>
