<svg class="grant-context-icon" width="24" height="28" viewBox="0 0 24 28" fill="none" xmlns="http://www.w3.org/2000/svg">
<path fill-rule="evenodd" clip-rule="evenodd" d="M22.9999 24.6922C22.9999 25.6268 22.2422 26.3845 21.3076 26.3845H2.6923C1.75767 26.3845 1 25.6268 1 24.6922V2.6923C1 1.75767 1.75767 1 2.6923 1H14.6839C15.1324 1.0001 15.5626 1.17823 15.8798 1.49528L22.5046 8.12007C22.8217 8.43731 22.9998 8.86744 22.9999 9.31596V24.6922Z" stroke="#4C4C4C" stroke-width="1.7" stroke-linecap="round" stroke-linejoin="round"/>
<path d="M22.9999 9.4615H16.2308C15.2961 9.4615 14.5385 8.70383 14.5385 7.7692V1" stroke="#4C4C4C" stroke-width="1.7" stroke-linecap="round" stroke-linejoin="round"/>
<path d="M5.5 16H18.5" stroke="#4C4C4C" stroke-width="1.7" stroke-linecap="round" stroke-linejoin="round"/>
<path d="M5.5 21.1538H18.5" stroke="#4C4C4C" stroke-width="1.7" stroke-linecap="round" stroke-linejoin="round"/>
<path d="M11 6.27969V5H8.10281V6.26302H8.5548L7.66008 7.30566H7.2896V6.26302H7.79901V5H7.11176V5.47409H6.73943V5H6.05959V5.47409H5.68725V5H5V6.27969H5.60759V7.87235V9.46501H5V10.7447H7.79901V9.48168H7.2896V8.43904H7.66008L8.5548 9.48168H8.10281V10.7447H11V9.46501H10.5499L9.18462 7.87235L10.5499 6.27969H11Z" fill="#4C4C4C"/>
</svg>
