<svg width="10" height="10" viewBox="0 0 10 10" fill="none" xmlns="http://www.w3.org/2000/svg">
<path fill-rule="evenodd" clip-rule="evenodd" d="M4.81397 0.0629498C4.92537 -0.0210141 5.07894 -0.0209801 5.1903 0.063033L9.71863 3.47927C9.72697 3.48556 9.73499 3.49227 9.74266 3.49936C9.89563 3.64089 9.98771 3.83626 9.9995 4.04431C9.99983 4.0502 10 4.0561 10 4.06199V9.28009L10 9.28136C9.99838 9.67787 9.6771 9.99879 9.28053 10L9.27958 10H6.5625C6.38991 10 6.25 9.86011 6.25 9.68754V7.50031C6.25 6.81004 5.69036 6.25047 5 6.25047C4.30964 6.25047 3.75 6.81004 3.75 7.50031V9.68629C3.75 9.85886 3.61009 9.99875 3.4375 9.99875H0.72L0.719046 9.99875C0.322431 9.99754 0.00121251 9.67636 1.46528e-06 9.27979L0 9.27884V4.06199C0 4.05624 0.000158946 4.05049 0.000476663 4.04474C0.0120019 3.83634 0.104247 3.64062 0.257656 3.49907C0.265261 3.49205 0.273211 3.48542 0.281475 3.47919L4.81397 0.0629498ZM0.673186 3.96653C0.645675 3.99548 0.628667 4.0329 0.625 4.07277V9.2782C0.625329 9.33087 0.667951 9.37349 0.72062 9.37383H3.125V7.50031C3.125 6.46491 3.96447 5.62555 5 5.62555C6.03553 5.62555 6.875 6.46491 6.875 7.50031V9.37508H9.27897C9.3318 9.37474 9.37457 9.33203 9.375 9.27921V4.07302C9.37124 4.03301 9.35416 3.99545 9.32658 3.96635L5.002 0.703819L0.673186 3.96653Z" fill="#4C4C4C"/>
</svg>
