<svg classname="keep-loading-indicator-icon" width="40" height="40" viewBox="0 0 40 40" fill="none" xmlns="http://www.w3.org/2000/svg">
<path d="M20 0C8.95798 0 0 8.95798 0 20C0 31.042 8.95798 40 20 40C31.042 40 40 31.042 40 20C39.9832 8.95798 31.0252 0 20 0ZM28.3697 15.5294H27.1261L23.3109 19.9832L27.1261 24.437H28.3866V28.0168H20.2857V24.4706H21.5462L19.042 21.5462H18.0168V24.4706H19.4454V28.0168H11.5966V24.437H13.2941V20V15.5294H11.5966V11.9496H13.5294V13.2773H14.5714V11.9496H16.4706V13.2773H17.5126V11.9496H19.4286V15.479H18V18.4034H19.0252L21.5294 15.479H20.2689V11.9496H28.3697V15.5294Z" fill="#48DBB4"/>
</svg>
