
<svg width="18" height="19" viewBox="0 0 18 19" fill="none" xmlns="http://www.w3.org/2000/svg">
<path d="M6.88413 11.6258C10.5453 11.6258 14.1988 11.6258 17.9527 11.6258C17.9527 8.76529 18.0196 5.94344 17.9244 3.12932C17.878 1.81109 16.7966 0.69625 15.5248 0.655055C12.6669 0.559792 9.80639 0.626734 6.88413 0.626734C6.88413 4.33427 6.88413 7.92594 6.88413 11.6258ZM0.0483647 7.514C0.0483647 8.9069 0.0483647 10.2792 0.0483647 11.667C1.47474 11.667 2.84446 11.667 4.20389 11.667C4.20389 10.22 4.20389 8.89145 4.20389 7.514C2.77237 7.514 1.45929 7.514 0.0483647 7.514ZM11.1401 18.5825C11.1401 17.3518 11.1864 16.2422 11.1092 15.1428C11.0886 14.8467 10.7127 14.3498 10.4732 14.3317C9.30175 14.2468 8.11998 14.2931 6.88928 14.2931C6.88928 15.8199 6.88928 17.1639 6.88928 18.5825C8.29248 18.5825 9.63389 18.5825 11.1401 18.5825ZM4.31461 0.711696C1.01129 0.302322 -0.39448 1.72097 0.0947083 4.95477C1.25589 4.95477 2.44539 4.99339 3.62974 4.92387C3.87176 4.90842 4.26826 4.4939 4.28371 4.24673C4.3558 3.09585 4.31461 1.94239 4.31461 0.711696ZM4.31461 18.531C4.31461 17.2978 4.35323 16.1443 4.28371 14.9986C4.26826 14.7514 3.86919 14.3395 3.62717 14.324C2.44282 14.2545 1.25331 14.2931 0.0921352 14.2931C-0.386755 17.5398 1.01644 18.9533 4.31461 18.531ZM17.8497 14.2931C16.6937 14.2931 15.5093 14.2622 14.3275 14.3189C14.0958 14.3292 13.6967 14.6716 13.6864 14.875C13.6246 16.0928 13.6555 17.3158 13.6555 18.5104C16.9151 18.9198 18.4032 17.4085 17.8497 14.2931Z" fill="white"/>
</svg>
