<svg width="28" height="29" viewBox="0 0 28 29" fill="none" xmlns="http://www.w3.org/2000/svg">
<path d="M1.95835 2.19475L16.5433 6.34035C18.5686 7.00556 19.9538 8.8761 19.9995 11.0073V25.0216C20.084 25.9198 19.7202 26.8019 19.0272 27.3795C18.3342 27.9571 17.4009 28.156 16.5326 27.9111L4.46785 24.6309C2.44086 24.0002 1.04453 22.1436 1.00096 20.0213V4.75091C0.955374 2.73472 2.54536 1.05958 4.56119 1H22.9997C25.209 1 27 2.79098 27 5.00026V16.9384C26.9905 18.0276 26.5479 19.0682 25.7698 19.8306C24.9917 20.5929 23.9422 21.0141 22.8531 21.0013H19.9995" stroke="#4C4C4C" stroke-width="1.7" stroke-linecap="round" stroke-linejoin="round"/>
<path d="M14.4989 16.001C14.7751 16.001 14.999 16.2248 14.999 16.501C14.999 16.7772 14.7751 17.001 14.4989 17.001C14.2228 17.001 13.9989 16.7772 13.9989 16.501C13.9989 16.2248 14.2228 16.001 14.4989 16.001" stroke="#4C4C4C" stroke-width="1.7" stroke-linecap="round" stroke-linejoin="round"/>
<path d="M26.9995 11.0005H19.999" stroke="#4C4C4C" stroke-width="1.7" stroke-linecap="round" stroke-linejoin="round"/>
</svg>
