<svg class="plus-icon" width="12" height="12" viewBox="0 0 12 12" fill="none" xmlns="http://www.w3.org/2000/svg">
<path fill-rule="evenodd" clip-rule="evenodd" d="M6.00068 0.679245C3.84856 0.679007 1.90823 1.97526 1.08454 3.96351C0.260855 5.95176 0.716032 8.24042 2.23781 9.76219C3.75958 11.284 6.04824 11.7391 8.03649 10.9155C10.0247 10.0918 11.321 8.15144 11.3208 5.99933C11.3204 3.06126 8.93874 0.679569 6.00068 0.679245ZM0.457018 3.70354C1.38586 1.46147 3.57389 -0.000267588 6.00075 3.67429e-08C9.31389 0.000365723 11.9996 2.68611 12 5.99925C12.0003 8.42611 10.5385 10.6141 8.29646 11.543C6.05439 12.4718 3.47356 11.9585 1.75751 10.2425C0.0414608 8.52644 -0.471824 5.94561 0.457018 3.70354ZM2.81128 5.96058C2.81128 5.77301 2.96334 5.62096 3.1509 5.62096H5.62168V3.05704C5.62168 2.86948 5.77373 2.71742 5.9613 2.71742C6.14887 2.71742 6.30092 2.86948 6.30092 3.05704V5.62096H8.77185C8.95942 5.62096 9.11147 5.77301 9.11147 5.96058C9.11147 6.14815 8.95942 6.30021 8.77185 6.30021H6.30092V8.67799C6.30092 8.86555 6.14887 9.01761 5.9613 9.01761C5.77373 9.01761 5.62168 8.86555 5.62168 8.67799V6.30021H3.1509C2.96334 6.30021 2.81128 6.14815 2.81128 5.96058Z" fill="black"/>
</svg>
