<svg width="83" height="76" viewBox="0 0 83 76" fill="none" xmlns="http://www.w3.org/2000/svg">
<path d="M15.7605 23.5202C17.4425 20.5934 23.7302 14.3572 35.4245 12.827C47.1188 11.2969 53.5865 15.7244 55.6091 17.2767C57.6317 18.8289 63.3843 26.4 66.5898 37.6496C69.7953 48.8992 65.0503 45.9968 61.6013 42.5324C61.3471 41.9377 56.4311 37.4123 53.987 35.1382C56.9223 39.0556 51.2656 43.878 50.0591 48.6949C49.4484 51.1328 27.0112 32.9429 15.7605 23.5202Z" fill="#B70A0A"/>
<path fill-rule="evenodd" clip-rule="evenodd" d="M54.2382 19.0614C52.5247 17.7464 46.641 13.628 35.7152 15.0576C26.6258 16.2469 21.1874 20.4268 18.8177 23.141C24.3489 27.7468 31.8605 33.8709 38.2671 38.7676C41.8033 41.4704 44.9547 43.7621 47.2361 45.2183C47.7612 45.5535 48.2178 45.8298 48.6063 46.0506C48.9185 45.3333 49.2726 44.6499 49.6224 44.0131C49.9585 43.4013 50.2599 42.8821 50.5445 42.392C50.9049 41.7712 51.2384 41.197 51.581 40.5399C52.7024 38.3896 52.7663 37.386 52.2808 36.6247C51.8837 36.2549 51.5531 35.9451 51.3334 35.7342C51.2276 35.6325 51.0879 35.4973 50.9883 35.3875L50.9868 35.3859C50.9657 35.3626 50.8876 35.2766 50.8062 35.1632L50.8036 35.1595C50.7766 35.1222 50.6357 34.9274 50.5296 34.6499C50.488 34.5415 50.3192 34.0986 50.4046 33.5174C50.4541 33.1803 50.5961 32.7592 50.9253 32.3764C51.2565 31.9913 51.6583 31.7833 52.001 31.6831C52.5884 31.5112 53.0687 31.6317 53.1839 31.6606C53.366 31.7065 53.5028 31.7654 53.5673 31.7947C53.7022 31.8559 53.802 31.9175 53.8376 31.9397C53.9226 31.9927 53.9905 32.0427 54.0186 32.0636C54.6524 32.5334 55.2013 33.0479 55.6536 33.6145C55.8574 33.8041 56.0773 34.0082 56.3092 34.2236C57.4571 35.2896 58.9012 36.6305 60.1669 37.8346C60.955 38.5843 61.6912 39.2971 62.2524 39.8674C62.531 40.1504 62.7857 40.4178 62.9883 40.6471C63.0886 40.7606 63.1947 40.8858 63.291 41.0122C63.3083 41.0348 63.3343 41.0689 63.3656 41.1127C64.0608 41.7976 64.7604 42.4035 65.379 42.8343C65.3032 41.8663 65.0326 40.3974 64.4256 38.267C62.8823 32.8508 60.7266 28.3257 58.725 24.983C56.6735 21.557 54.9055 19.5735 54.2382 19.0614ZM66.4076 43.3906C66.4076 43.3907 66.4043 43.3902 66.3975 43.3886C66.404 43.3896 66.4075 43.3904 66.4076 43.3906ZM56.4983 40.5593C56.2275 41.3052 55.8939 41.9998 55.5714 42.6183C55.2197 43.2927 54.7637 44.0833 54.3372 44.8228C54.0544 45.3131 53.7846 45.7809 53.5667 46.1774C52.9366 47.3244 52.4713 48.324 52.2418 49.2401C52.0915 49.8404 51.7162 50.4167 51.1045 50.7875C50.5609 51.117 50.0187 51.1698 49.6774 51.167C49.033 51.1619 48.4281 50.9486 48.0218 50.7832C47.1282 50.4195 46.0146 49.7784 44.8127 49.0113C42.3637 47.4481 39.0882 45.0605 35.5324 42.3428C28.4019 36.8927 19.9508 29.9653 14.3148 25.245L12.87 24.0349L13.8095 22.4001C15.8607 18.831 22.7823 12.2123 35.1338 10.5961C47.5966 8.96546 54.6483 13.7022 56.9799 15.4916C58.3352 16.5318 60.4549 19.11 62.5867 22.67C64.7684 26.3133 67.0917 31.1985 68.7539 37.0319C69.5716 39.9013 69.9582 42.1082 69.8962 43.73C69.8652 44.5419 69.7166 45.409 69.2825 46.1677C68.7979 47.0147 68.015 47.6145 67.0385 47.8132C66.1702 47.9898 65.3651 47.806 64.7721 47.5909C64.1569 47.3678 63.5691 47.0375 63.0418 46.6878C61.9861 45.9876 60.9227 45.0406 60.006 44.1198L59.7017 43.8141L59.6284 43.6428C59.6239 43.6377 59.6193 43.6324 59.6145 43.627C59.49 43.4861 59.2999 43.2846 59.0436 43.0242C58.5352 42.5077 57.8419 41.8355 57.0637 41.0952C56.8786 40.9191 56.6896 40.7401 56.4983 40.5593ZM51.3402 35.681C51.339 35.6802 51.3379 35.6793 51.3367 35.6784L51.3368 35.6785C51.3371 35.6788 51.3383 35.6796 51.3402 35.681Z" fill="#0A0806"/>
<path d="M13.8027 22.1684C10.755 23.0275 9.78338 25.0435 6.92179 28.3335C6.16991 29.1979 6.84229 30.5921 7.8907 31.893C9.2012 33.5192 14.7508 39.9782 17.5653 41.57C20.3798 43.1618 26.4017 45.8165 31.7347 51.2406C37.0677 56.6647 45.2489 60.0981 48.2795 59.3357C51.3101 58.5733 51.5717 54.8316 52.4372 52.193C53.3028 49.5544 50.6364 47.6896 47.5885 46.8542C44.5405 46.0187 36.8661 40.2821 35.4302 38.2352C33.9943 36.1883 28.0233 31.549 24.5992 29.4512C21.8599 27.773 16.8504 21.3094 13.8027 22.1684Z" fill="#F4F4F4"/>
<path fill-rule="evenodd" clip-rule="evenodd" d="M14.3902 24.3397C13.3472 24.6375 12.6799 25.1 11.9156 25.8963C11.4973 26.3321 11.0664 26.8513 10.5209 27.5218C10.4589 27.598 10.3957 27.6758 10.3312 27.7552C9.9246 28.2557 9.46647 28.8197 8.94539 29.4304C8.98635 29.5167 9.04161 29.6202 9.11481 29.7407C9.25066 29.9644 9.4281 30.2136 9.64325 30.4806C10.2629 31.2495 11.9396 33.2266 13.8013 35.1998C14.7311 36.1853 15.6878 37.1492 16.5682 37.9529C17.4778 38.783 18.1998 39.3431 18.6741 39.6114C19.0952 39.8495 19.6156 40.1235 20.2159 40.4397C23.3393 42.0844 28.6262 44.8684 33.3399 49.6627C35.7894 52.154 38.9354 54.2226 41.8226 55.5688C43.2622 56.24 44.5878 56.7083 45.681 56.9647C46.8409 57.2368 47.4979 57.2125 47.7316 57.1537C48.2417 57.0254 48.655 56.6825 49.0853 55.6226C49.3033 55.0858 49.4816 54.4671 49.6728 53.7421C49.7061 53.6161 49.7402 53.4847 49.7754 53.3495C49.9287 52.7596 50.1009 52.0969 50.2991 51.4928C50.3758 51.2589 50.3552 51.1293 50.3268 51.0392C50.2903 50.9231 50.1894 50.7273 49.9226 50.4715C49.3557 49.9281 48.3227 49.3883 46.9923 49.0236C45.9282 48.7319 44.6638 48.0869 43.4644 47.3827C42.2175 46.6505 40.8665 45.7493 39.5845 44.8213C38.3017 43.8927 37.0601 42.9174 36.0337 42.029C35.06 41.1863 34.1207 40.2875 33.5876 39.5275C33.3728 39.2213 32.8785 38.6813 32.0832 37.9442C31.3198 37.2366 30.3763 36.4359 29.3549 35.6199C27.303 33.9806 25.0323 32.3555 23.4227 31.3694C22.5247 30.8192 21.5463 29.9529 20.6627 29.1417C20.3591 28.8629 20.06 28.5843 19.7623 28.307C19.1244 27.7127 18.4933 27.1247 17.8392 26.5558C16.8835 25.7247 16.0347 25.0758 15.3147 24.6845C14.6622 24.3299 14.4006 24.3423 14.3902 24.3397ZM8.84847 29.1727C8.84849 29.1727 8.84863 29.1735 8.84886 29.175C8.84856 29.1734 8.84845 29.1727 8.84847 29.1727ZM23.7077 25.8267C24.6291 26.6726 25.3041 27.2436 25.7758 27.5325C27.5902 28.6442 30.017 30.3876 32.1656 32.1042C33.2445 32.9661 34.2769 33.8401 35.1439 34.6436C35.979 35.4176 36.7695 36.2251 37.2727 36.9424C37.4576 37.2059 38.0161 37.7917 38.9804 38.6264C39.8921 39.4155 41.0288 40.3102 42.2251 41.1761C43.4221 42.0426 44.6511 42.86 45.7452 43.5024C46.8868 44.1727 47.7247 44.5581 48.1846 44.6842C49.9022 45.155 51.7263 45.9652 53.0382 47.2227C54.4409 48.5673 55.3411 50.5584 54.5754 52.8927C54.4255 53.3497 54.2983 53.8378 54.1481 54.4147C54.1087 54.5658 54.0678 54.723 54.0244 54.8874C53.8285 55.63 53.5897 56.489 53.2552 57.3128C52.5808 58.974 51.348 60.8831 48.8274 61.5172C47.5458 61.8396 46.0437 61.6721 44.6506 61.3453C43.1909 61.0029 41.5696 60.4167 39.9185 59.6469C36.6242 58.1109 33.0131 55.7507 30.1295 52.8179C25.9615 48.5787 21.4091 46.1688 18.2506 44.4968C17.5852 44.1445 16.9815 43.825 16.4565 43.528C15.5235 43.0003 14.4964 42.1561 13.5329 41.2767C12.5403 40.3708 11.4999 39.3199 10.5267 38.2883C8.58234 36.2276 6.82895 34.1621 6.13812 33.3049C5.54575 32.5699 4.92382 31.6503 4.59499 30.6579C4.26024 29.6475 4.11661 28.1308 5.22413 26.8575C5.82974 26.1612 6.34549 25.5264 6.83695 24.9215C6.90176 24.8417 6.96615 24.7625 7.03028 24.6837C7.56697 24.024 8.10603 23.3687 8.66931 22.7818C9.8628 21.5384 11.2012 20.5644 13.1933 20.0028C14.8165 19.5453 16.3646 20.1325 17.4657 20.7309C18.6277 21.3623 19.774 22.2731 20.7941 23.1603C21.5073 23.7806 22.2354 24.4587 22.9002 25.0779C23.1828 25.3411 23.454 25.5937 23.7077 25.8267Z" fill="#0A0806"/>
<path d="M77.8898 46.2169C76.935 51.6217 71.8901 55.2514 66.6218 54.3242C61.3534 53.3969 57.8565 48.2638 58.8113 42.859C59.7661 37.4542 64.8109 33.8244 70.0793 34.7517C75.3476 35.6789 78.8445 40.8121 77.8898 46.2169Z" fill="#F4F4F4"/>
<path fill-rule="evenodd" clip-rule="evenodd" d="M67.4046 49.8928C70.1187 50.3705 72.9164 48.5022 73.4579 45.4369C73.9994 42.3715 72.0106 39.6608 69.2965 39.1831C66.5823 38.7054 63.7847 40.5737 63.2432 43.639C62.7017 46.7044 64.6905 49.4151 67.4046 49.8928ZM66.6218 54.3242C71.8901 55.2514 76.935 51.6217 77.8898 46.2169C78.8445 40.8121 75.3476 35.6789 70.0793 34.7517C64.8109 33.8244 59.7661 37.4542 58.8113 42.859C57.8565 48.2638 61.3534 53.3969 66.6218 54.3242Z" fill="#0A0806"/>
<ellipse cx="6.51193" cy="16.5584" rx="1.95163" ry="1.94805" fill="#0A0806"/>
<ellipse cx="42.6169" cy="66.2337" rx="1.95163" ry="1.94805" fill="#0A0806"/>
<ellipse cx="58.2299" cy="8.76641" rx="1.95163" ry="1.94805" fill="#0A0806"/>
<path fill-rule="evenodd" clip-rule="evenodd" d="M16.27 55.4677C16.7856 55.4677 17.1974 55.0514 17.1974 54.5456C17.1974 54.0398 16.7856 53.6235 16.27 53.6235C15.7543 53.6235 15.3425 54.0398 15.3425 54.5456C15.3425 55.0514 15.7543 55.4677 16.27 55.4677ZM16.27 57.4677C17.8868 57.4677 19.1974 56.1594 19.1974 54.5456C19.1974 52.9318 17.8868 51.6235 16.27 51.6235C14.6532 51.6235 13.3425 52.9318 13.3425 54.5456C13.3425 56.1594 14.6532 57.4677 16.27 57.4677Z" fill="#0A0806"/>
<path fill-rule="evenodd" clip-rule="evenodd" d="M50.4235 3.84416C50.9392 3.84416 51.351 3.42787 51.351 2.92208C51.351 2.41628 50.9392 2 50.4235 2C49.9079 2 49.4961 2.41628 49.4961 2.92208C49.4961 3.42787 49.9079 3.84416 50.4235 3.84416ZM50.4235 5.84416C52.0403 5.84416 53.351 4.5359 53.351 2.92208C53.351 1.30826 52.0403 0 50.4235 0C48.8068 0 47.4961 1.30826 47.4961 2.92208C47.4961 4.5359 48.8068 5.84416 50.4235 5.84416Z" fill="#0A0806"/>
<path fill-rule="evenodd" clip-rule="evenodd" d="M15.3184 6.81807C15.3184 7.37036 14.8706 7.81807 14.3184 7.81807H13.4428V9.74015C13.4428 10.2924 12.9951 10.7402 12.4428 10.7402C11.8905 10.7402 11.4428 10.2924 11.4428 9.74015V7.81807H10.4151C9.86282 7.81807 9.4151 7.37036 9.4151 6.81807C9.4151 6.26579 9.86282 5.81807 10.4151 5.81807H11.4428V3.896C11.4428 3.34371 11.8905 2.896 12.4428 2.896C12.9951 2.896 13.4428 3.34371 13.4428 3.896V5.81807H14.3184C14.8706 5.81807 15.3184 6.26579 15.3184 6.81807Z" fill="#0A0806"/>
<path fill-rule="evenodd" clip-rule="evenodd" d="M37.7622 72.0778C37.7622 72.6301 37.3145 73.0778 36.7622 73.0778H35.8866V74.9999C35.8866 75.5522 35.4389 75.9999 34.8866 75.9999C34.3343 75.9999 33.8866 75.5522 33.8866 74.9999V73.0778H32.859C32.3067 73.0778 31.859 72.6301 31.859 72.0778C31.859 71.5256 32.3067 71.0778 32.859 71.0778H33.8866V69.1558C33.8866 68.6035 34.3343 68.1558 34.8866 68.1558C35.4389 68.1558 35.8866 68.6035 35.8866 69.1558V71.0778H36.7622C37.3145 71.0778 37.7622 71.5256 37.7622 72.0778Z" fill="#0A0806"/>
</svg>
