<svg width="12" height="12" viewBox="0 0 12 12" fill="none" xmlns="http://www.w3.org/2000/svg">
<path d="M7.75771 4.7619V3.95996H6.0194V4.75145H6.2906L5.75376 5.40484H5.53147V4.75145H5.83712V3.95996H5.42477V4.25706H5.20137V3.95996H4.79347V4.25706H4.57006V3.95996H4.15771V4.7619H4.52227V5.75996V6.75803H4.15771V7.55996H5.83712V6.76847H5.53147V6.11509H5.75376L6.2906 6.76847H6.0194V7.55996H7.75771V6.75803H7.48763L6.66849 5.75996L7.48763 4.7619H7.75771Z" fill="#6D6D6D"/>
<path fill-rule="evenodd" clip-rule="evenodd" d="M0.36 0.47998C0.558823 0.47998 0.72 0.641158 0.72 0.83998V11.64C0.72 11.8388 0.558823 12 0.36 12C0.161177 12 0 11.8388 0 11.64V0.83998C0 0.641158 0.161177 0.47998 0.36 0.47998Z" fill="#818181"/>
<path fill-rule="evenodd" clip-rule="evenodd" d="M5.83738 1.21783C4.61865 0.467897 3.13593 0.279327 1.76829 0.700319L5.83738 1.21783ZM1.76829 0.700319C1.76832 0.700311 1.76826 0.700327 1.76829 0.700319V0.700319ZM1.76829 0.700319C1.76832 0.700311 1.76826 0.700327 1.76829 0.700319V0.700319ZM1.76829 0.700319L0.25437 1.16544C0.0643153 1.22383 -0.04242 1.42523 0.0159704 1.61529C0.0743609 1.80534 0.275766 1.91208 0.465821 1.85369L1.97974 1.38857C3.14942 1.02846 4.41774 1.18966 5.46007 1.83105C6.64921 2.56264 8.09105 2.76093 9.43353 2.37748L10.5702 2.05263C10.5702 2.05265 10.5703 2.05262 10.5702 2.05263C10.6246 2.03725 10.6832 2.04814 10.7283 2.08216C10.7735 2.11623 10.8 2.1695 10.8001 2.22606V9.81293C10.8001 9.89339 10.7468 9.96411 10.6694 9.98632C10.6695 9.98631 10.6694 9.98633 10.6694 9.98632L9.2358 10.3957C8.0876 10.7237 6.85442 10.5541 5.83738 9.92839C4.61859 9.17842 3.13579 8.98987 1.76809 9.41094L0.254271 9.87651C0.0642325 9.93496 -0.0424444 10.1364 0.0160011 10.3264C0.0744467 10.5165 0.275882 10.6231 0.465921 10.5647L1.97984 10.0991C3.14952 9.73899 4.41774 9.90022 5.46007 10.5416C6.6492 11.2732 8.09104 11.4715 9.43351 11.088C9.4335 11.088 9.43351 11.088 9.43351 11.088L10.8673 10.6786C11.2534 10.568 11.5199 10.2149 11.5201 9.81324V2.22572C11.5198 1.94351 11.3873 1.6774 11.162 1.50741C10.9367 1.33743 10.6448 1.2829 10.3733 1.36009L9.23578 1.68517C9.2358 1.68516 9.23577 1.68517 9.23578 1.68517C8.08761 2.01311 6.85441 1.84352 5.83738 1.21783" fill="#818181"/>
</svg>
