<svg width="60" height="60" viewBox="0 0 60 60" fill="none" xmlns="http://www.w3.org/2000/svg">
<path d="M40.2485 28.0623H19.7505C19.5404 28.0623 19.377 28.2257 19.377 28.4358V31.8911C19.377 32.1012 19.5404 32.2646 19.7505 32.2646H27.5248V42.7938C27.5248 43.0039 27.6882 43.1673 27.8984 43.1673H32.1474C32.3575 43.1673 32.5209 43.0039 32.5209 42.7938V32.2646H40.2952C40.5054 32.2646 40.6688 32.1012 40.6688 31.8911V28.4358C40.6221 28.2257 40.4587 28.0623 40.2485 28.0623Z" fill="black"/>
<path d="M29.9994 23.1595C31.7504 23.1595 33.1512 21.7353 33.1512 20.0077C33.1512 18.2567 31.727 16.856 29.9994 16.856C28.2484 16.856 26.8477 18.2801 26.8477 20.0077C26.8477 21.7587 28.2484 23.1595 29.9994 23.1595Z" fill="black"/>
<path d="M30 0C13.4241 0 0 13.4241 0 30C0 46.5759 13.4241 60 30 60C46.5759 60 60 46.5759 60 30C60 13.4241 46.5759 0 30 0ZM48.3969 48.3969C43.4708 53.323 36.9339 56.0311 30 56.0311C23.0661 56.0311 16.5058 53.323 11.6031 48.3969C6.67704 43.4942 3.96887 36.9572 3.96887 30C3.96887 23.0428 6.67704 16.5058 11.6031 11.6031C16.5058 6.67704 23.0428 3.96887 30 3.96887C36.9572 3.96887 43.4942 6.67704 48.3969 11.6031C53.323 16.5292 56.0311 23.0661 56.0311 30C56.0311 36.9572 53.323 43.4942 48.3969 48.3969Z" fill="black"/>
</svg>
