<svg className="time-icon" width="24" height="24" viewBox="0 0 24 24" fill="none" xmlns="http://www.w3.org/2000/svg">
<path fill-rule="evenodd" clip-rule="evenodd" d="M0 12C0 5.37258 5.37258 0 12 0C18.6274 0 24 5.37258 24 12C24 18.6274 18.6274 24 12 24C5.37258 24 0 18.6274 0 12ZM12 1.6C6.25624 1.6 1.6 6.25624 1.6 12C1.6 17.7438 6.25624 22.4 12 22.4C17.7438 22.4 22.4 17.7438 22.4 12C22.4 6.25624 17.7438 1.6 12 1.6ZM12 7.2C12.4418 7.2 12.8 7.55817 12.8 8V11.6687L17.5652 16.4349C17.8776 16.7474 17.8775 17.2539 17.5651 17.5663C17.2526 17.8787 16.7461 17.8786 16.4337 17.5662L11.4343 12.5656C11.2843 12.4156 11.2 12.2121 11.2 12V8C11.2 7.55817 11.5582 7.2 12 7.2Z" fill="#FF9900"/>
</svg>
