<svg class="tokens" width="11" height="11" viewBox="0 0 11 11" fill="none" xmlns="http://www.w3.org/2000/svg">
<mask id="path-1-inside-1" fill="white">
<path d="M7 4.58032V3.90015H5.5514V4.57146H5.7774L5.33004 5.12563H5.1448V4.57146H5.39951V3.90015H5.05588V4.15213H4.86971V3.90015H4.52979V4.15213H4.34362V3.90015H4V4.58032H4.3038V5.42684V6.27336H4V6.95353H5.39951V6.28222H5.1448V5.72804H5.33004L5.7774 6.28222H5.5514V6.95353H7V6.27336H6.77493L6.09231 5.42684L6.77493 4.58032H7Z"/>
</mask>
<path d="M7 4.58032V3.90015H5.5514V4.57146H5.7774L5.33004 5.12563H5.1448V4.57146H5.39951V3.90015H5.05588V4.15213H4.86971V3.90015H4.52979V4.15213H4.34362V3.90015H4V4.58032H4.3038V5.42684V6.27336H4V6.95353H5.39951V6.28222H5.1448V5.72804H5.33004L5.7774 6.28222H5.5514V6.95353H7V6.27336H6.77493L6.09231 5.42684L6.77493 4.58032H7Z" fill="#4C4C4C"/>
<path d="M7 4.58032V5.58032H8V4.58032H7ZM7 3.90015H8V2.90015H7V3.90015ZM5.5514 3.90015V2.90015H4.5514V3.90015H5.5514ZM5.5514 4.57146H4.5514V5.57146H5.5514V4.57146ZM5.7774 4.57146L6.55551 5.19959L7.86982 3.57146H5.7774V4.57146ZM5.33004 5.12563V6.12563H5.80796L6.10815 5.75376L5.33004 5.12563ZM5.1448 5.12563H4.1448V6.12563H5.1448V5.12563ZM5.1448 4.57146V3.57146H4.1448V4.57146H5.1448ZM5.39951 4.57146V5.57146H6.39951V4.57146H5.39951ZM5.39951 3.90015H6.39951V2.90015H5.39951V3.90015ZM5.05588 3.90015V2.90015H4.05588V3.90015H5.05588ZM5.05588 4.15213V5.15213H6.05588V4.15213H5.05588ZM4.86971 4.15213H3.86971V5.15213H4.86971V4.15213ZM4.86971 3.90015H5.86971V2.90015H4.86971V3.90015ZM4.52979 3.90015V2.90015H3.52979V3.90015H4.52979ZM4.52979 4.15213V5.15213H5.52979V4.15213H4.52979ZM4.34362 4.15213H3.34362V5.15213H4.34362V4.15213ZM4.34362 3.90015H5.34362V2.90015H4.34362V3.90015ZM4 3.90015V2.90015H3V3.90015H4ZM4 4.58032H3V5.58032H4V4.58032ZM4.3038 4.58032H5.3038V3.58032H4.3038V4.58032ZM4.3038 6.27336V7.27336H5.3038V6.27336H4.3038ZM4 6.27336V5.27336H3V6.27336H4ZM4 6.95353H3V7.95353H4V6.95353ZM5.39951 6.95353V7.95353H6.39951V6.95353H5.39951ZM5.39951 6.28222H6.39951V5.28222H5.39951V6.28222ZM5.1448 6.28222H4.1448V7.28222H5.1448V6.28222ZM5.1448 5.72804V4.72804H4.1448V5.72804H5.1448ZM5.33004 5.72804L6.10815 5.09991L5.80796 4.72804H5.33004V5.72804ZM5.7774 6.28222V7.28222H7.86982L6.55551 5.65408L5.7774 6.28222ZM5.5514 6.28222V5.28222H4.5514V6.28222H5.5514ZM5.5514 6.95353H4.5514V7.95353H5.5514V6.95353ZM7 6.95353V7.95353H8V6.95353H7ZM7 6.27336H8V5.27336H7V6.27336ZM6.77493 6.27336L5.99649 6.90108L6.29669 7.27336H6.77493V6.27336ZM6.09231 5.42684L5.31387 4.79912L4.80769 5.42684L5.31387 6.05456L6.09231 5.42684ZM6.77493 4.58032V3.58032H6.29669L5.99649 3.9526L6.77493 4.58032ZM8 4.58032V3.90015H6V4.58032H8ZM7 2.90015H5.5514V4.90015H7V2.90015ZM4.5514 3.90015V4.57146H6.5514V3.90015H4.5514ZM5.5514 5.57146H5.7774V3.57146H5.5514V5.57146ZM4.99929 3.94333L4.55193 4.4975L6.10815 5.75376L6.55551 5.19959L4.99929 3.94333ZM5.33004 4.12563H5.1448V6.12563H5.33004V4.12563ZM6.1448 5.12563V4.57146H4.1448V5.12563H6.1448ZM5.1448 5.57146H5.39951V3.57146H5.1448V5.57146ZM6.39951 4.57146V3.90015H4.39951V4.57146H6.39951ZM5.39951 2.90015H5.05588V4.90015H5.39951V2.90015ZM4.05588 3.90015V4.15213H6.05588V3.90015H4.05588ZM5.05588 3.15213H4.86971V5.15213H5.05588V3.15213ZM5.86971 4.15213V3.90015H3.86971V4.15213H5.86971ZM4.86971 2.90015H4.52979V4.90015H4.86971V2.90015ZM3.52979 3.90015V4.15213H5.52979V3.90015H3.52979ZM4.52979 3.15213H4.34362V5.15213H4.52979V3.15213ZM5.34362 4.15213V3.90015H3.34362V4.15213H5.34362ZM4.34362 2.90015H4V4.90015H4.34362V2.90015ZM3 3.90015V4.58032H5V3.90015H3ZM4 5.58032H4.3038V3.58032H4V5.58032ZM3.3038 4.58032V5.42684H5.3038V4.58032H3.3038ZM3.3038 5.42684V6.27336H5.3038V5.42684H3.3038ZM4.3038 5.27336H4V7.27336H4.3038V5.27336ZM3 6.27336V6.95353H5V6.27336H3ZM4 7.95353H5.39951V5.95353H4V7.95353ZM6.39951 6.95353V6.28222H4.39951V6.95353H6.39951ZM5.39951 5.28222H5.1448V7.28222H5.39951V5.28222ZM6.1448 6.28222V5.72804H4.1448V6.28222H6.1448ZM5.1448 6.72804H5.33004V4.72804H5.1448V6.72804ZM4.55193 6.35617L4.99929 6.91035L6.55551 5.65408L6.10815 5.09991L4.55193 6.35617ZM5.7774 5.28222H5.5514V7.28222H5.7774V5.28222ZM4.5514 6.28222V6.95353H6.5514V6.28222H4.5514ZM5.5514 7.95353H7V5.95353H5.5514V7.95353ZM8 6.95353V6.27336H6V6.95353H8ZM7 5.27336H6.77493V7.27336H7V5.27336ZM7.55337 5.64564L6.87075 4.79912L5.31387 6.05456L5.99649 6.90108L7.55337 5.64564ZM6.87075 6.05456L7.55337 5.20803L5.99649 3.9526L5.31387 4.79912L6.87075 6.05456ZM6.77493 5.58032H7V3.58032H6.77493V5.58032Z" fill="#4C4C4C" mask="url(#path-1-inside-1)"/>
<path class="outline" fill-rule="evenodd" clip-rule="evenodd" d="M5.5 1.81818C3.46659 1.81818 1.81818 3.46659 1.81818 5.5C1.81818 7.53341 3.46659 9.18182 5.5 9.18182C7.53341 9.18182 9.18182 7.53341 9.18182 5.5C9.18182 3.46659 7.53341 1.81818 5.5 1.81818ZM1 5.5C1 3.01472 3.01472 1 5.5 1C7.98528 1 10 3.01472 10 5.5C10 7.98528 7.98528 10 5.5 10C3.01472 10 1 7.98528 1 5.5Z" fill="#4C4C4C" stroke="#4C4C4C" stroke-width="0.3"/>
</svg>
