<svg width="13" height="19" viewBox="0 0 13 19" fill="none" xmlns="http://www.w3.org/2000/svg">
<path d="M1.69735 6.7337C1.73177 5.95511 1.71991 5.22163 1.80417 4.49882C2.08665 2.10016 4.15299 0.457534 6.64541 0.6142C8.87198 0.754251 10.6938 2.72089 10.7187 5.01511C10.7247 5.58362 10.7199 6.15213 10.7199 6.70759C11.2042 6.83933 11.6433 6.90461 12.0279 7.08501C12.2249 7.17759 12.4468 7.47668 12.4492 7.68438C12.4765 10.432 12.4634 13.1808 12.4718 15.9296C12.4729 16.307 12.3103 16.5052 11.9673 16.6263C10.1621 17.266 8.36281 17.9247 6.55402 18.5549C6.35226 18.6249 6.08284 18.6178 5.87988 18.5466C4.12925 17.933 2.39049 17.2802 0.637481 16.6749C0.16748 16.5123 -0.0010551 16.2773 0.00369238 15.7753C0.0262429 13.1452 0.0298038 10.5151 0.000132105 7.88615C-0.00580224 7.34256 0.187657 7.08264 0.689703 6.97938C1.01609 6.91292 1.33655 6.82271 1.69735 6.7337ZM9.98526 11.8978C9.98526 11.1085 9.97339 10.318 9.99001 9.52878C9.99713 9.17628 9.89269 8.96976 9.51882 8.91635C7.33617 8.61014 5.15471 8.60064 2.97087 8.90567C2.60056 8.95789 2.48544 9.14423 2.489 9.50267C2.50087 11.0824 2.50087 12.6609 2.48662 14.2406C2.48306 14.5658 2.58513 14.7379 2.90203 14.846C3.90968 15.189 4.90428 15.5699 5.91193 15.9118C6.09945 15.9758 6.34513 15.9818 6.53147 15.9177C7.55812 15.5688 8.5717 15.1818 9.59597 14.8281C9.9188 14.7166 9.99832 14.5243 9.99001 14.2062C9.97221 13.4383 9.98526 12.668 9.98526 11.8978ZM3.86221 6.47852C5.48466 6.47852 6.99673 6.47852 8.60968 6.47852C8.56339 5.74504 8.59188 5.02817 8.45895 4.34453C8.25718 3.31433 7.41688 2.75769 6.25731 2.75413C5.07993 2.75175 4.22895 3.28822 4.02362 4.30418C3.87882 5.0068 3.90968 5.74385 3.86221 6.47852Z" fill="white"/>
</svg>
