<svg width="120" height="120" viewBox="0 0 120 120" fill="none" xmlns="http://www.w3.org/2000/svg">
<g filter="url(#filter0_d)">
<circle cx="60" cy="56" r="56" fill="#D7F6EE"/>
</g>
<circle cx="48" cy="55" r="6.5" stroke="black" stroke-width="3"/>
<path d="M60.8259 72.7553C62.4902 76.3727 62.5721 80.4254 62.471 82.5H62.4621H62.4464H62.4306H62.4147H62.3988H62.3827H62.3666H62.3504H62.3342H62.3178H62.3014H62.2848H62.2682H62.2516H62.2348H62.218H62.201H62.184H62.167H62.1498H62.1326H62.1153H62.0979H62.0804H62.0628H62.0452H62.0275H62.0097H61.9918H61.9739H61.9559H61.9378H61.9196H61.9014H61.883H61.8646H61.8461H61.8276H61.8089H61.7902H61.7714H61.7526H61.7336H61.7146H61.6955H61.6763H61.6571H61.6377H61.6183H61.5989H61.5793H61.5597H61.54H61.5202H61.5004H61.4804H61.4604H61.4403H61.4202H61.4H61.3797H61.3593H61.3388H61.3183H61.2977H61.2771H61.2563H61.2355H61.2146H61.1936H61.1726H61.1515H61.1303H61.1091H61.0877H61.0663H61.0449H61.0233H61.0017H60.98H60.9583H60.9364H60.9145H60.8926H60.8705H60.8484H60.8262H60.8039H60.7816H60.7592H60.7367H60.7142H60.6916H60.6689H60.6462H60.6233H60.6004H60.5775H60.5544H60.5313H60.5082H60.4849H60.4616H60.4382H60.4148H60.3913H60.3677H60.344H60.3203H60.2965H60.2727H60.2488H60.2248H60.2007H60.1766H60.1524H60.1281H60.1038H60.0794H60.0549H60.0304H60.0058H59.9811H59.9564H59.9316H59.9067H59.8818H59.8568H59.8317H59.8066H59.7814H59.7561H59.7308H59.7054H59.6799H59.6544H59.6288H59.6032H59.5775H59.5517H59.5258H59.4999H59.4739H59.4479H59.4218H59.3956H59.3694H59.3431H59.3167H59.2903H59.2638H59.2373H59.2107H59.184H59.1573H59.1305H59.1036H59.0767H59.0497H59.0226H58.9955H58.9683H58.9411H58.9138H58.8865H58.859H58.8315H58.804H58.7764H58.7487H58.721H58.6932H58.6654H58.6375H58.6095H58.5815H58.5534H58.5252H58.497H58.4687H58.4404H58.412H58.3836H58.3551H58.3265H58.2979H58.2692H58.2404H58.2116H58.1828H58.1539H58.1249H58.0958H58.0667H58.0376H58.0084H57.9791H57.9498H57.9204H57.891H57.8615H57.8319H57.8023H57.7726H57.7429H57.7131H57.6833H57.6534H57.6234H57.5934H57.5633H57.5332H57.5031H57.4728H57.4425H57.4122H57.3818H57.3513H57.3208H57.2903H57.2596H57.229H57.1982H57.1675H57.1366H57.1057H57.0748H57.0438H57.0127H56.9816H56.9505H56.9193H56.888H56.8567H56.8253H56.7939H56.7624H56.7308H56.6993H56.6676H56.6359H56.6042H56.5724H56.5406H56.5086H56.4767H56.4447H56.4126H56.3805H56.3484H56.3162H56.2839H56.2516H56.2192H56.1868H56.1544H56.1219H56.0893H56.0567H56.024H55.9913H55.9585H55.9257H55.8929H55.8599H55.827H55.794H55.7609H55.7278H55.6946H55.6614H55.6282H55.5949H55.5615H55.5281H55.4947H55.4612H55.4276H55.394H55.3604H55.3267H55.293H55.2592H55.2254H55.1915H55.1576H55.1236H55.0896H55.0555H55.0214H54.9872H54.953H54.9188H54.8845H54.8501H54.8157H54.7813H54.7468H54.7123H54.6777H54.6431H54.6085H54.5738H54.539H54.5042H54.4694H54.4345H54.3996H54.3646H54.3296H54.2945H54.2594H54.2243H54.1891H54.1538H54.1186H54.0832H54.0479H54.0125H53.977H53.9415H53.906H53.8704H53.8348H53.7991H53.7634H53.7277H53.6919H53.6561H53.6202H53.5843H53.5483H53.5123H53.4763H53.4402H53.4041H53.3679H53.3317H53.2955H53.2592H53.2229H53.1865H53.1501H53.1137H53.0772H53.0407H53.0041H52.9675H52.9309H52.8942H52.8575H52.8207H52.7839H52.7471H52.7102H52.6733H52.6363H52.5993H52.5623H52.5253H52.4881H52.451H52.4138H52.3766H52.3394H52.3021H52.2647H52.2274H52.19H52.1525H52.1151H52.0775H52.04H52.0024H51.9648H51.9271H51.8894H51.8517H51.8139H51.7761H51.7383H51.7004H51.6625H51.6246H51.5866H51.5486H51.5106H51.4725H51.4344H51.3962H51.358H51.3198H51.2816H51.2433H51.205H51.1666H51.1282H51.0898H51.0513H51.0128H50.9743H50.9358H50.8972H50.8586H50.8199H50.7812H50.7425H50.7038H50.665H50.6262H50.5873H50.5485H50.5096H50.4706H50.4316H50.3926H50.3536H50.3146H50.2755H50.2363H50.1972H50.158H50.1188H50.0795H50.0403H50.0009H49.9616H49.9222H49.8828H49.8434H49.804H49.7645H49.725H49.6854H49.6459H49.6063H49.5666H49.527H49.4873H49.4476H49.4078H49.368H49.3283H49.2884H49.2486H49.2087H49.1688H49.1288H49.0889H49.0489H49.0089H48.9688H48.9288H48.8887H48.8485H48.8084H48.7682H48.728H48.6878H48.6475H48.6072H48.5669H48.5266H48.4862H48.4459H48.4054H48.365H48.3246H48.2841H48.2436H48.203H48.1625H48.1219H48.0813H48.0407H48H47.9593H47.9187H47.8781H47.8375H47.797H47.7564H47.7159H47.6754H47.635H47.5946H47.5541H47.5138H47.4734H47.4331H47.3928H47.3525H47.3122H47.272H47.2318H47.1916H47.1515H47.1113H47.0712H47.0312H46.9911H46.9511H46.9111H46.8712H46.8312H46.7913H46.7514H46.7116H46.6717H46.6319H46.5922H46.5524H46.5127H46.473H46.4334H46.3937H46.3541H46.3146H46.275H46.2355H46.196H46.1566H46.1172H46.0778H46.0384H45.9991H45.9597H45.9205H45.8812H45.842H45.8028H45.7637H45.7245H45.6854H45.6464H45.6074H45.5684H45.5294H45.4904H45.4515H45.4127H45.3738H45.335H45.2962H45.2575H45.2188H45.1801H45.1414H45.1028H45.0642H45.0257H44.9872H44.9487H44.9102H44.8718H44.8334H44.795H44.7567H44.7184H44.6802H44.642H44.6038H44.5656H44.5275H44.4894H44.4514H44.4134H44.3754H44.3375H44.2996H44.2617H44.2239H44.1861H44.1483H44.1106H44.0729H44.0352H43.9976H43.96H43.9225H43.8849H43.8475H43.81H43.7726H43.7353H43.6979H43.6606H43.6234H43.5862H43.549H43.5119H43.4747H43.4377H43.4007H43.3637H43.3267H43.2898H43.2529H43.2161H43.1793H43.1425H43.1058H43.0691H43.0325H42.9959H42.9593H42.9228H42.8863H42.8499H42.8135H42.7771H42.7408H42.7045H42.6683H42.6321H42.5959H42.5598H42.5237H42.4877H42.4517H42.4157H42.3798H42.3439H42.3081H42.2723H42.2366H42.2009H42.1652H42.1296H42.094H42.0585H42.023H41.9875H41.9521H41.9168H41.8814H41.8462H41.8109H41.7757H41.7406H41.7055H41.6704H41.6354H41.6004H41.5655H41.5306H41.4958H41.461H41.4262H41.3915H41.3569H41.3223H41.2877H41.2532H41.2187H41.1843H41.1499H41.1155H41.0812H41.047H41.0128H40.9786H40.9445H40.9104H40.8764H40.8424H40.8085H40.7746H40.7408H40.707H40.6733H40.6396H40.606H40.5724H40.5388H40.5053H40.4719H40.4385H40.4051H40.3718H40.3386H40.3054H40.2722H40.2391H40.206H40.173H40.1401H40.1071H40.0743H40.0415H40.0087H39.976H39.9433H39.9107H39.8781H39.8456H39.8132H39.7808H39.7484H39.7161H39.6838H39.6516H39.6195H39.5874H39.5553H39.5233H39.4914H39.4595H39.4276H39.3958H39.3641H39.3324H39.3007H39.2692H39.2376H39.2061H39.1747H39.1433H39.112H39.0807H39.0495H39.0184H38.9873H38.9562H38.9252H38.8943H38.8634H38.8325H38.8018H38.771H38.7404H38.7097H38.6792H38.6487H38.6182H38.5878H38.5575H38.5272H38.4969H38.4668H38.4367H38.4066H38.3766H38.3466H38.3167H38.2869H38.2571H38.2274H38.1977H38.1681H38.1385H38.109H38.0796H38.0502H38.0209H37.9916H37.9624H37.9333H37.9042H37.8751H37.8461H37.8172H37.7884H37.7596H37.7308H37.7021H37.6735H37.6449H37.6164H37.588H37.5596H37.5313H37.503H37.4748H37.4466H37.4185H37.3905H37.3625H37.3346H37.3068H37.279H37.2513H37.2236H37.196H37.1685H37.141H37.1135H37.0862H37.0589H37.0317H37.0045H36.9774H36.9503H36.9233H36.8964H36.8695H36.8427H36.816H36.7893H36.7627H36.7362H36.7097H36.6833H36.6569H36.6306H36.6044H36.5782H36.5521H36.5261H36.5001H36.4742H36.4483H36.4225H36.3968H36.3712H36.3456H36.3201H36.2946H36.2692H36.2439H36.2186H36.1934H36.1683H36.1432H36.1182H36.0933H36.0684H36.0436H36.0189H35.9942H35.9696H35.9451H35.9206H35.8962H35.8719H35.8476H35.8234H35.7993H35.7752H35.7512H35.7273H35.7035H35.6797H35.656H35.6323H35.6087H35.5852H35.5618H35.5384H35.5151H35.4918H35.4687H35.4456H35.4225H35.3996H35.3767H35.3538H35.3311H35.3084H35.2858H35.2633H35.2408H35.2184H35.1961H35.1738H35.1516H35.1295H35.1074H35.0855H35.0636H35.0417H35.02H34.9983H34.9767H34.9551H34.9337H34.9123H34.8909H34.8697H34.8485H34.8274H34.8064H34.7854H34.7645H34.7437H34.7229H34.7023H34.6817H34.6612H34.6407H34.6203H34.6H34.5798H34.5597H34.5396H34.5196H34.4996H34.4798H34.46H34.4403H34.4207H34.4011H34.3817H34.3623H34.3429H34.3237H34.3045H34.2854H34.2664H34.2474H34.2286H34.2098H34.1911H34.1724H34.1539H34.1354H34.117H34.0986H34.0804H34.0622H34.0441H34.0261H34.0082H33.9903H33.9725H33.9548H33.9372H33.9196H33.9021H33.8847H33.8674H33.8502H33.833H33.816H33.799H33.782H33.7652H33.7484H33.7318H33.7152H33.6986H33.6822H33.6658H33.6496H33.6334H33.6173H33.6012H33.5853H33.5694H33.5536H33.5379H33.529C33.4279 80.4254 33.5098 76.3727 35.1741 72.7553C36.0709 70.8059 37.4122 69.0153 39.4124 67.7048C41.4094 66.3963 44.1645 65.5 48 65.5C51.8355 65.5 54.5905 66.3963 56.5876 67.7048C58.5878 69.0153 59.9291 70.8059 60.8259 72.7553Z" stroke="black" stroke-width="3"/>
<path d="M62.6 61.3077H69.2V71L79.1 61.3077H85.7C87.5225 61.3077 89 59.8612 89 58.0769V32.2308C89 30.4465 87.5225 29 85.7 29H59.3C57.4775 29 56 30.4465 56 32.2308V42" stroke="black" stroke-width="3" stroke-linecap="round" stroke-linejoin="round"/>
<path fill-rule="evenodd" clip-rule="evenodd" d="M73.0002 53.7475L65.3301 45.7473C63.9489 44.3663 63.6058 42.2568 64.478 40.5092V40.5092C65.1308 39.2043 66.3709 38.2925 67.8112 38.0587C69.2514 37.825 70.7162 38.2977 71.7482 39.3292L73.0002 40.5812L74.2523 39.3292C75.2838 38.2976 76.7484 37.8249 78.1884 38.0587C79.6284 38.2925 80.8682 39.2043 81.5204 40.5092V40.5092C82.3945 42.2561 82.052 44.3665 80.6704 45.7473L73.0002 53.7475Z" stroke="black" stroke-width="3" stroke-linecap="round" stroke-linejoin="round"/>
<defs>
<filter id="filter0_d" x="0" y="0" width="120" height="120" filterUnits="userSpaceOnUse" color-interpolation-filters="sRGB">
<feFlood flood-opacity="0" result="BackgroundImageFix"/>
<feColorMatrix in="SourceAlpha" type="matrix" values="0 0 0 0 0 0 0 0 0 0 0 0 0 0 0 0 0 0 127 0"/>
<feOffset dy="4"/>
<feGaussianBlur stdDeviation="2"/>
<feColorMatrix type="matrix" values="0 0 0 0 0.768627 0 0 0 0 0.768627 0 0 0 0 0.768627 0 0 0 0.3 0"/>
<feBlend mode="normal" in2="BackgroundImageFix" result="effect1_dropShadow"/>
<feBlend mode="normal" in="SourceGraphic" in2="effect1_dropShadow" result="shape"/>
</filter>
</defs>
</svg>
