<svg width="12" height="12" viewBox="0 0 12 12" fill="none" xmlns="http://www.w3.org/2000/svg">
<path fill-rule="evenodd" clip-rule="evenodd" d="M1.88985 0.000142693L1.89989 0H9.90939C11.0512 0 12 0.894196 12 2.02539V7.01974C11.995 7.57337 11.7611 8.09937 11.3548 8.4825C10.9495 8.86474 10.4056 9.07398 9.84373 9.06814H8.95908V10.38C9.0008 10.8709 8.79124 11.347 8.4046 11.6571C8.01469 11.9699 7.49329 12.076 7.00935 11.9451C7.0088 11.945 7.00825 11.9448 7.0077 11.9447L1.76999 10.5741C1.76601 10.5731 1.76204 10.572 1.7581 10.5708C0.738041 10.2653 0.0228527 9.36078 0.000501975 8.31298L0.000341421 8.30545L0.000421698 1.92507C-0.0102858 1.41944 0.183584 0.960465 0.505738 0.617529C0.510585 0.6121 0.51559 0.606834 0.520745 0.601735C0.865242 0.243246 1.3516 0.0154533 1.88985 0.000142693ZM0.89919 1.25391C0.77149 1.44557 0.700576 1.67317 0.706206 1.91286L0.706401 1.92114L0.706304 8.30151C0.723321 9.02509 1.21832 9.66975 1.95493 9.89286L7.18951 11.2626L7.19262 11.2635C7.46256 11.3367 7.75118 11.2764 7.96291 11.1065C8.17356 10.9375 8.27964 10.684 8.25487 10.4303C8.25375 10.4189 8.2532 10.4075 8.2532 10.396V4.54098C8.23532 3.81165 7.74258 3.16027 7.00471 2.9242L0.89919 1.25391ZM8.95908 8.36226V4.53686L8.95899 4.529C8.93562 3.47985 8.22805 2.5706 7.21118 2.24914C7.20678 2.24775 7.20237 2.24645 7.19792 2.24523L1.67336 0.733875C1.74801 0.717986 1.82548 0.708429 1.9052 0.705882H9.90939C10.687 0.705882 11.2941 1.30925 11.2941 2.02539V7.01482C11.2905 7.37144 11.1398 7.71501 10.8705 7.96894C10.6004 8.22366 10.2333 8.36662 9.84967 8.36228L8.95908 8.36226Z" fill="white"/>
<path fill-rule="evenodd" clip-rule="evenodd" d="M6.21688 6.27161C5.91484 6.27161 5.64673 6.51062 5.64673 6.8336C5.64673 7.15659 5.91484 7.3956 6.21688 7.3956C6.51892 7.3956 6.78703 7.15659 6.78703 6.8336C6.78703 6.51062 6.51892 6.27161 6.21688 6.27161Z" fill="white"/>
<path fill-rule="evenodd" clip-rule="evenodd" d="M8.25293 4.53373C8.25293 4.3388 8.41095 4.18079 8.60587 4.18079H11.6468C11.8417 4.18079 11.9997 4.3388 11.9997 4.53373C11.9997 4.72865 11.8417 4.88667 11.6468 4.88667H8.60587C8.41095 4.88667 8.25293 4.72865 8.25293 4.53373Z" fill="white"/>
</svg>
