<svg width="24" height="24" viewBox="0 0 24 24" fill="none" xmlns="http://www.w3.org/2000/svg">
<path fill-rule="evenodd" clip-rule="evenodd" d="M12.4999 4.86251C12.4999 4.38616 12.1641 4 11.7499 4C11.3357 4 10.9999 4.38616 10.9999 4.86251V11H4.86251C4.38616 11 4 11.3358 4 11.75C4 12.1642 4.38616 12.5 4.86251 12.5H10.9999V19.1375C10.9999 19.6138 11.3357 20 11.7499 20C12.1641 20 12.4999 19.6138 12.4999 19.1375V12.5H19.1375C19.6138 12.5 20 12.1642 20 11.75C20 11.3358 19.6138 11 19.1375 11H12.4999V4.86251Z" fill="#0A0806"/>
</svg>
