<svg width="24" height="24" viewBox="0 0 24 24" fill="none" xmlns="http://www.w3.org/2000/svg">
<path fill-rule="evenodd" clip-rule="evenodd" d="M12.24 0.959961C12.6377 0.959961 12.96 1.28232 12.96 1.67996V3.15225C16.9967 3.51601 20.16 6.90857 20.16 11.04C20.16 14.3766 20.5159 16.2774 20.8463 17.3187C21.0109 17.8374 21.1669 18.1356 21.264 18.2896C21.3125 18.3664 21.3462 18.4072 21.359 18.4219C21.3599 18.4229 21.3607 18.4238 21.3614 18.4246C21.5767 18.618 21.6561 18.9233 21.5592 19.1988C21.4579 19.4871 21.1856 19.68 20.88 19.68H3.60001C3.32461 19.68 3.07333 19.5229 2.95272 19.2753C2.83365 19.0308 2.86254 18.7405 3.02667 18.5244C3.02696 18.524 3.02733 18.5235 3.02777 18.5229C3.03142 18.5177 3.04027 18.5049 3.05362 18.4838C3.0803 18.4417 3.12507 18.3664 3.18226 18.2531C3.29657 18.0266 3.46098 17.6473 3.62945 17.0764C3.96656 15.9341 4.32001 14.0243 4.32001 11.04C4.32001 6.90857 7.48333 3.51601 11.52 3.15225V1.67996C11.52 1.28232 11.8424 0.959961 12.24 0.959961ZM4.757 18.24H19.6447C19.5876 18.094 19.5303 17.9326 19.4737 17.7543C19.0842 16.5266 18.72 14.4675 18.72 11.04C18.72 7.46116 15.8188 4.55996 12.24 4.55996C8.66121 4.55996 5.76001 7.46116 5.76001 11.04C5.76001 14.1363 5.39347 16.1865 5.01057 17.484C4.92557 17.772 4.83976 18.023 4.757 18.24ZM10.1172 21.1491C10.4988 21.0371 10.8989 21.2556 11.0109 21.6372C11.1713 22.1837 11.6728 22.5591 12.2424 22.5591C12.812 22.5591 13.3135 22.1837 13.474 21.6372C13.586 21.2556 13.9861 21.0371 14.3676 21.1491C14.7492 21.2611 14.9677 21.6612 14.8557 22.0428C14.5152 23.2025 13.4511 23.9991 12.2424 23.9991C11.0337 23.9991 9.96962 23.2025 9.62916 22.0428C9.51716 21.6612 9.73566 21.2611 10.1172 21.1491Z" fill="white"/>
</svg>
