<svg width="10" height="10" viewBox="0 0 10 10" fill="none" xmlns="http://www.w3.org/2000/svg">
<path fill-rule="evenodd" clip-rule="evenodd" d="M4.89848 0.0853215C5.01213 -0.0191793 5.18381 -0.0287467 5.30837 0.0624785L5.31014 0.0637668L5.31718 0.0688579C5.32363 0.0735017 5.33354 0.0806068 5.34676 0.0899578C5.3732 0.108662 5.41281 0.136336 5.46419 0.171257C5.56701 0.241132 5.71672 0.339839 5.90217 0.453673C6.27403 0.68193 6.78506 0.968172 7.34712 1.20509C7.90778 1.44141 8.35924 1.56161 8.66604 1.62266C8.81948 1.6532 8.93684 1.66896 9.01368 1.67705C9.0521 1.68109 9.08039 1.68321 9.098 1.6843C9.1068 1.68485 9.11294 1.68513 9.11633 1.68527L9.11858 1.68537L9.11933 1.68538C9.29473 1.68962 9.43484 1.83304 9.43484 2.00863V5.99597C9.43484 6.49455 9.22376 6.95495 8.92764 7.35866C8.63094 7.76315 8.23282 8.13296 7.818 8.45772C7.09703 9.02217 6.28523 9.48051 5.78558 9.7626C5.71145 9.80445 5.64419 9.84243 5.58512 9.87629L5.42431 9.59578L5.58612 9.87572C5.29966 10.0413 4.93575 10.0414 4.64918 9.87609C4.55233 9.82058 4.42852 9.75508 4.28536 9.67933C3.78842 9.41641 3.0583 9.03011 2.41309 8.51022C1.5734 7.83361 0.799805 6.87426 0.799805 5.55375V2.00863C0.799805 1.9226 0.834088 1.84011 0.895069 1.77943C0.955977 1.71882 1.0385 1.68495 1.12442 1.68529L1.12612 1.68529L1.13437 1.68524C1.1421 1.68518 1.15422 1.68501 1.17037 1.68464C1.2027 1.68388 1.25112 1.68225 1.31285 1.67875C1.43649 1.67175 1.6126 1.65731 1.8192 1.62763C2.23599 1.56776 2.76021 1.44818 3.2267 1.21406C3.71459 0.969192 4.13454 0.685625 4.4332 0.462363C4.58214 0.351025 4.69993 0.255421 4.77986 0.188228C4.8198 0.15465 4.85021 0.128222 4.87027 0.110537C4.88029 0.101697 4.88772 0.0950462 4.89245 0.0907857L4.8975 0.0862145L4.89848 0.0853215ZM1.44648 2.31811V5.55375C1.44648 6.59263 2.04878 7.38617 2.81884 8.00667C3.40915 8.48233 4.05287 8.82342 4.54868 9.08614C4.7067 9.16987 4.8497 9.24564 4.97116 9.31527L4.97216 9.31584C5.0586 9.36582 5.17605 9.36582 5.26249 9.31585L5.26349 9.31527C5.32635 9.27923 5.39643 9.23963 5.47252 9.19663C5.97525 8.91252 6.74033 8.48014 7.41936 7.94853C7.80942 7.64315 8.15771 7.31494 8.4062 6.97617C8.65527 6.63662 8.78817 6.30851 8.78817 5.99597V2.30011C8.71655 2.28957 8.63352 2.27555 8.53982 2.2569C8.19257 2.1878 7.69904 2.0552 7.09594 1.80099C6.49425 1.54737 5.95317 1.24377 5.56387 1.00481C5.38987 0.897998 5.24527 0.803541 5.13808 0.73139C5.05528 0.799554 4.94822 0.884753 4.82039 0.980313C4.5011 1.219 4.04826 1.52528 3.51678 1.79203C2.9639 2.06951 2.36382 2.20272 1.91115 2.26774C1.73209 2.29346 1.57349 2.30887 1.44648 2.31811Z" fill="#4C4C4C"/>
<path fill-rule="evenodd" clip-rule="evenodd" d="M5.0998 2C5.26549 2 5.3998 2.13431 5.3998 2.3V7.7C5.3998 7.86569 5.26549 8 5.0998 8C4.93412 8 4.7998 7.86569 4.7998 7.7L4.7998 2.3C4.7998 2.13431 4.93412 2 5.0998 2Z" fill="#4C4C4C"/>
</svg>
