<svg width="17" height="20" viewBox="0 0 17 20" fill="none" xmlns="http://www.w3.org/2000/svg">
<path fill-rule="evenodd" clip-rule="evenodd" d="M8.12529 0C8.47048 0 8.75031 0.279832 8.75031 0.625022V1.90309C12.2545 2.21887 15.0005 5.16391 15.0005 8.75031C15.0005 11.6468 15.3094 13.2969 15.5963 14.2008C15.7392 14.6511 15.8746 14.9099 15.9589 15.0436C16.001 15.1103 16.0302 15.1457 16.0414 15.1584C16.0422 15.1593 16.0429 15.1601 16.0435 15.1608C16.2304 15.3287 16.2993 15.5938 16.2152 15.8329C16.1272 16.0831 15.8908 16.2506 15.6256 16.2506H0.625028C0.385954 16.2506 0.167824 16.1142 0.0631269 15.8993C-0.0402387 15.6871 -0.0151611 15.435 0.127318 15.2475C0.127569 15.2471 0.127888 15.2467 0.128274 15.2461C0.13144 15.2416 0.139122 15.2305 0.15071 15.2122C0.173873 15.1756 0.212741 15.1103 0.262379 15.0119C0.361613 14.8153 0.504333 14.4861 0.650586 13.9905C0.943222 12.9988 1.25005 11.341 1.25005 8.75031C1.25005 5.16391 3.99608 2.21887 7.50027 1.90309V0.625022C7.50027 0.279832 7.7801 0 8.12529 0ZM1.62939 15.0005H14.5532C14.5037 14.8738 14.4539 14.7337 14.4048 14.5789C14.0666 13.5132 13.7505 11.7257 13.7505 8.75031C13.7505 5.6436 11.232 3.12511 8.12529 3.12511C5.01858 3.12511 2.50009 5.6436 2.50009 8.75031C2.50009 11.4382 2.1819 13.2179 1.84952 14.3443C1.77572 14.5943 1.70124 14.8122 1.62939 15.0005ZM6.28252 17.5259C6.61373 17.4287 6.96105 17.6184 7.05828 17.9496C7.19757 18.4241 7.63289 18.75 8.12738 18.75C8.62186 18.75 9.05719 18.4241 9.19647 17.9496C9.2937 17.6184 9.64102 17.4287 9.97224 17.5259C10.3034 17.6232 10.4931 17.9705 10.3959 18.3017C10.1004 19.3085 9.17663 20 8.12738 20C7.07812 20 6.1544 19.3085 5.85885 18.3017C5.76162 17.9705 5.9513 17.6232 6.28252 17.5259Z" fill="#FF9900"/>
</svg>
