<svg width="14" height="12" viewBox="0 0 14 12" fill="none" xmlns="http://www.w3.org/2000/svg">
<path fill-rule="evenodd" clip-rule="evenodd" d="M0.333252 2.31375C0.333252 1.40411 1.07067 0.666687 1.98031 0.666687H12.0195C12.9292 0.666687 13.6666 1.40411 13.6666 2.31375V9.84316C13.6666 10.7528 12.9292 11.4902 12.0195 11.4902H1.98031C1.07067 11.4902 0.333252 10.7528 0.333252 9.84316V2.31375ZM1.11757 9.84316V4.1961H12.8823V9.84316C12.8823 10.3196 12.496 10.7059 12.0195 10.7059H1.98031C1.50382 10.7059 1.11757 10.3196 1.11757 9.84316ZM1.98031 2.9412C2.32684 2.9412 2.60776 2.66027 2.60776 2.31375C2.60776 1.96722 2.32684 1.68629 1.98031 1.68629C1.63378 1.68629 1.35286 1.96722 1.35286 2.31375C1.35286 2.66027 1.63378 2.9412 1.98031 2.9412ZM4.49011 2.31375C4.49011 2.66027 4.20919 2.9412 3.86266 2.9412C3.51614 2.9412 3.23521 2.66027 3.23521 2.31375C3.23521 1.96722 3.51614 1.68629 3.86266 1.68629C4.20919 1.68629 4.49011 1.96722 4.49011 2.31375ZM5.74502 2.9412C6.09154 2.9412 6.37247 2.66027 6.37247 2.31375C6.37247 1.96722 6.09154 1.68629 5.74502 1.68629C5.39849 1.68629 5.11757 1.96722 5.11757 2.31375C5.11757 2.66027 5.39849 2.9412 5.74502 2.9412Z" fill="black"/>
</svg>
