<svg width="120" height="120" viewBox="0 0 120 120" fill="none" xmlns="http://www.w3.org/2000/svg">
<g filter="url(#filter0_d)">
<circle cx="60" cy="56" r="56" fill="#D7F6EE"/>
</g>
<line x1="36.5" y1="49.5" x2="43.5" y2="49.5" stroke="black" stroke-width="3" stroke-linecap="round" stroke-linejoin="round"/>
<line x1="27.5" y1="49.5" x2="29.5" y2="49.5" stroke="black" stroke-width="3" stroke-linecap="round" stroke-linejoin="round"/>
<line x1="21.5" y1="57.5" x2="41.5" y2="57.5" stroke="black" stroke-width="3" stroke-linecap="round" stroke-linejoin="round"/>
<line x1="33.5" y1="65.5" x2="42.5" y2="65.5" stroke="black" stroke-width="3" stroke-linecap="round" stroke-linejoin="round"/>
<path fill-rule="evenodd" clip-rule="evenodd" d="M72 79.5C84.4264 79.5 94.5 69.4264 94.5 57C94.5 44.5736 84.4264 34.5 72 34.5C59.5736 34.5 49.5 44.5736 49.5 57C49.5 69.4264 59.5736 79.5 72 79.5Z" stroke="black" stroke-width="3" stroke-linecap="round" stroke-linejoin="round"/>
<path fill-rule="evenodd" clip-rule="evenodd" d="M72 58.5C73.6569 58.5 75 57.1569 75 55.5C75 53.8431 73.6569 52.5 72 52.5C70.3431 52.5 69 53.8431 69 55.5C69 57.1569 70.3431 58.5 72 58.5Z" stroke="black" stroke-width="3" stroke-linecap="round" stroke-linejoin="round"/>
<path fill-rule="evenodd" clip-rule="evenodd" d="M81 67.5C81 69.1569 79.6569 70.5 78 70.5H66C64.3431 70.5 63 69.1569 63 67.5C63 65.8431 64.3431 64.5 66 64.5H78C79.6569 64.5 81 65.8431 81 67.5Z" stroke="black" stroke-width="3" stroke-linecap="round" stroke-linejoin="round"/>
<path d="M66.356 39.9961L67.382 42.8141" stroke="black" stroke-width="3" stroke-linecap="round" stroke-linejoin="round"/>
<path d="M57.71 47.25L60.308 48.75" stroke="black" stroke-width="3" stroke-linecap="round" stroke-linejoin="round"/>
<path d="M55.75 58.3658L58.706 57.8438" stroke="black" stroke-width="3" stroke-linecap="round" stroke-linejoin="round"/>
<path d="M77.6439 39.9961L76.6179 42.8141" stroke="black" stroke-width="3" stroke-linecap="round" stroke-linejoin="round"/>
<path d="M86.2899 47.25L74.5979 54" stroke="black" stroke-width="3" stroke-linecap="round" stroke-linejoin="round"/>
<path d="M88.2499 58.3658L85.2939 57.8438" stroke="black" stroke-width="3" stroke-linecap="round" stroke-linejoin="round"/>
<defs>
<filter id="filter0_d" x="0" y="0" width="120" height="120" filterUnits="userSpaceOnUse" color-interpolation-filters="sRGB">
<feFlood flood-opacity="0" result="BackgroundImageFix"/>
<feColorMatrix in="SourceAlpha" type="matrix" values="0 0 0 0 0 0 0 0 0 0 0 0 0 0 0 0 0 0 127 0"/>
<feOffset dy="4"/>
<feGaussianBlur stdDeviation="2"/>
<feColorMatrix type="matrix" values="0 0 0 0 0.768627 0 0 0 0 0.768627 0 0 0 0 0.768627 0 0 0 0.3 0"/>
<feBlend mode="normal" in2="BackgroundImageFix" result="effect1_dropShadow"/>
<feBlend mode="normal" in="SourceGraphic" in2="effect1_dropShadow" result="shape"/>
</filter>
</defs>
</svg>
