<svg width="16" height="16" viewBox="0 0 16 16" fill="none" xmlns="http://www.w3.org/2000/svg">
<path fill-rule="evenodd" clip-rule="evenodd" d="M11.3335 3.00001C11.3335 2.07954 12.0797 1.33334 13.0002 1.33334C13.9206 1.33334 14.6668 2.07954 14.6668 3.00001C14.6668 3.92049 13.9206 4.66668 13.0002 4.66668C12.5742 4.66668 12.1856 4.5069 11.891 4.24402L9.48091 5.84694C9.2893 5.97438 9.03066 5.92236 8.90322 5.73075C8.77578 5.53914 8.82781 5.2805 9.01941 5.15307L11.427 3.55179C11.3664 3.37909 11.3335 3.1934 11.3335 3.00001ZM12.3171 3.47743C12.3146 3.47338 12.312 3.46936 12.3093 3.46537C12.306 3.46031 12.3025 3.45535 12.299 3.45048C12.2153 3.32059 12.1668 3.16597 12.1668 3.00001C12.1668 2.53977 12.5399 2.16668 13.0002 2.16668C13.4604 2.16668 13.8335 2.53977 13.8335 3.00001C13.8335 3.46025 13.4604 3.83334 13.0002 3.83334C12.7175 3.83334 12.4677 3.69263 12.3171 3.47743ZM4.66683 3.83334C3.74635 3.83334 3.00016 4.57954 3.00016 5.50001V6.33334H6.3335V5.50001C6.3335 4.57954 5.5873 3.83334 4.66683 3.83334ZM7.16683 6.40447V5.50001C7.16683 4.1193 6.04754 3.00001 4.66683 3.00001C3.28612 3.00001 2.16683 4.1193 2.16683 5.50001V6.40447C1.68133 6.57607 1.3335 7.03909 1.3335 7.58334V10.0833C1.3335 10.7737 1.89314 11.3333 2.5835 11.3333H6.75016C7.44052 11.3333 8.00016 10.7737 8.00016 10.0833V7.58334C8.00016 7.03909 7.65233 6.57607 7.16683 6.40447ZM2.5835 7.16668C2.35338 7.16668 2.16683 7.35323 2.16683 7.58334V10.0833C2.16683 10.3135 2.35338 10.5 2.5835 10.5H6.75016C6.98028 10.5 7.16683 10.3135 7.16683 10.0833V7.58334C7.16683 7.35323 6.98028 7.16668 6.75016 7.16668H2.5835ZM11.386 7.58334C11.571 6.8645 12.2236 6.33334 13.0002 6.33334C13.9206 6.33334 14.6668 7.07954 14.6668 8.00001C14.6668 8.92049 13.9206 9.66668 13.0002 9.66668C12.2236 9.66668 11.571 9.13552 11.386 8.41668H9.25016C9.02004 8.41668 8.8335 8.23013 8.8335 8.00001C8.8335 7.76989 9.02004 7.58334 9.25016 7.58334H11.386ZM13.0002 7.16668C12.5399 7.16668 12.1668 7.53977 12.1668 8.00001C12.1668 8.46025 12.5399 8.83334 13.0002 8.83334C13.4604 8.83334 13.8335 8.46025 13.8335 8.00001C13.8335 7.53977 13.4604 7.16668 13.0002 7.16668ZM4.66638 8.20834C4.83233 8.20808 4.99158 8.27388 5.10893 8.39124C5.22632 8.50862 5.29213 8.66791 5.29183 8.8339C5.29153 9.17882 5.01182 9.45834 4.66683 9.45834C4.32165 9.45834 4.04183 9.17852 4.04183 8.83334C4.04183 8.48832 4.32141 8.20859 4.66638 8.20834ZM4.66683 8.62501L4.66571 8.20835C4.66594 8.20835 4.66616 8.20834 4.66638 8.20834C4.66653 8.20834 4.66668 8.20834 4.66683 8.20834V8.62501ZM4.87516 8.83334L5.29183 8.83446C5.29183 8.83427 5.29183 8.83409 5.29183 8.8339C5.29183 8.83372 5.29183 8.83353 5.29183 8.83334H4.87516ZM4.66743 9.04168C4.6676 9.04168 4.66777 9.04168 4.66794 9.04168L4.66683 9.04168C4.61164 9.04153 4.55873 9.01954 4.51968 8.98049C4.48063 8.94145 4.45864 8.88854 4.4585 8.83334M8.90319 10.2693C9.0306 10.0777 9.28923 10.0256 9.48086 10.153L11.8913 11.7557C12.1859 11.493 12.5744 11.3333 13.0002 11.3333C13.9206 11.3333 14.6668 12.0795 14.6668 13C14.6668 13.9205 13.9206 14.6667 13.0002 14.6667C12.0797 14.6667 11.3335 13.9205 11.3335 13C11.3335 12.8065 11.3665 12.6206 11.4271 12.4478L9.01946 10.847C8.82784 10.7196 8.77578 10.4609 8.90319 10.2693ZM12.3029 12.5435C12.2169 12.6746 12.1668 12.8315 12.1668 13C12.1668 13.4602 12.5399 13.8333 13.0002 13.8333C13.4604 13.8333 13.8335 13.4602 13.8335 13C13.8335 12.5398 13.4604 12.1667 13.0002 12.1667C12.7152 12.1667 12.4636 12.3098 12.3133 12.528C12.312 12.53 12.3107 12.532 12.3094 12.534C12.3072 12.5372 12.3051 12.5404 12.3029 12.5435Z" fill="#48DBB4"/>
</svg>
