<svg width="32" height="32" viewBox="0 0 32 32" fill="none" xmlns="http://www.w3.org/2000/svg">
<path fill-rule="evenodd" clip-rule="evenodd" d="M11.2473 15.2583C11.1525 15.4213 11.2052 15.6301 11.3661 15.7287L15.7593 18.4187C15.9162 18.5147 16.1089 18.6176 16.2881 18.5117L20.8488 15.8184C21.0149 15.7202 21.0692 15.5056 20.9695 15.3404L16.4088 7.78022C16.2434 7.50602 15.9207 7.50278 15.7593 7.78022L11.2473 15.2583ZM20.0381 15.4907L20.19 15.3931L20.1935 15.3989L20.0381 15.4907Z" fill="#12C0A1"/>
<path fill-rule="evenodd" clip-rule="evenodd" d="M16.03 19.899L11.7862 17.2922C11.7862 17.2922 11.4462 17.3832 11.5517 17.5379C11.6572 17.6925 15.6709 23.5734 15.6709 23.5734C15.8199 23.7917 16.2591 23.7761 16.4098 23.564L20.6978 17.5317C20.8063 17.3791 20.6293 17.1866 20.4678 17.2818L16.03 19.899ZM18.6552 18.1382L18.7156 18.0547L18.7113 18.0572L18.6552 18.1382Z" fill="#12C0A1"/>
<path fill-rule="evenodd" clip-rule="evenodd" d="M16.0003 28C22.6277 28 28.0003 22.6274 28.0003 16C28.0003 9.37258 22.6277 4 16.0003 4C9.37291 4 4.00033 9.37258 4.00033 16C4.00033 22.6274 9.37291 28 16.0003 28ZM16.0003 29.3333C23.3641 29.3333 29.3337 23.3638 29.3337 16C29.3337 8.6362 23.3641 2.66667 16.0003 2.66667C8.63653 2.66667 2.66699 8.6362 2.66699 16C2.66699 23.3638 8.63653 29.3333 16.0003 29.3333Z" fill="#12C0A1"/>
</svg>
