<svg width="10" height="10" viewBox="0 0 10 10" fill="none" xmlns="http://www.w3.org/2000/svg">
<path fill-rule="evenodd" clip-rule="evenodd" d="M5.2001 0C4.25956 0 3.3921 0.172832 2.74753 0.466166C2.12953 0.747406 1.6001 1.19958 1.6001 1.80851C1.6001 1.85526 1.60322 1.90108 1.60926 1.94598C1.60327 1.97012 1.6001 1.99534 1.6001 2.02128V7.96052C1.6001 8.60909 2.09515 9.12393 2.73058 9.45794C3.37924 9.79892 4.25292 10 5.2001 10C6.14728 10 7.02095 9.79892 7.66961 9.45794C8.30504 9.12393 8.8001 8.60909 8.8001 7.96052V2.02128C8.8001 1.99534 8.79692 1.97012 8.79094 1.94598C8.79698 1.90108 8.8001 1.85526 8.8001 1.80851C8.8001 1.19958 8.27066 0.747406 7.65266 0.466166C7.00809 0.172832 6.14063 0 5.2001 0ZM8.14555 3.7234V2.8717C7.99497 2.9782 7.82736 3.07136 7.65266 3.15086C7.00809 3.44419 6.14063 3.61702 5.2001 3.61702C4.25956 3.61702 3.3921 3.44419 2.74753 3.15086C2.57284 3.07136 2.40522 2.9782 2.25464 2.8717V3.7234C2.25464 4.01825 2.48976 4.35931 3.03988 4.64542C3.57595 4.92423 4.33911 5.10638 5.2001 5.10638C6.06108 5.10638 6.82424 4.92423 7.36031 4.64542C7.91043 4.35931 8.14555 4.01825 8.14555 3.7234ZM2.25464 4.90254C2.39897 5.01713 2.56041 5.11946 2.73186 5.20862C3.38024 5.54584 4.25345 5.74468 5.2001 5.74468C6.14675 5.74468 7.01996 5.54584 7.66834 5.20862C7.83978 5.11946 8.00123 5.01713 8.14555 4.90254V5.85106C8.14555 6.14591 7.91043 6.48697 7.36031 6.77308C6.82424 7.05189 6.06108 7.23404 5.2001 7.23404C4.33911 7.23404 3.57595 7.05189 3.03988 6.77308C2.48976 6.48697 2.25464 6.14591 2.25464 5.85106V4.90254ZM2.25464 7.96052V7.0302C2.39897 7.14479 2.56041 7.24712 2.73186 7.33628C3.38024 7.6735 4.25345 7.87234 5.2001 7.87234C6.14675 7.87234 7.01996 7.6735 7.66834 7.33628C7.83978 7.24712 8.00123 7.14479 8.14555 7.0302V7.96052C8.14555 8.26215 7.90806 8.60748 7.35904 8.89608C6.82324 9.17772 6.06055 9.3617 5.2001 9.3617C4.33964 9.3617 3.57695 9.17772 3.04116 8.89608C2.49213 8.60748 2.25464 8.26215 2.25464 7.96052ZM2.25464 1.80851C2.25464 1.59489 2.45783 1.30238 3.02433 1.04458C3.56425 0.798871 4.33315 0.638298 5.2001 0.638298C6.06704 0.638298 6.83595 0.798871 7.37587 1.04458C7.94236 1.30238 8.14555 1.59489 8.14555 1.80851C8.14555 2.02214 7.94236 2.31464 7.37587 2.57244C6.83595 2.81815 6.06704 2.97872 5.2001 2.97872C4.33315 2.97872 3.56425 2.81815 3.02433 2.57244C2.45783 2.31464 2.25464 2.02214 2.25464 1.80851Z" fill="#4C4C4C"/>
</svg>
