<svg class="grant-context-icon" width="60" height="61" viewBox="0 0 60 61" fill="none" xmlns="http://www.w3.org/2000/svg">
<circle cx="30" cy="30" r="30" fill="#D7F6EE"/>
<path fill-rule="evenodd" clip-rule="evenodd" d="M39.2 38.3925C39.2 39.1424 38.5939 39.7503 37.8462 39.7503H22.9539C22.2062 39.7503 21.6001 39.1424 21.6001 38.3925V20.7414C21.6001 19.9916 22.2062 19.3837 22.9539 19.3837H32.5472C32.9061 19.3837 33.2502 19.5267 33.504 19.781L38.8038 25.0963C39.0574 25.3508 39.1999 25.6959 39.2 26.0558V38.3925Z" stroke="#4C4C4C" stroke-width="1.7" stroke-linecap="round" stroke-linejoin="round"/>
<path d="M39.1999 26.1725H33.7845C33.0368 26.1725 32.4307 25.5646 32.4307 24.8148V19.3837" stroke="#4C4C4C" stroke-width="1.7" stroke-linecap="round" stroke-linejoin="round"/>
<path d="M25.2002 31.4186H35.6002" stroke="#4C4C4C" stroke-width="1.7" stroke-linecap="round" stroke-linejoin="round"/>
<path d="M25.2002 35.5536H35.6002" stroke="#4C4C4C" stroke-width="1.7" stroke-linecap="round" stroke-linejoin="round"/>
<path d="M29.5998 23.6197V22.593H27.2821V23.6064H27.6436L26.9279 24.4429H26.6315V23.6064H27.039V22.593H26.4892V22.9734H26.1913V22.593H25.6475V22.9734H25.3496V22.593H24.7998V23.6197H25.2859V24.8976V26.1754H24.7998V27.2021H27.039V26.1888H26.6315V25.3522H26.9279L27.6436 26.1888H27.2821V27.2021H29.5998V26.1754H29.2397L28.1475 24.8976L29.2397 23.6197H29.5998Z" fill="#4C4C4C"/>
</svg>
