<svg width="120" height="131" viewBox="0 0 120 131" fill="none" xmlns="http://www.w3.org/2000/svg">
<g filter="url(#filter0_d_11614:68911)">
<ellipse cx="91.1154" cy="101.574" rx="21.1154" ry="21.1347" fill="#48DBB4"/>
<path d="M91.1154 80.439C79.4576 80.439 70 89.9052 70 101.574C70 113.242 79.4576 122.708 91.1154 122.708C102.773 122.708 112.231 113.242 112.231 101.574C112.213 89.9052 102.755 80.439 91.1154 80.439ZM99.9519 96.8495H98.6389L94.611 101.556L98.6389 106.262H99.9697V110.045H91.417V106.298H92.7478L90.104 103.208H89.0216V106.298H90.5298V110.045H82.2434V106.262H84.0355V101.574V96.8495H82.2434V93.0665H84.2839V94.4696H85.3841V93.0665H87.3891V94.4696H88.4893V93.0665H90.5121V96.7962H89.0039V99.8865H90.0862L92.7301 96.7962H91.3993V93.0665H99.9519V96.8495Z" fill="#0A0806"/>
</g>
<path d="M28 121.5C28 122.881 26.8807 124 25.5 124C24.1193 124 23 122.881 23 121.5C23 120.119 24.1193 119 25.5 119C26.8807 119 28 120.119 28 121.5Z" fill="#FF9900"/>
<path d="M110.016 44C110.016 45.1046 109.117 46 108.008 46C106.899 46 106 45.1046 106 44C106 42.8954 106.899 42 108.008 42C109.117 42 110.016 42.8954 110.016 44Z" fill="#FF9900"/>
<path d="M120 29.9881C120 31.6383 118.657 32.9761 117 32.9761C115.343 32.9761 114 31.6383 114 29.9881C114 28.3378 115.343 27 117 27C118.657 27 120 28.3378 120 29.9881Z" fill="#FFCE88"/>
<path d="M38.0556 106.944C38.0556 105.871 38.9261 105 40 105C41.0739 105 41.9444 105.871 41.9444 106.944L41.9444 110.056H45.0556C46.1294 110.056 47 110.926 47 112C47 113.074 46.1294 113.944 45.0556 113.944H41.9444L41.9444 117.056C41.9444 118.129 41.0739 119 40 119C38.9261 119 38.0556 118.129 38.0556 117.056V113.944H34.9444C33.8706 113.944 33 113.074 33 112C33 110.926 33.8706 110.056 34.9444 110.056H38.0556V106.944Z" fill="#FFCE88"/>
<path d="M95.8333 4.16667C95.8333 1.86548 97.6988 1.51252e-06 100 1.31134e-06C102.301 1.11017e-06 104.167 1.86548 104.167 4.16667L104.167 10.8333L110.833 10.8333C113.135 10.8333 115 12.6988 115 15C115 17.3012 113.135 19.1667 110.833 19.1667L104.167 19.1667L104.167 25.8333C104.167 28.1345 102.301 30 100 30C97.6988 30 95.8333 28.1345 95.8333 25.8333L95.8333 19.1667L89.1667 19.1667C86.8655 19.1667 85 17.3012 85 15C85 12.6988 86.8655 10.8333 89.1667 10.8333L95.8333 10.8333L95.8333 4.16667Z" fill="#FF9900"/>
<path d="M51.3716 12.0582L63.2594 13.6231L63.2589 13.6267C86.5437 16.959 102.676 39.1087 99.3581 63.3367C96.0399 87.5647 74.5188 104.758 51.1621 101.951L51.126 101.946C50.9806 101.928 50.8351 101.91 50.6896 101.891C50.3873 101.851 50.087 101.809 49.7887 101.764L39.2809 100.338L39.4578 99.0465L51.3716 12.0582Z" fill="#D7DCE1"/>
<mask id="mask0_11614:68911" style="mask-type:alpha" maskUnits="userSpaceOnUse" x="39" y="12" width="61" height="91">
<path d="M51.766 12.1121L63.567 13.6656L63.5665 13.6692C86.681 16.979 102.676 39.1106 99.3579 63.3386C96.0396 87.5666 74.656 104.778 51.4697 101.993L51.4339 101.988C51.2895 101.971 51.1451 101.953 51.0006 101.934C50.7006 101.894 50.4025 101.852 50.1063 101.808L39.6753 100.392L39.8522 99.1004L51.766 12.1121Z" fill="#EDF2F7"/>
</mask>
<g mask="url(#mask0_11614:68911)">
<rect width="44.863" height="88.6835" transform="matrix(0.389327 -0.922526 -0.946066 -0.320878 103.467 114.642)" fill="#77808E"/>
<rect width="44.863" height="88.6835" transform="matrix(0.389327 -0.922526 -0.946066 -0.320878 88.0667 140.901)" fill="#2D3748"/>
</g>
<ellipse rx="42.2505" ry="43.8124" transform="matrix(-0.991447 -0.130513 -0.135693 0.990751 47.8776 57.0107)" fill="#EDF2F7"/>
<ellipse cx="47.2039" cy="56.6263" rx="44.9393" ry="45.0194" fill="#E8EEF4"/>
<g clip-path="url(#clip0_11614:68911)">
<path d="M73.4185 41.6196H55.9444V47.4543H73.4185V41.6196ZM44.2915 47.4543H38.4669V53.2925H44.2915V47.4543ZM38.4669 76.6347H44.2915V59.1272H38.4669V76.6347ZM50.1162 47.4543V53.2925H55.9444V47.4543H50.1162ZM50.1162 76.6347H55.9444V59.1272H50.1162V76.6347ZM50.1162 41.6196H44.2915V47.4543H50.1162V41.6196ZM20.9893 41.6196V47.4543H38.4669V41.6196H20.9893ZM73.4185 59.1272V53.2925H55.9444V59.1272H73.4185ZM44.2915 53.2925V59.1272H50.1162V53.2925H44.2915ZM20.9893 53.2925V59.1272H38.4669V53.2925H20.9893Z" fill="white"/>
</g>
<ellipse cx="47.1311" cy="57.1688" rx="39.2395" ry="39.2816" stroke="#D7DCE1" stroke-width="1.5" stroke-linecap="round" stroke-dasharray="0.5 5"/>
<path d="M13.3056 86.1944C13.3056 84.4302 14.7358 83 16.5 83C18.2642 83 19.6944 84.4302 19.6944 86.1944L19.6944 91.3056L24.8056 91.3056C26.5698 91.3056 28 92.7358 28 94.5C28 96.2642 26.5698 97.6944 24.8056 97.6944L19.6944 97.6944L19.6944 102.806C19.6944 104.57 18.2642 106 16.5 106C14.7358 106 13.3056 104.57 13.3056 102.806L13.3056 97.6944L8.19444 97.6944C6.4302 97.6944 5 96.2642 5 94.5C5 92.7358 6.4302 91.3056 8.19444 91.3056L13.3056 91.3056L13.3056 86.1944Z" fill="#FF9900"/>
<defs>
<filter id="filter0_d_11614:68911" x="66" y="80.439" width="50.2308" height="50.2695" filterUnits="userSpaceOnUse" color-interpolation-filters="sRGB">
<feFlood flood-opacity="0" result="BackgroundImageFix"/>
<feColorMatrix in="SourceAlpha" type="matrix" values="0 0 0 0 0 0 0 0 0 0 0 0 0 0 0 0 0 0 127 0" result="hardAlpha"/>
<feOffset dy="4"/>
<feGaussianBlur stdDeviation="2"/>
<feColorMatrix type="matrix" values="0 0 0 0 0.768627 0 0 0 0 0.768627 0 0 0 0 0.768627 0 0 0 0.3 0"/>
<feBlend mode="normal" in2="BackgroundImageFix" result="effect1_dropShadow_11614:68911"/>
<feBlend mode="normal" in="SourceGraphic" in2="effect1_dropShadow_11614:68911" result="shape"/>
</filter>
<clipPath id="clip0_11614:68911">
<rect width="52.4292" height="35.015" fill="white" transform="translate(20.9893 41.6196)"/>
</clipPath>
</defs>
</svg>
