<svg width="150" height="150" viewBox="0 0 150 150" fill="none" xmlns="http://www.w3.org/2000/svg">
<path d="M100.001 58.7886H104.471V45.9512H75.5626V58.5984H80.0319L71.0933 68.9635H67.3847V58.5984H72.4246V45.9512H65.5779V50.7058H61.8693V45.9512H55.1177V50.7058H51.4091V45.9512H44.5625V58.7886H50.6484V74.669V90.5495H44.5625V103.387H72.4246V90.7397H67.3847V80.3746H71.0933L80.0319 90.7397H75.5626V103.292H104.376V90.5495H99.9062L86.308 74.669L100.001 58.7886Z" fill="#48DBB4"/>
<path fill-rule="evenodd" clip-rule="evenodd" d="M72.3731 5.15817C74.1777 3.57035 76.8822 3.62534 78.6265 5.26051C81.6002 8.04827 88.7037 14.29 98.2613 19.9591C107.837 25.6389 119.722 30.6519 132.292 31.1772C134.692 31.2775 136.705 33.2331 136.712 35.7332C136.728 41.5251 136.802 46.932 136.871 51.9784C136.991 60.7485 137.096 68.4298 136.855 75.1514C136.474 85.7768 135.229 94.4271 131.634 101.731L131.594 101.812L131.548 101.89C123.335 115.668 110.992 125.866 100.139 132.847C89.2697 139.839 79.7548 143.693 77.037 144.73C76.0279 145.116 74.957 145.112 73.9504 144.722C71.2313 143.666 61.6715 139.74 50.7245 132.721C39.7959 125.714 27.3416 115.533 18.9935 101.914C15.0611 95.4992 13.6792 86.7343 13.212 75.9138C12.898 68.6416 12.9958 60.1977 13.1067 50.635C13.1612 45.9356 13.2188 40.966 13.2321 35.7324C13.2385 33.2313 15.2498 31.2806 17.6442 31.1745C29.866 30.6324 41.9293 25.5884 51.8279 19.8744C61.6996 14.1759 69.2377 7.91691 72.3731 5.15817ZM75.5425 8.55012C75.4835 8.49476 75.4028 8.49848 75.3517 8.54346C72.0867 11.4161 64.3016 17.8803 54.0822 23.7795C43.8897 29.6632 31.0941 35.0915 17.844 35.6791C17.8099 35.6807 17.7796 35.6947 17.7575 35.7171C17.7473 35.7276 17.7432 35.7356 17.7421 35.7383L17.7419 35.7386C17.7416 35.7394 17.7413 35.7401 17.7413 35.744C17.7275 41.1009 17.6691 46.1325 17.6141 50.8567C17.504 60.3314 17.4082 68.5702 17.7169 75.7193C18.1806 86.4588 19.554 94.2006 22.8378 99.5571L22.8378 99.5572C30.6928 112.372 42.5295 122.11 53.1584 128.925C63.6652 135.662 72.8516 139.454 75.5055 140.488C78.1515 139.474 87.2817 135.756 97.6998 129.055C108.217 122.289 119.907 112.573 127.628 99.6594C130.763 93.2453 131.976 85.3971 132.349 74.99C132.586 68.3694 132.483 60.8826 132.364 52.2115C132.294 47.1478 132.219 41.6802 132.203 35.7455C132.203 35.742 132.203 35.7414 132.202 35.7405L132.202 35.7402C132.201 35.7375 132.197 35.7294 132.187 35.719C132.165 35.6966 132.136 35.6837 132.104 35.6824C118.504 35.114 105.877 29.7191 95.9609 23.8373C86.0265 17.9447 78.6583 11.471 75.5425 8.55012Z" fill="#48DBB4"/>
</svg>
