<svg class="keep-green-form-icon" width="53" height="55" viewBox="0 0 53 55" fill="none" xmlns="http://www.w3.org/2000/svg">
<circle opacity="0.5" cx="25" cy="30" r="25" fill="#E6E6E6"/>
<circle cx="28" cy="25" r="25" fill="#EDFFFA"/>
<path d="M28 2C40.6667 2 51 12.3333 51 25C51 37.6667 40.6667 48 28 48C15.3333 48 5 37.6667 5 25C5 12.3333 15.3333 2 28 2ZM28 0C14.2 0 3 11.2 3 25C3 38.8 14.2 50 28 50C41.8 50 53 38.8 53 25C53 11.2 41.8 0 28 0ZM38.5 19.4333H36.9333L32.1333 25L36.9 30.5667H38.4667V35.0333H28.3667V30.6333H29.9333L26.8 27H25.5V30.6333H27.2667V35.0667H17.5V30.5667H19.6333V25V19.4333H17.5V14.9333H19.9V16.6H21.2V14.9333H23.5667V16.6H24.8667V14.9333H27.2667V19.3667H25.5V23H26.8L29.9333 19.3667H28.3667V14.9333H38.5V19.4333Z" fill="#48DBB4"/>
</svg>
