<svg width="157" height="157" viewBox="0 0 157 157" fill="none" xmlns="http://www.w3.org/2000/svg">
<circle cx="78.5" cy="78.5" r="78.5" fill="#F4F4F4"/>
<rect x="77.4531" y="11" width="1.8314" height="68.8081" fill="#6D6D6D"/>
<rect x="101" y="20.1572" width="1.8314" height="45" transform="rotate(90 101 20.1572)" fill="#6D6D6D"/>
<path d="M59.9238 19.8955H96.8134V67.2211L78.3686 59.9259L59.9238 67.2211V19.8955Z" fill="#AAAAAA"/>
<path d="M86.8719 35.8624V32.4238H78.5341V35.8176H79.8349L77.26 38.6191H76.1937V35.8176H77.6598V32.4238H75.6819V33.6977H74.6104V32.4238H72.6539V33.6977H71.5823V32.4238H69.6045V35.8624H71.3531V40.1419V44.4213H69.6045V47.8599H77.6598V44.4661H76.1937V41.6646H77.26L79.8349 44.4661H78.5341V47.8599H86.8719V44.4213H85.5765L81.6475 40.1419L85.5765 35.8624H86.8719Z" fill="#0A0806"/>
<line x1="59.9238" y1="23.3193" x2="96.8134" y2="23.3193" stroke="#818181"/>
<rect x="50" y="92" width="56" height="54" fill="#C4C4C4"/>
<path d="M50 90H106V95.5882L50 109V90Z" fill="#AAAAAA"/>
<path d="M73 132C73 129.239 75.2386 127 78 127C80.7614 127 83 129.239 83 132V146H73V132Z" fill="#6D6D6D"/>
<path d="M98.68 74H89V80H83.72V74H74.04V80H68.76V74H59.08V80H53.8V74H45V90H111V74H103.96V80H98.68V74Z" fill="#C4C4C4"/>
</svg>
