<svg width="15" height="15" viewBox="0 0 15 15" fill="none" xmlns="http://www.w3.org/2000/svg">
<path d="M7.40138 3.10461C9.75749 3.10461 11.6675 5.01462 11.6675 7.37074C11.6675 9.72685 9.75749 11.6369 7.40138 11.6369C5.04526 11.6369 3.13525 9.72685 3.13525 7.37074" stroke="#7850CD" stroke-linecap="round" stroke-linejoin="round"/>
<path d="M13.6256 8.83582C13.4928 9.40102 13.2849 9.94587 13.0073 10.4558" stroke="#7850CD" stroke-linecap="round" stroke-linejoin="round"/>
<path d="M11.8462 11.9691C11.4257 12.3695 10.9566 12.7155 10.4497 12.9987" stroke="#7850CD" stroke-linecap="round" stroke-linejoin="round"/>
<path d="M7.9668 1C8.54523 1.05124 9.11388 1.18178 9.65675 1.38793" stroke="#7850CD" stroke-linecap="round" stroke-linejoin="round"/>
<path d="M11.3198 2.31873C11.7804 2.67237 12.1885 3.08947 12.532 3.55761" stroke="#7850CD" stroke-linecap="round" stroke-linejoin="round"/>
<path d="M13.4312 5.23926C13.6295 5.78505 13.7471 6.35685 13.7804 6.93661" stroke="#7850CD" stroke-linecap="round" stroke-linejoin="round"/>
<path d="M8.68156 13.642C5.21807 14.3488 1.83736 12.1141 1.13052 8.65065C0.42369 5.18716 2.6584 1.80644 6.12189 1.09961" stroke="#7850CD" stroke-linecap="round" stroke-linejoin="round"/>
</svg>
