<svg width="26" height="24" viewBox="0 0 26 24" fill="none" xmlns="http://www.w3.org/2000/svg">
<path d="M26 12C26 5.37258 20.6274 0 14 0C7.37258 0 2 5.37258 2 12C2 18.6274 7.37258 24 14 24C20.6274 24 26 18.6274 26 12Z" fill="black"/>
<path d="M20.6017 16.2041H6.9624V18.2906H20.6017V16.2041Z" fill="#F4F4F4"/>
<path d="M12.2937 15.1973H13.0937V14.0002H14.0857V15.198H14.8857V13.9885C15.613 13.9558 16.1584 13.8431 16.5184 13.6584C16.9012 13.4743 17.2238 13.185 17.4482 12.8244C17.6727 12.4638 17.7899 12.0468 17.7861 11.622C17.7861 10.8402 17.389 9.93836 16.3031 9.59582C16.5415 9.4787 16.7592 9.32345 16.9475 9.13618C17.2813 8.82709 17.4566 8.37472 17.4566 7.82709C17.4566 7.53618 17.3839 6.55582 16.4813 5.97982C16.005 5.68891 15.381 5.60673 14.8813 5.58491V4.43945H14.0813V5.58127H13.0915V4.43945H12.2915V5.58127H11.2202V14.0002H12.2937V15.1973ZM13.1388 7.08091H14.2064C14.9271 7.08091 15.5235 7.14854 15.5235 7.97836C15.5271 8.83654 14.89 8.90927 14.2406 8.90927H13.1388V7.08091ZM13.1388 10.4213H14.0253C15.0282 10.4213 15.7955 10.4984 15.7955 11.4664C15.7955 12.3755 15.1664 12.4431 14.2064 12.4431H13.1388V10.4213Z" fill="#F4F4F4"/>
</svg>
