<svg width="19" height="17" viewBox="0 0 19 17" fill="none" xmlns="http://www.w3.org/2000/svg">
<path d="M9.49194 14.0948C9.88278 14.0948 10.2708 14.1005 10.6616 14.0948C10.8271 14.0948 10.9554 14.0319 10.9298 13.8346C10.8984 13.5659 10.8642 13.2971 10.8214 13.0284C10.7871 12.8111 10.5789 12.6225 10.3649 12.6196C9.78008 12.6139 9.19525 12.6139 8.61041 12.6196C8.41357 12.6225 8.17393 12.8197 8.15396 12.9855C8.12258 13.2343 8.0912 13.483 8.07123 13.7317C8.04841 14.0204 8.11402 14.0919 8.40786 14.0976C8.76732 14.1033 9.12963 14.0976 9.49194 14.0976V14.0948Z" fill="#0A0806"/>
<path d="M5.77451 9.52623C6.54156 9.78082 7.31838 10.006 8.0952 10.2117C8.36879 10.2851 8.56422 10.0844 8.56422 9.80529C8.55933 9.78081 8.56422 9.74165 8.54956 9.71227C8.30528 9.21288 8.08054 8.69881 7.80694 8.21411C7.7532 8.11619 7.49426 8.05255 7.37701 8.09661C6.82493 8.31203 6.28262 8.55193 5.75497 8.82121C5.4374 8.98767 5.44717 9.41852 5.77451 9.52623Z" fill="#0A0806"/>
<path d="M13.2256 9.52623C12.4585 9.78082 11.6817 10.006 10.9049 10.2117C10.6313 10.2851 10.4359 10.0844 10.4359 9.80529C10.4408 9.78081 10.4359 9.74165 10.4505 9.71227C10.6948 9.21288 10.9196 8.69881 11.1932 8.21411C11.2469 8.11619 11.5058 8.05255 11.6231 8.09661C12.1752 8.31203 12.7175 8.55193 13.2451 8.82121C13.5627 8.98767 13.5529 9.41852 13.2256 9.52623Z" fill="#0A0806"/>
<path fill-rule="evenodd" clip-rule="evenodd" d="M17.1824 0.673431C17.315 0.733308 17.4183 0.843587 17.4694 0.979855L18.2152 2.96849C18.2527 3.06858 18.2601 3.17747 18.2364 3.28171L17.0274 8.60137L18.2219 12.185C18.258 12.2931 18.2593 12.4098 18.2258 12.5188L17.2315 15.7503C17.1439 16.0349 16.8448 16.1971 16.5586 16.1153L13.3289 15.1926L11.0565 16.7832C10.9646 16.8476 10.8551 16.8821 10.7429 16.8821H8.50568C8.39348 16.8821 8.28399 16.8476 8.19207 16.7832L5.91482 15.1892L2.4321 16.1179C2.14806 16.1936 1.85495 16.0313 1.7685 15.7503L0.774184 12.5188C0.740663 12.4098 0.74202 12.2931 0.778064 12.185L1.97261 8.60137L0.7636 3.28171C0.738003 3.16909 0.748721 3.05125 0.794217 2.94509L1.53996 1.20503C1.65323 0.940719 1.95186 0.809286 2.22327 0.904282L7.10714 2.61364H11.6366L16.7627 0.660827C16.8987 0.609018 17.0497 0.613554 17.1824 0.673431ZM16.6384 1.87862L11.9319 3.67156C11.8697 3.69525 11.8037 3.70739 11.7372 3.70739H7.01421C6.95269 3.70739 6.89161 3.69701 6.83354 3.67668L2.34406 2.10537L1.86953 3.2126L3.07305 8.50806C3.09521 8.60559 3.09021 8.70732 3.05858 8.8022L1.87111 12.3646L2.65904 14.9254L5.87898 14.0668C6.03493 14.0252 6.20128 14.0546 6.3335 14.1472L8.67807 15.7884H10.5705L12.9151 14.1472C13.0501 14.0527 13.2205 14.0241 13.3789 14.0693L16.3437 14.9164L17.1289 12.3646L15.9414 8.8022C15.9098 8.70732 15.9048 8.60559 15.927 8.50806L17.1335 3.1991L16.6384 1.87862Z" fill="#0A0806"/>
</svg>
