<svg width="16" height="16" viewBox="0 0 16 16" fill="none" xmlns="http://www.w3.org/2000/svg">
<path fill-rule="evenodd" clip-rule="evenodd" d="M1.67105 9.77207C1.85747 9.77207 2.0086 9.9232 2.0086 10.1096C2.0086 10.379 2.2357 10.7137 2.81061 11.0012C3.36536 11.2785 4.1554 11.4598 5.04658 11.4598C5.44905 11.4605 5.8511 11.4207 6.24562 11.341C6.42836 11.3042 6.6064 11.4224 6.64328 11.6052C6.68016 11.7879 6.56192 11.9659 6.37918 12.0028C5.94043 12.0914 5.4939 12.1356 5.04631 12.1349C4.07317 12.1349 3.17555 11.9384 2.5087 11.605C1.86196 11.2816 1.3335 10.7724 1.3335 10.1096C1.3335 9.9232 1.48462 9.77207 1.67105 9.77207Z" fill="white"/>
<path fill-rule="evenodd" clip-rule="evenodd" d="M1.67105 8.08431C1.85747 8.08431 2.0086 8.23543 2.0086 8.42186C2.0086 8.69125 2.2357 9.02594 2.81061 9.3134C3.36536 9.59078 4.1554 9.77207 5.04658 9.77207C5.44905 9.7727 5.8511 9.73291 6.24562 9.65329C6.42836 9.6164 6.6064 9.73465 6.64328 9.91739C6.68016 10.1001 6.56192 10.2782 6.37918 10.315C5.94043 10.4036 5.4939 10.4479 5.04631 10.4472C4.07317 10.4471 3.17555 10.2507 2.5087 9.91724C1.86196 9.59387 1.3335 9.08468 1.3335 8.42186C1.3335 8.23543 1.48462 8.08431 1.67105 8.08431Z" fill="white"/>
<path fill-rule="evenodd" clip-rule="evenodd" d="M1.67105 6.39654C1.85747 6.39654 2.0086 6.54767 2.0086 6.7341C2.0086 7.00348 2.2357 7.33818 2.81061 7.62564C3.36536 7.90301 4.1554 8.08431 5.04658 8.08431C5.44905 8.08494 5.8511 8.04514 6.24562 7.96552C6.42836 7.92864 6.6064 8.04688 6.64328 8.22962C6.68016 8.41236 6.56192 8.5904 6.37918 8.62728C5.94043 8.71583 5.4939 8.7601 5.04631 8.75941C4.07317 8.75938 3.17555 8.5629 2.5087 8.22947C1.86196 7.9061 1.3335 7.39692 1.3335 6.7341C1.3335 6.54767 1.48462 6.39654 1.67105 6.39654Z" fill="white"/>
<path fill-rule="evenodd" clip-rule="evenodd" d="M8.41593 7.7704C9.08286 7.43693 9.98058 7.24043 10.9537 7.24043C11.9269 7.24043 12.8246 7.43693 13.4916 7.7704C14.1383 8.09376 14.6668 8.60294 14.6668 9.26574V12.6413C14.6668 13.3041 14.1384 13.8133 13.4916 14.1366C12.8247 14.4701 11.927 14.6666 10.9537 14.6666C9.98051 14.6666 9.08278 14.4701 8.41587 14.1366C7.76913 13.8133 7.24067 13.3041 7.24067 12.6413V9.26574C7.24067 8.60294 7.7692 8.09376 8.41593 7.7704ZM7.91577 12.1392V12.6413C7.91577 12.9107 8.14287 13.2454 8.71779 13.5328C9.27254 13.8102 10.0626 13.9915 10.9537 13.9915C11.8449 13.9915 12.635 13.8102 13.1897 13.5328C13.7646 13.2454 13.9917 12.9107 13.9917 12.6413V12.1392C13.8398 12.2561 13.6702 12.3596 13.4916 12.4489C12.8247 12.7823 11.927 12.9788 10.9537 12.9788C9.98051 12.9788 9.08278 12.7823 8.41587 12.4489C8.23727 12.3596 8.0677 12.2561 7.91577 12.1392ZM13.9917 10.9535C13.9917 11.2229 13.7646 11.5576 13.1897 11.845C12.635 12.1224 11.8449 12.3037 10.9537 12.3037C10.0626 12.3037 9.27254 12.1224 8.71779 11.845C8.14287 11.5576 7.91577 11.2229 7.91577 10.9535V10.4513C8.06772 10.5683 8.23732 10.6718 8.41593 10.7611C9.08286 11.0945 9.98058 11.2911 10.9537 11.2911C11.9269 11.2911 12.8246 11.0945 13.4916 10.7611C13.6702 10.6718 13.8398 10.5683 13.9917 10.4513V10.9535ZM8.71785 10.1573C8.14288 9.86977 7.91577 9.53507 7.91577 9.26574C7.91577 8.99641 8.14288 8.66171 8.71785 8.37423C9.27263 8.09684 10.0627 7.91553 10.9537 7.91553C11.8448 7.91553 12.6349 8.09684 13.1897 8.37423C13.7646 8.66171 13.9917 8.99641 13.9917 9.26574C13.9917 9.53507 13.7646 9.86977 13.1897 10.1573C12.6349 10.4346 11.8448 10.616 10.9537 10.616C10.0627 10.616 9.27263 10.4346 8.71785 10.1573Z" fill="white"/>
<path fill-rule="evenodd" clip-rule="evenodd" d="M5.04658 1.33325C4.07341 1.33325 3.17568 1.52976 2.50876 1.86322C1.86203 2.18659 1.3335 2.69577 1.3335 3.35857C1.3335 3.36085 1.3335 3.36313 1.33351 3.36541V5.04273L1.3335 5.04633L1.33351 5.05317V12.1869C1.33351 12.5127 1.52892 12.7707 1.75241 12.9562C1.98019 13.1452 2.28485 13.301 2.6183 13.425C3.28762 13.674 4.14733 13.8227 4.94879 13.8227C5.373 13.8227 5.77855 13.746 6.07314 13.6719C6.22164 13.6345 6.34481 13.597 6.43163 13.5686C6.47509 13.5544 6.5096 13.5424 6.53379 13.5338C6.54589 13.5295 6.55543 13.526 6.56222 13.5234L6.57034 13.5204L6.57282 13.5195L6.57424 13.5189C6.74824 13.452 6.83504 13.2567 6.76812 13.0827C6.70121 12.9087 6.50552 12.8221 6.33155 12.8889L6.32711 12.8906L6.30646 12.8981C6.28764 12.9048 6.25897 12.9148 6.22179 12.927C6.14732 12.9513 6.03934 12.9842 5.90839 13.0172C5.64406 13.0837 5.29748 13.1476 4.94879 13.1476C4.21977 13.1476 3.44062 13.0106 2.8537 12.7923C2.55903 12.6827 2.33122 12.5592 2.18356 12.4367C2.03162 12.3106 2.00862 12.2245 2.00862 12.1869V6.23199C2.16054 6.34895 2.33011 6.45241 2.5087 6.54171C3.17561 6.87516 4.07334 7.07165 5.04658 7.07165C6.01982 7.07165 6.91754 6.87516 7.58445 6.54171C7.76305 6.45241 7.93263 6.34894 8.08455 6.23198V6.7341C8.08455 6.92052 8.23568 7.07165 8.4221 7.07165C8.60853 7.07165 8.75966 6.92052 8.75966 6.7341L8.75966 5.04633L8.75966 3.35972C8.75966 3.35934 8.75966 3.35895 8.75966 3.35857C8.75966 2.69577 8.23113 2.18659 7.58439 1.86322C6.91747 1.52976 6.01974 1.33325 5.04658 1.33325ZM8.08455 3.35857C8.08455 3.08924 7.85744 2.75454 7.28248 2.46706C6.7277 2.18967 5.93766 2.00836 5.04658 2.00836C4.15549 2.00836 3.36545 2.18967 2.81068 2.46706C2.23762 2.75359 2.01011 3.08702 2.00861 3.35589C2.00862 3.35681 2.00862 3.35774 2.00862 3.35866V3.3628C2.01099 3.6314 2.23872 3.9641 2.81068 4.25008C3.36545 4.52747 4.15549 4.70878 5.04658 4.70878C5.93766 4.70878 6.7277 4.52747 7.28248 4.25008C7.85744 3.9626 8.08455 3.6279 8.08455 3.35857ZM2.00862 4.54416V5.05056C2.01099 5.31922 2.2387 5.65192 2.81061 5.93788C3.36536 6.21525 4.1554 6.39654 5.04658 6.39654C5.93775 6.39654 6.72779 6.21525 7.28254 5.93788C7.85746 5.65042 8.08455 5.31572 8.08455 5.04633V4.54415C7.93261 4.66112 7.76301 4.76461 7.58439 4.85391C6.91747 5.18738 6.01974 5.38388 5.04658 5.38388C4.07341 5.38388 3.17568 5.18738 2.50876 4.85391C2.33015 4.76461 2.16056 4.66113 2.00862 4.54416Z" fill="white"/>
</svg>
