<svg class="more-info-icon" width="12" height="12" viewBox="0 0 12 12" fill="none" xmlns="http://www.w3.org/2000/svg">
<path fill-rule="evenodd" clip-rule="evenodd" d="M12 6C12 9.31371 9.31371 12 6 12C2.68629 12 0 9.31371 0 6C0 2.68629 2.68629 0 6 0C9.31371 0 12 2.68629 12 6ZM7.25037 4.25803C7.10984 3.65401 6.53402 3.25064 5.91221 3.32063C5.2904 3.39061 4.82063 3.91167 4.82051 4.53152C4.82047 4.75594 4.63676 4.93784 4.41018 4.9378C4.1836 4.93775 3.99996 4.75579 4 4.53137C4.0002 3.49824 4.78317 2.62978 5.81956 2.51313C6.85595 2.39647 7.8157 3.06879 8.04993 4.07553C8.28416 5.08227 7.71829 6.10281 6.73488 6.44719C6.57091 6.50461 6.46132 6.6582 6.46141 6.83045V6.96936C6.46141 7.19378 6.27774 7.37571 6.05116 7.37571C5.82458 7.37571 5.6409 7.19378 5.6409 6.96936V6.83088C5.64072 6.31415 5.96949 5.85322 6.46137 5.68097C7.0514 5.47435 7.39091 4.86205 7.25037 4.25803ZM6.05092 8.36664C5.71106 8.36664 5.43555 8.63952 5.43555 8.97615C5.43555 9.31277 5.71106 9.58566 6.05092 9.58566C6.39077 9.58566 6.66628 9.31277 6.66628 8.97615C6.66628 8.63952 6.39077 8.36664 6.05092 8.36664Z" fill="#AAAAAA"/>
</svg>
