<svg class="network-status-indicator" width="12" height="12" viewBox="0 0 12 12" fill="none" xmlns="http://www.w3.org/2000/svg">
<path d="M6 12C7.18669 12 8.34673 11.6481 9.33342 10.9888C10.3201 10.3295 11.0891 9.39246 11.5433 8.2961C11.9974 7.19975 12.1162 5.99335 11.8847 4.82946C11.6532 3.66557 11.0818 2.59648 10.2426 1.75736C9.40352 0.918247 8.33443 0.346802 7.17054 0.115291C6.00665 -0.11622 4.80026 0.00259972 3.7039 0.456725C2.60754 0.910851 1.67047 1.67989 1.01118 2.66658C0.351894 3.65328 0 4.81331 0 6C0.00172054 7.59077 0.634414 9.1159 1.75926 10.2407C2.8841 11.3656 4.40923 11.9983 6 12ZM5.25 3.5C5.25 3.30109 5.32902 3.11032 5.46967 2.96967C5.61032 2.82902 5.80109 2.75 6 2.75C6.19891 2.75 6.38968 2.82902 6.53033 2.96967C6.67098 3.11032 6.75 3.30109 6.75 3.5V8.25C6.75 8.44891 6.67098 8.63968 6.53033 8.78033C6.38968 8.92098 6.19891 9 6 9C5.80109 9 5.61032 8.92098 5.46967 8.78033C5.32902 8.63968 5.25 8.44891 5.25 8.25V3.5Z" fill="#818181"/>
</svg>
