<svg class="rewards" width="10" height="10" viewBox="0 0 10 10" fill="none" xmlns="http://www.w3.org/2000/svg">
<path fill-rule="evenodd" clip-rule="evenodd" d="M1.97338 0.905397C2.10752 0.837039 2.25737 0.800049 2.41178 0.800049H7.59006C7.89566 0.800049 8.18343 0.94495 8.3668 1.19116L9.80599 3.1255C9.9411 3.30704 10.0053 3.52347 9.99965 3.73804C9.99959 3.74229 9.99945 3.74652 9.99923 3.75072C9.99099 3.96017 9.91607 4.16715 9.77536 4.33741C9.77521 4.33759 9.77506 4.33777 9.77492 4.33794L5.74622 9.24751L5.74486 9.24915C5.56684 9.46323 5.30677 9.59007 5.03058 9.59868C5.02079 9.59959 5.0109 9.60005 5.00093 9.60005C4.9911 9.60005 4.98135 9.5996 4.9717 9.59872C4.69502 9.59047 4.43441 9.46357 4.25611 9.24915L4.25475 9.24752L0.226058 4.33794C0.225896 4.33775 0.225733 4.33755 0.225571 4.33736C0.091577 4.1752 0.0172564 3.97974 0.00336716 3.78057C0.00114851 3.76516 0 3.74941 0 3.73338C0 3.72477 0.000331541 3.71624 0.000982482 3.7078C0.00182229 3.50322 0.066219 3.29851 0.194988 3.1255L1.635 1.19121C1.72229 1.074 1.83327 0.979709 1.95854 0.913122C1.9634 0.910431 1.96834 0.907855 1.97338 0.905397ZM1.98747 1.80444L0.794077 3.40746H2.56035L1.98747 1.80444ZM2.7933 4.05931H0.837109L4.30257 8.28248L2.7933 4.05931ZM5.69984 8.28074L9.16386 4.05931H7.20825L5.69984 8.28074ZM7.44117 3.40746H9.20694L8.01407 1.80417L7.44117 3.40746ZM7.45202 1.4519H5.6482L6.86717 3.08866L7.45202 1.4519ZM6.29549 3.40746L5.00092 1.66919L3.70635 3.40746H6.29549ZM3.13445 3.08895L2.5494 1.4519H4.35363L3.13445 3.08895ZM3.48123 4.05931H6.52034L5.0009 8.31159L3.48123 4.05931Z" fill="#4C4C4C"/>
</svg>