<svg width="89" height="89" viewBox="0 0 89 89" fill="none" xmlns="http://www.w3.org/2000/svg">
<g clip-path="url(#clip0)">
<path d="M44.661 88.765C68.9615 88.765 88.661 69.0655 88.661 44.765C88.661 20.4645 68.9615 0.765015 44.661 0.765015C20.3605 0.765015 0.661011 20.4645 0.661011 44.765C0.661011 69.0655 20.3605 88.765 44.661 88.765Z" fill="#FFFFE9"/>
<path d="M62.9738 27.0031C62.9738 27.0031 65.4377 20.8859 65.1189 19.484C64.8217 18.1247 64.8004 17.7 62.5703 16.0432C61.6781 16.4468 60.0852 17.0203 58.7894 16.7654C56.8779 16.4043 55.9009 15.7459 54.9875 14.9388C54.0742 14.1316 53.5857 12.9422 53.5008 12.2413C53.4795 12.0714 53.6707 11.9439 53.8194 12.0501C54.6052 12.6236 55.2425 13.6644 57.4726 14.4078C58.747 14.8326 59.7877 14.7051 60.425 14.4927C57.6 12.5387 53.5008 9.86242 51.0581 9.0553C47.9359 8.03579 46.534 10.0324 46.534 10.0324L43.6029 14.6626C43.6029 14.6626 48.5306 15.3848 53.5645 18.2097C58.5772 21.0133 62.9738 27.0031 62.9738 27.0031Z" fill="#3800D6"/>
<path d="M70.8333 33.9481C70.2173 34.0331 69.2827 34.0331 68.0296 33.7144C63.1232 32.3338 60.1071 24.2415 51.6111 19.1439C38.0388 12.1347 30.7535 18.4642 30.7535 18.4642C29.8189 19.1014 30.7748 19.505 30.7748 19.505L35.2352 21.7564L37.338 22.8608C37.338 22.8608 35.9999 24.5812 33.281 23.2644C32.3891 22.8821 30.605 22.776 29.2242 24.0078C27.7163 24.8362 28.3747 27.2363 27.2703 28.7656C26.187 30.2949 24.0204 30.04 23.7869 32.2488C23.5958 34.5004 25.3799 34.9251 25.4223 36.6031C25.4649 38.281 24.8489 39.2369 24.6789 39.6829C24.6151 39.874 24.5727 40.1076 24.5727 40.3413C24.594 40.6599 24.7427 40.9784 24.955 41.2334C25.125 41.4246 25.2737 41.552 25.4436 41.6581C26.1657 42.1467 26.7817 42.7838 27.1853 43.5486C27.249 43.676 27.3127 43.8034 27.3977 43.9308C27.4614 44.0371 27.5251 44.1646 27.6101 44.3131C28.0774 45.1415 28.2686 46.1185 28.0985 47.0744C28.0561 47.3292 28.0774 47.6266 28.1623 47.9028C28.3323 48.4125 28.7783 48.7948 29.3092 48.9435C30.0951 49.1346 30.7748 49.6019 31.2421 50.2603C31.2845 50.3027 31.3058 50.3666 31.3482 50.409C31.9855 51.3012 31.8581 52.7028 32.1129 53.7224C32.3678 54.742 33.2173 55.0605 34.4493 55.7615C35.6811 56.4624 35.9362 57.5668 35.4263 58.0979C34.9166 58.6289 31.9005 57.3332 30.6898 58.7775C29.7978 59.6059 30.1801 60.1369 29.7341 61.7086C29.2879 63.3016 27.9287 62.1334 27.2066 63.2378C26.4843 64.3424 26.3781 65.5318 26.7393 67.8895C27.1003 70.247 29.3943 73.4969 29.3943 73.4969C29.3943 73.4969 28.1623 69.2064 30.8385 65.5318C33.1112 62.8556 34.8529 62.4946 37.4228 62.452C40.0141 62.3883 43.8373 64.7247 44.6232 69.3125C45.0267 72.3499 43.3701 74.1127 43.2426 74.2827C42.9452 74.6226 40.5027 77.32 37.253 75.5145C36.3609 74.8985 35.575 74.2614 35.044 73.0296C34.6618 71.9037 34.5555 70.3958 35.1927 69.3762C35.7237 68.5266 36.5733 68.2718 36.8281 68.2505C37.2104 68.2081 38.0388 68.2292 38.5698 68.6328C39.1008 69.0363 39.6742 69.631 39.5681 70.6506C39.462 71.6702 38.4 71.9674 37.9964 71.8826C37.6566 71.8189 37.8901 71.8613 37.9751 71.8826C37.3167 71.84 37.0193 71.3303 36.8919 70.9692C36.8707 70.8843 36.7431 70.9055 36.722 70.9905C36.5309 72.3923 37.5929 73.2845 38.23 73.433C38.931 73.5817 39.9717 73.5606 40.8212 72.6897C41.5647 71.9463 41.9682 71.309 41.9682 69.6736C41.9682 68.3355 41.4159 67.401 40.5027 66.5938C39.3133 65.4894 37.7414 65.0645 36.6583 65.1496C35.6387 65.2344 33.8546 65.6593 32.6863 67.5071C31.6032 69.2064 31.1359 71.5428 32.0492 74.1553L32.0916 74.2401C34.1732 79.1041 39.0371 80.3361 42.3931 80.3361C43.0728 80.3361 43.6886 80.2935 44.1985 80.2086C44.3046 80.1874 46.7047 79.8264 49.0411 78.3819C51.9298 76.4704 53.6502 73.7091 53.6502 69.4399C53.6502 63.7688 51.1651 59.9882 46.0676 54.0836C45.0905 52.8729 41.1187 47.9665 40.3965 47.0106C36.8494 42.4229 32.8775 37.0279 34.8529 32.9285C34.9166 32.8011 34.9803 32.695 35.044 32.5676C37.9964 27.1513 46.3225 28.4895 44.4958 28.8293C41.3311 29.3603 39.4407 30.7622 38.8673 31.378C38.2937 31.994 37.9751 32.525 37.5929 33.5232C36.9344 35.1588 37.4654 37.6863 38.8673 39.8953C44.963 48.5399 53.9688 59.3085 55.0732 61.8999C56.4963 65.1707 56.7087 67.7621 56.6875 69.3551C56.6663 70.9481 56.2839 73.4969 56.2839 73.4969C56.2839 73.4969 58.3867 71.8189 59.385 69.7798C60.3833 67.7408 60.5531 66.7637 60.2559 65.9991C59.9371 65.2344 59.1513 65.2133 58.8327 63.9601C58.5142 62.7069 59.4061 61.6025 58.4716 59.6059C58.068 58.7351 55.9229 57.4606 54.8183 56.0588C53.7139 54.657 51.6961 52.1507 50.1881 50.1329C47.4695 46.5221 46.5773 45.2902 45.0056 43.2511C46.7047 43.761 48.8287 44.4618 53.7139 42.1891C58.238 44.5044 61.339 44.3768 62.4222 44.3131C63.5055 44.2494 64.5251 43.761 65.3109 43.145C65.8206 42.7414 66.2029 41.9343 66.4366 41.4033C66.5216 41.2122 66.3305 41.0421 66.1392 41.1058C62.3372 42.6777 58.8327 41.4033 54.5211 39.0032L53.7563 38.5783L52.9918 38.9819C48.4677 41.4033 43.7099 39.5129 43.285 39.343C43.1152 39.258 41.8195 38.5783 41.2461 37.4315C40.6727 36.2845 40.5451 35.0738 40.9699 34.0542C41.3098 33.226 42.1169 32.6737 43.4338 32.3975C44.5171 32.2701 45.9189 32.6737 47.0446 33.1197C47.2994 33.226 47.5332 32.9711 47.4269 32.7374C47.2994 32.3975 47.2144 32.0366 47.2144 31.6541C47.2144 31.017 47.4269 30.4434 47.7667 29.9761L49.2747 30.6771C49.0198 30.932 48.8711 31.3143 48.9137 31.7391C48.9774 32.2914 49.4447 32.7587 49.997 32.8224C50.7402 32.9285 51.3562 32.3762 51.4199 31.6754L52.8431 32.3338C52.5882 33.3747 51.7811 34.1817 50.7402 34.4367C50.528 34.4791 50.5067 34.7552 50.7191 34.819C52.6519 35.7322 58.3017 38.3661 58.3017 38.3661C58.3017 38.3661 61.5727 40.1926 64.4401 39.8316C67.2012 39.6829 68.4332 37.4952 66.7976 37.7075C65.1622 37.9199 61.2965 36.2419 61.2965 36.2419L58.7053 35.0314L59.7886 33.3534C59.7886 33.3534 63.4842 35.4561 66.7552 36.1782C68.9217 36.6455 70.3873 35.4137 71.1305 34.5215C71.3643 34.288 71.1518 33.9057 70.8333 33.9481ZM40.5877 26.5778C39.2071 26.7478 37.1043 27.3849 35.9149 27.9585C35.4689 28.1709 35.0864 28.3832 34.7679 28.5745C33.7272 29.254 32.7926 30.2736 32.0492 31.6754C29.1394 37.3252 34.4706 44.2494 38.761 49.8143C39.4831 50.7489 40.1415 51.6197 40.7364 52.4269C41.6497 53.68 42.6479 54.9118 43.6249 56.0801C46.1313 59.1599 48.8924 62.4309 50.0818 66.0628C50.4006 67.3372 50.443 68.5266 50.2943 69.4825C49.7846 72.456 47.1933 73.4756 47.1933 73.4756C47.5756 72.2436 47.788 70.6506 47.5543 68.8241V68.7815C46.7684 64.5123 43.3063 60.7316 43.3063 60.7316C42.4779 59.6272 41.5859 58.4802 40.8638 57.5457C33.5785 48.1788 32.8563 47.1168 31.1359 43.9945L31.1147 43.9521C31.0722 43.8671 31.0085 43.761 30.9446 43.6547C29.9464 41.9767 27.2703 37.4952 28.4384 32.8011C28.7145 31.7178 29.2031 30.7409 29.9039 29.8913C34.1732 24.3477 42.3505 26.2381 40.5877 26.5778Z" fill="#3800D6"/>
</g>
<defs>
<clipPath id="clip0">
<rect width="88" height="88" fill="white" transform="translate(0.661011 0.765015)"/>
</clipPath>
</defs>
</svg>
