<svg width="14" height="14" viewBox="0 0 14 14" fill="none" xmlns="http://www.w3.org/2000/svg">
<path fill-rule="evenodd" clip-rule="evenodd" d="M7.21339 1.70741C7.16305 1.60732 7.03095 1.60567 6.97849 1.70448L5.535 4.42344C5.39814 4.68123 5.16431 4.86155 4.89465 4.91726L1.65424 5.58663C1.54611 5.60897 1.50709 5.75481 1.58744 5.83633L3.93191 8.21485C4.1723 8.45874 4.27771 8.8209 4.20993 9.17005L3.62827 12.1664C3.60564 12.283 3.71464 12.3782 3.81503 12.3295L6.71337 10.9233C6.96788 10.7998 7.25979 10.8048 7.51058 10.9369L10.1382 12.321C10.2354 12.3723 10.3459 12.2847 10.3303 12.1688L9.87398 8.78739C9.82751 8.44302 9.94619 8.09673 10.1889 7.86865L12.3631 5.82506C12.4478 5.74544 12.4108 5.59508 12.3007 5.57178L9.2174 4.91933C8.94198 4.86104 8.70486 4.67281 8.57059 4.40585L7.21339 1.70741ZM6.27834 1.26823C6.64552 0.57662 7.57027 0.588161 7.92264 1.28876L9.27984 3.9872C9.29902 4.02534 9.33289 4.05223 9.37224 4.06055L12.4556 4.71301C13.2261 4.87607 13.4855 5.9286 12.8924 6.48599L10.7182 8.52957C10.6835 8.56216 10.6665 8.61163 10.6732 8.66082L11.1295 12.0422C11.2389 12.8534 10.4656 13.4665 9.78501 13.1079L7.15739 11.7238C7.12156 11.705 7.07986 11.7043 7.0435 11.7219L4.14516 13.1281C3.44247 13.469 2.67942 12.8026 2.83787 11.9863L3.41953 8.98998C3.42921 8.9401 3.41415 8.88836 3.37981 8.85352L1.03535 6.475C0.472913 5.90439 0.74604 4.88347 1.50296 4.72712L4.74337 4.05774C4.78189 4.04979 4.8153 4.02402 4.83485 3.9872L6.27834 1.26823Z" fill="#818181"/>
</svg>
