<svg width="12" height="12" viewBox="0 0 12 12" fill="none" xmlns="http://www.w3.org/2000/svg">
<path fill-rule="evenodd" clip-rule="evenodd" d="M7.79488 1.13778C8.51081 0.416032 9.61031 0.237944 10.5175 0.696795C10.604 0.740575 10.6649 0.822587 10.6817 0.918114C10.6985 1.01364 10.6693 1.11151 10.6029 1.18222L9.58134 2.27027C9.55738 2.29578 9.54447 2.32983 9.54558 2.3648C9.54668 2.39977 9.56163 2.43287 9.58715 2.45682L9.82898 2.68388C9.82899 2.68389 9.82896 2.68386 9.82898 2.68388C9.88207 2.73368 9.96552 2.73107 10.0154 2.678L11.0229 1.60614C11.0906 1.5341 11.1888 1.49896 11.2869 1.51171C11.3849 1.52445 11.4709 1.58351 11.5179 1.67047C11.9988 2.55898 11.8565 3.65555 11.1649 4.39193C10.4851 5.11616 9.42268 5.33333 8.51323 4.93397C8.35756 4.86561 8.28677 4.684 8.35513 4.52833C8.42349 4.37266 8.60511 4.30188 8.76078 4.37023C9.43135 4.6647 10.2147 4.50456 10.7159 3.97056C11.1212 3.53914 11.2708 2.93996 11.1373 2.38335L10.4642 3.09951C10.1816 3.4004 9.70858 3.4153 9.4076 3.13279L9.16585 2.90581C9.16583 2.90579 9.16588 2.90583 9.16585 2.90581C9.02125 2.77009 8.93643 2.58241 8.93018 2.38419C8.92394 2.18596 8.99671 1.99338 9.13249 1.84883C9.13251 1.84881 9.13246 1.84886 9.13249 1.84883L9.83448 1.10118C9.26469 0.974467 8.65678 1.14314 8.23201 1.57137C7.7041 2.10357 7.57935 2.91535 7.92309 3.58149C8.00106 3.73258 7.94178 3.91827 7.79069 3.99624C7.6396 4.0742 7.45391 4.01492 7.37595 3.86383C6.90977 2.96043 7.07896 1.85952 7.79488 1.13778ZM0.264142 0.565119C0.331456 0.495416 0.42766 0.461474 0.523811 0.473506L3.76062 0.878546C3.83561 0.88793 3.90453 0.92457 3.95425 0.981486L8.86213 6.59996L9.07345 6.38123C9.44185 5.99978 10.0497 5.9892 10.4312 6.35761C10.8126 6.72601 10.8232 7.3339 10.4548 7.71535C10.3367 7.83765 10.1418 7.84104 10.0195 7.72293C9.89722 7.60482 9.89383 7.40993 10.0119 7.28763C10.1441 7.15077 10.1403 6.93266 10.0035 6.80048C9.8666 6.6683 9.6485 6.67209 9.51632 6.80896L8.82347 7.52612L10.3328 8.9837C11.0196 9.01049 11.5681 9.57572 11.5681 10.2691C11.5681 10.9795 10.9922 11.5554 10.2818 11.5554C9.60371 11.5554 9.04818 11.0308 8.99895 10.3653L7.48914 8.90729L6.7971 9.62361C6.71141 9.7122 6.67938 9.8399 6.71326 9.9584C6.74714 10.0769 6.84166 10.1683 6.96123 10.1982C7.08079 10.2281 7.20723 10.192 7.29292 10.1034C7.41112 9.9812 7.60601 9.97795 7.72822 10.0961C7.85043 10.2144 7.85368 10.4092 7.73548 10.5315C7.49687 10.7782 7.14477 10.8788 6.81181 10.7955C6.47885 10.7122 6.21563 10.4576 6.12128 10.1276C6.02693 9.79766 6.1158 9.4424 6.35441 9.19569L6.61133 8.92976L0.809658 4.2389C0.750626 4.19117 0.711312 4.12331 0.699265 4.04836L0.181639 0.827825C0.166261 0.732152 0.196828 0.634823 0.264142 0.565119ZM8.27507 6.86379L3.56774 1.47491L0.854675 1.13541L1.28845 3.83425L6.85454 8.33463L8.27507 6.86379ZM7.91693 8.46448L9.15066 9.65592C9.26227 9.45045 9.42825 9.27879 9.62928 9.16024L8.39568 7.96893L7.91693 8.46448ZM10.2188 9.60132C9.88923 9.632 9.62886 9.90118 9.61197 10.2346C9.61192 10.2406 9.6117 10.2467 9.61129 10.2527C9.61116 10.2582 9.6111 10.2636 9.6111 10.2691C9.6111 10.6395 9.91137 10.9397 10.2818 10.9397C10.6522 10.9397 10.9524 10.6395 10.9524 10.2691C10.9524 9.89868 10.6522 9.59841 10.2818 9.59841C10.27 9.59841 10.2583 9.59871 10.2467 9.59931C10.2375 9.6004 10.2281 9.60107 10.2188 9.60132ZM2.37259 2.60797C2.48873 2.4838 2.68355 2.47729 2.80772 2.59343L7.14411 6.64938C7.26828 6.76552 7.27479 6.96033 7.15865 7.0845C7.04251 7.20867 6.8477 7.21518 6.72353 7.09904L2.38714 3.04309C2.26296 2.92695 2.25645 2.73214 2.37259 2.60797ZM4.05751 7.41427C4.17595 7.53625 4.17308 7.73115 4.0511 7.84958L1.43752 10.3872C1.4135 10.4146 1.40072 10.4502 1.40187 10.4868C1.40307 10.525 1.41944 10.5612 1.44735 10.5874L1.77732 10.8975C1.77733 10.8975 1.77732 10.8975 1.77732 10.8975C1.80526 10.9238 1.8425 10.9378 1.88081 10.9366C1.91913 10.9354 1.9554 10.919 1.98164 10.8911L1.98491 10.8876L4.49501 8.29419C4.61325 8.17202 4.80814 8.16883 4.93031 8.28708C5.05248 8.40532 5.05567 8.60021 4.93742 8.72238L2.42882 11.3143C2.29095 11.4602 2.10093 11.5457 1.9002 11.552C1.69858 11.5584 1.50271 11.4843 1.35571 11.3462L1.02618 11.0365C0.879202 10.8986 0.792824 10.7076 0.786477 10.5062C0.780126 10.3046 0.854178 10.1087 0.992321 9.96176C0.995529 9.95835 0.998814 9.95501 1.00217 9.95175L3.6222 7.40785C3.74418 7.28941 3.93908 7.29229 4.05751 7.41427Z" fill="#6D6D6D"/>
</svg>
