<svg width="20" height="14" viewBox="0 0 20 14" fill="none" xmlns="http://www.w3.org/2000/svg">
<path d="M20 0H13.3342V2.22177H20V0ZM8.88904 2.22177H6.66711V4.44489H8.88904V2.22177ZM6.66711 13.3333H8.88904V6.66666H6.66711V13.3333ZM11.111 2.22177V4.44489H13.3342V2.22177H11.111ZM11.111 13.3333H13.3342V6.66666H11.111V13.3333ZM11.111 0H8.88904V2.22177H11.111V0ZM0 0V2.22177H6.66711V0H0ZM20 6.66666V4.44489H13.3342V6.66666H20ZM8.88904 4.44489V6.66666H11.111V4.44489H8.88904ZM0 4.44489V6.66666H6.66711V4.44489H0Z" fill="#7D00FF"/>
</svg>
