<svg width="64" height="64" viewBox="0 0 64 64" fill="none" xmlns="http://www.w3.org/2000/svg">
<g filter="url(#filter0_d_11614_69963)">
<circle cx="30" cy="32" r="28" fill="#7D00FF"/>
<g clip-path="url(#clip0_11614_69963)">
<path d="M46.3332 22.6667H35.4457V26.2956H46.3332V22.6667ZM28.1853 26.2956H24.5561V29.9267H28.1853V26.2956ZM24.5561 44.4445H28.1853V33.5556H24.5561V44.4445ZM31.8144 26.2956V29.9267H35.4457V26.2956H31.8144ZM31.8144 44.4445H35.4457V33.5556H31.8144V44.4445ZM31.8144 22.6667H28.1853V26.2956H31.8144V22.6667ZM13.6665 22.6667V26.2956H24.5561V22.6667H13.6665ZM46.3332 33.5556V29.9267H35.4457V33.5556H46.3332ZM28.1853 29.9267V33.5556H31.8144V29.9267H28.1853ZM13.6665 29.9267V33.5556H24.5561V29.9267H13.6665Z" fill="white"/>
</g>
</g>
<defs>
<filter id="filter0_d_11614_69963" x="0" y="0" width="64" height="64" filterUnits="userSpaceOnUse" color-interpolation-filters="sRGB">
<feFlood flood-opacity="0" result="BackgroundImageFix"/>
<feColorMatrix in="SourceAlpha" type="matrix" values="0 0 0 0 0 0 0 0 0 0 0 0 0 0 0 0 0 0 127 0" result="hardAlpha"/>
<feOffset dx="2"/>
<feGaussianBlur stdDeviation="2"/>
<feComposite in2="hardAlpha" operator="out"/>
<feColorMatrix type="matrix" values="0 0 0 0 0 0 0 0 0 0 0 0 0 0 0 0 0 0 0.25 0"/>
<feBlend mode="normal" in2="BackgroundImageFix" result="effect1_dropShadow_11614_69963"/>
<feBlend mode="normal" in="SourceGraphic" in2="effect1_dropShadow_11614_69963" result="shape"/>
</filter>
<clipPath id="clip0_11614_69963">
<rect width="32.6667" height="21.7778" fill="white" transform="translate(13.6665 22.6667)"/>
</clipPath>
</defs>
</svg>
