<svg width="20" height="18" viewBox="0 0 20 18" fill="none" xmlns="http://www.w3.org/2000/svg">
<path fill-rule="evenodd" clip-rule="evenodd" d="M18.1637 8.2848C18.3458 8.43261 18.4688 8.64089 18.5103 8.87174C18.5184 8.93892 18.5192 9.00677 18.5128 9.07413C18.4951 9.12726 18.4951 9.17027 18.4951 9.21834C18.4803 9.31159 18.4592 9.40372 18.4319 9.49409C18.3761 9.68264 18.2907 9.86113 18.1789 10.0229C18.1579 10.0533 18.1312 10.0881 18.1129 10.1121C18.1068 10.1199 18.1017 10.1266 18.0979 10.1316C18.0985 10.1353 18.1001 10.1407 18.102 10.1475C18.108 10.1687 18.1182 10.2046 18.1182 10.2505C18.1479 10.4353 18.1564 10.6229 18.1435 10.8097C18.1184 11.1705 18.0329 11.5246 17.8905 11.857C17.7485 12.2047 17.5256 12.5135 17.2403 12.7577L17.2074 12.7855L17.1619 12.8032C16.8091 12.9342 16.4472 13.039 16.079 13.1169C15.7003 13.2053 15.3116 13.2436 14.9229 13.2308H14.8925H14.8571C14.0533 12.9721 13.2236 12.8024 12.3828 12.7248C12.154 12.7091 11.9265 12.677 11.7023 12.6287C11.4749 12.5686 11.2517 12.4934 11.0344 12.4035C10.6953 12.2821 10.3489 12.1823 9.99711 12.105C9.83173 12.336 9.75536 12.619 9.78205 12.9019C9.80713 13.2133 10.0877 13.7491 10.2886 14.1328C10.331 14.2136 10.3698 14.2877 10.4019 14.3515C10.628 14.8531 10.7102 15.4076 10.6391 15.9531C10.5681 16.4987 10.3467 17.0137 9.99964 17.4406C9.45206 16.2957 8.42538 15.7523 7.50599 15.2657C6.18254 14.5652 5.08143 13.9825 5.95176 11.8925C6.1979 11.2812 6.35017 10.6094 6.47489 10.0591C6.58092 9.59128 6.66704 9.21131 6.77398 9.03113V9.04631C6.70288 9.46496 6.70288 9.89261 6.77398 10.3113C6.80729 10.5075 6.88141 10.6945 6.99155 10.8603C7.10617 11.0113 7.26026 11.1277 7.43682 11.1967C7.81844 11.3479 8.22135 11.4384 8.63094 11.4649C8.84091 11.4953 9.05088 11.4953 9.26338 11.4953H9.26342C9.37577 11.4944 9.48809 11.4995 9.59991 11.5104C9.71122 11.5206 9.82507 11.5332 9.93639 11.5509C10.3777 11.6222 10.8125 11.7288 11.2368 11.8697C11.6177 12.0209 12.0214 12.1064 12.4309 12.1227C13.3011 12.1909 14.1604 12.3607 14.9912 12.6287C15.3235 12.6401 15.6561 12.6147 15.9829 12.5528C16.0649 12.5371 16.1458 12.5189 16.2263 12.5009C16.2624 12.4928 16.2985 12.4847 16.3346 12.4769C16.9038 12.3099 17.554 11.427 16.8102 11.5104C16.6036 11.5201 16.3981 11.5455 16.1954 11.5863C16.0118 11.6238 15.8677 11.6582 15.7461 11.6872C15.3749 11.7758 15.2131 11.8144 14.7787 11.7381C14.472 11.6319 14.1533 11.5639 13.8299 11.5357C14.1009 11.3614 14.4225 11.283 14.7432 11.3131C14.9802 11.3431 15.2206 11.3328 15.4542 11.2827C15.5721 11.2491 15.6923 11.1842 15.8223 11.1141C15.9265 11.0579 16.037 10.9983 16.1575 10.9488C16.5008 10.8406 16.8604 10.7935 17.22 10.8097C17.3098 10.7152 17.376 10.6009 17.4134 10.4761C17.4507 10.3513 17.4582 10.2194 17.4351 10.0912C17.3624 9.98059 17.2517 9.9005 17.1239 9.866C17.0735 9.85485 17.0095 9.84242 16.9363 9.82822C16.561 9.7554 15.9451 9.6359 15.6995 9.40302C15.53 9.2411 15.439 8.74777 16.036 8.61115C16.3517 8.5556 16.6736 8.54453 16.9923 8.57826C17.129 8.59344 17.5009 8.62885 17.5869 8.55802C17.5289 8.35717 16.8734 7.99831 16.2207 7.64102C15.6484 7.32774 15.0784 7.01567 14.9153 6.81238C14.1888 6.07214 13.5789 5.22594 13.1064 4.30269C12.9532 3.91664 12.6632 3.60053 12.2917 3.41468C12.7331 3.38238 13.1708 3.51389 13.5213 3.78406C13.5719 3.826 13.6363 3.94098 13.7189 4.08831C13.9501 4.50089 14.3234 5.16712 14.933 5.19322C14.9972 5.19939 15.0619 5.18803 15.1202 5.16034C14.8185 4.87576 14.6148 4.53243 14.424 4.21089C14.1347 3.72346 13.8752 3.28611 13.3493 3.1794C13.3413 3.1763 13.3335 3.17322 13.3256 3.17015C13.2056 3.12314 13.0931 3.07908 12.9672 3.01496L12.6105 2.83786L11.9021 2.4938C11.4347 2.26787 10.953 2.07265 10.4601 1.90938C9.97257 1.74926 9.46981 1.63989 8.95983 1.58302C8.84851 1.57037 8.69924 1.5552 8.59552 1.5552C8.49784 1.55552 8.40162 1.57892 8.3147 1.6235C8.25431 1.64878 8.18535 1.68419 8.11604 1.71979C8.06048 1.74832 8.0047 1.77696 7.95292 1.8006C7.93049 1.81084 7.90796 1.82108 7.8854 1.83134C7.79089 1.8743 7.69569 1.91758 7.60379 1.96251C7.14155 2.18617 6.70544 2.46022 6.30341 2.77968C6.00177 2.99254 5.73687 3.25316 5.51914 3.5513C5.89944 3.52371 6.28142 3.57275 6.64242 3.69551C6.09393 3.72175 5.5565 3.85931 5.06286 4.09983C4.56921 4.34035 4.12967 4.67879 3.77097 5.09456C3.12078 5.79029 2.61478 9.33978 3.35099 10.2784C3.7104 10.1101 4.19636 9.28796 4.74859 8.35368C5.59963 6.91386 6.60805 5.20778 7.55319 5.21852C6.98396 5.72704 6.54376 7.09319 6.10355 8.6238C5.74936 9.86599 4.54764 12.6995 3.78866 12.7678C3.49266 12.7855 3.38389 12.6438 3.18402 12.3554L3.01704 12.1278C2.72517 11.7221 2.50288 11.2706 2.35926 10.7919C2.22669 10.3233 2.14692 9.84131 2.12145 9.35495C2.0957 8.87666 2.10669 8.3971 2.15434 7.92049C2.20565 7.44814 2.28507 6.97927 2.39215 6.51637C2.49873 6.05306 2.63651 5.59748 2.80453 5.15275C2.85007 5.0389 2.8956 4.92758 2.95379 4.81373C2.98332 4.74996 3.01713 4.68826 3.05499 4.62905C3.0985 4.56961 3.14673 4.51377 3.1992 4.46208C3.38379 4.28657 3.59251 4.13834 3.81903 4.02187C4.15046 3.84899 4.50358 3.72136 4.86894 3.64238C4.98443 3.38337 5.14266 3.14562 5.33699 2.93907C5.52918 2.73774 5.73823 2.55322 5.96187 2.38754C6.39075 2.04755 6.85566 1.7557 7.34827 1.51724C7.46464 1.45652 7.61644 1.38822 7.71764 1.34521C7.77108 1.3225 7.82733 1.29344 7.88939 1.26139C7.94486 1.23274 8.00497 1.20169 8.07184 1.17064C8.22288 1.0988 8.38779 1.06081 8.55505 1.05933C8.69809 1.05971 8.84094 1.06986 8.9826 1.08969C9.52703 1.14912 10.0638 1.26528 10.5841 1.43629C11.0963 1.60709 11.5974 1.80988 12.0843 2.04347L12.8028 2.3926L13.1595 2.56969C13.2466 2.61679 13.3579 2.65951 13.479 2.706C13.488 2.70946 13.497 2.71293 13.5061 2.71643C13.6377 2.76703 13.7591 2.82015 13.8907 2.88593C13.9618 2.92239 14.0303 2.96382 14.0956 3.0099C14.1578 3.06026 14.217 3.11433 14.2727 3.17181C14.4664 3.38257 14.6361 3.61422 14.7787 3.86249C14.7944 3.88997 14.81 3.91736 14.8256 3.94463C15.0753 4.38186 15.3072 4.78811 15.6692 5.02625L15.9222 5.19322C15.9178 5.20734 15.9119 5.22092 15.9045 5.2337L15.8514 5.33237L15.5984 5.4614C15.5482 5.48565 15.5093 5.52821 15.4896 5.58031C15.4801 5.60365 15.475 5.6285 15.4744 5.65367V5.81559C15.4757 5.90106 15.4646 5.98628 15.4415 6.06858C15.4312 6.1017 15.4191 6.13101 15.4085 6.15685C15.3931 6.19418 15.3808 6.22428 15.3808 6.2482C15.3735 6.27384 15.3735 6.30099 15.3808 6.32663C15.4521 6.64738 16.3851 7.18642 17.1556 7.63159C17.6432 7.91326 18.0657 8.15734 18.1637 8.2848ZM11.922 6.06106C11.9498 6.41272 11.5222 6.68848 11.0163 6.74667C10.3661 6.80992 10.0372 6.4532 10.1105 6.00287C10.1839 5.55255 9.86766 5.55255 9.65515 5.80554C9.65044 5.81163 9.64388 5.81602 9.63645 5.81804C9.62902 5.82006 9.62113 5.81962 9.61398 5.81676C9.60683 5.8139 9.60081 5.80878 9.59683 5.8022C9.59284 5.79561 9.59111 5.7879 9.5919 5.78024C9.69816 5.02885 10.1384 4.99596 10.3357 4.99596C10.9293 5.03811 11.5173 5.1381 12.0915 5.2945C12.1074 5.29838 12.122 5.30663 12.1335 5.31833C12.1451 5.33003 12.1532 5.34471 12.1568 5.36073C12.1605 5.37674 12.1597 5.39346 12.1544 5.40902C12.1491 5.42458 12.1396 5.43836 12.1269 5.44882C12.0413 5.52339 11.9772 5.61945 11.9412 5.72708C11.9052 5.83471 11.8985 5.95001 11.922 6.06106Z" fill="#002522"/>
</svg>
