<svg width="159" height="28" viewBox="0 0 159 28" fill="none" xmlns="http://www.w3.org/2000/svg">
<path d="M21.9799 0C14.8137 0 9 5.97981 9 13.3508C9 20.7218 14.8137 26.7016 21.9799 26.7016C29.1462 26.7016 34.9599 20.7218 34.9599 13.3508C34.949 5.97981 29.1353 0 21.9799 0ZM27.4119 10.3665H26.6047L24.1287 13.3396L26.6047 16.3126H27.4228V18.7023H22.1654V16.3351H22.9834L21.3582 14.383H20.6929V16.3351H21.62V18.7023H16.5262V16.3126H17.6278V13.3508V10.3665H16.5262V7.97682H17.7805V8.86313H18.4568V7.97682H19.6894V8.86313H20.3656V7.97682H21.6091V10.3328H20.6819V12.285H21.3473L22.9725 10.3328H22.1545V7.97682H27.4119V10.3665Z" fill="#0A0806"/>
<path d="M46.0005 16.8815H44.6881C44.2555 16.8815 44.0968 16.8222 44.0103 16.7332C43.8949 16.6145 43.8516 16.4365 43.8516 16.0211V10.8143H46.015V9.86494H43.8516V7.87715H42.8132V9.86494H41.6162V10.8143H42.8132V16.2436C42.8132 16.8815 42.8854 17.2227 43.145 17.4897C43.419 17.7716 43.7507 17.8606 44.2555 17.8606C44.6737 17.8606 45.0054 17.8012 45.2794 17.7567L46.0005 17.5787V16.8815Z" fill="#0A0806"/>
<path d="M49.7805 17.8012H51.7131C52.5063 17.8012 52.9534 17.6974 53.2851 17.3562C53.7755 16.8519 53.9341 16.214 53.9341 13.8257C53.9341 11.4522 53.7755 10.8143 53.2851 10.31C52.9534 9.96878 52.5063 9.86494 51.7131 9.86494H49.7805C48.9873 9.86494 48.5402 9.96878 48.2085 10.31C47.7182 10.8143 47.5595 11.4522 47.5595 13.8257C47.5595 16.214 47.7182 16.8519 48.2085 17.3562C48.5402 17.6974 48.9873 17.8012 49.7805 17.8012ZM48.6123 13.8257C48.6123 11.6895 48.7277 11.3039 48.9585 11.0665C49.1315 10.8885 49.3479 10.8292 49.8959 10.8292H51.5977C52.1458 10.8292 52.3621 10.8885 52.5352 11.0665C52.7659 11.3039 52.8813 11.6895 52.8813 13.8257C52.8813 15.9766 52.7659 16.3623 52.5352 16.5997C52.3621 16.7777 52.1458 16.837 51.5977 16.837H49.8959C49.3479 16.837 49.1315 16.7777 48.9585 16.5997C48.7277 16.3623 48.6123 15.9766 48.6123 13.8257Z" fill="#0A0806"/>
<path d="M62.0412 10.7995H63.1373V9.86494H59.6904V10.7847H60.8874L58.7818 13.3361H57.7434V7.12061H55.4358V8.07H56.705V16.8667H55.4358V17.8012H58.9549V16.8667H57.7434V14.2559H58.7385L61.2768 17.8012H63.2238V16.8667H61.9402L59.5894 13.707L62.0412 10.7995Z" fill="#0A0806"/>
<path d="M70.4193 14.2262C70.5491 14.2262 70.5923 14.1669 70.5923 14.0482V13.7812C70.5923 11.4967 70.4337 10.8143 69.9289 10.2951C69.626 9.98361 69.1501 9.86494 68.3713 9.86494H66.6695C65.8763 9.86494 65.4292 9.96878 65.0975 10.31C64.6071 10.8143 64.4485 11.4522 64.4485 13.8257C64.4485 16.214 64.6071 16.8519 65.0975 17.3562C65.4292 17.6974 65.8763 17.8012 66.6695 17.8012H68.6598C69.4097 17.8012 69.7703 17.6826 70.0587 17.3859C70.4337 17.0002 70.5635 16.5848 70.5923 15.3684H69.5683C69.5395 16.1843 69.4674 16.4365 69.3088 16.6145C69.1357 16.7777 68.9482 16.8519 68.4578 16.8519H66.7705C66.2224 16.8519 66.0205 16.8074 65.8474 16.6145C65.6311 16.4068 65.5157 16.036 65.5013 14.2262H70.4193ZM65.833 11.0517C66.0205 10.8737 66.2224 10.8143 66.7705 10.8143H68.2704C68.8184 10.8143 69.0347 10.8737 69.1934 11.0517C69.4097 11.2742 69.5395 11.7044 69.5395 13.3361H65.5013C65.5157 11.6599 65.6311 11.2742 65.833 11.0517Z" fill="#0A0806"/>
<path d="M74.4946 9.86494H72.187V10.8143H73.4562V16.8667H72.187V17.8012H75.706V16.8667H74.4946V11.5264C75.3022 10.9923 75.7349 10.8143 76.3839 10.8143H77.1771C77.7395 10.8143 77.8982 10.8737 78.0568 11.0368C78.2155 11.2148 78.2876 11.4522 78.2876 11.9121V16.8667H77.0617V17.8012H80.5663V16.8667H79.3116V11.8527C79.3116 11.0072 79.2106 10.577 78.9077 10.2655C78.6193 9.98361 78.302 9.8501 77.5809 9.8501H76.6867C75.8647 9.8501 75.5041 10.0726 74.4946 10.9182V9.86494Z" fill="#0A0806"/>
<path d="M87.0214 7.41729H81.5409V8.41118H82.9543V16.8073H81.5409V17.8012H87.0214C88.0453 17.8012 88.5789 17.6084 89.026 17.1634C89.6029 16.5552 89.9635 15.3981 89.9635 12.6093C89.9635 9.82043 89.6029 8.66336 89.026 8.05516C88.5789 7.61013 88.0453 7.41729 87.0214 7.41729ZM84.036 8.41118H86.9492C87.5982 8.41118 87.8723 8.48535 88.1607 8.78204C88.5501 9.16773 88.8097 10.0133 88.8097 12.6241C88.8097 15.2053 88.5501 16.0508 88.1607 16.4365C87.8867 16.7332 87.5982 16.8073 86.9492 16.8073H84.036V8.41118Z" fill="#0A0806"/>
<path d="M96.958 12.1494V13.44C96.1936 13.3065 95.386 13.262 94.6937 13.262C93.3525 13.262 92.8189 13.4548 92.4872 13.796C92.1843 14.1075 92.0112 14.6712 92.0112 15.6206C92.0112 16.6293 92.1987 17.0892 92.4727 17.371C92.79 17.6974 93.2227 17.8161 93.915 17.8161H94.8235C95.5879 17.8161 95.9629 17.6232 96.958 16.7925V17.8012H99.2367V16.8667H97.9964V12.0901C97.9964 11.0517 97.9243 10.6215 97.5782 10.2803C97.3186 9.99844 96.9724 9.86494 96.136 9.86494H94.2611C93.54 9.86494 93.165 9.96878 92.8477 10.2951C92.5304 10.6363 92.3862 11.0665 92.3574 12.2384H93.3958C93.4102 11.5264 93.4823 11.2148 93.6698 11.022C93.8284 10.8588 94.0736 10.7995 94.5639 10.7995H95.9485C96.4677 10.7995 96.6263 10.8588 96.7561 10.9923C96.9003 11.1407 96.958 11.3632 96.958 12.1494ZM94.9822 16.8815H94.1457C93.6986 16.8815 93.4679 16.8222 93.2948 16.659C93.1362 16.4958 93.064 16.1695 93.064 15.4723C93.064 14.8196 93.1362 14.5822 93.3236 14.3745C93.5111 14.1817 93.7563 14.0927 94.6505 14.0927H96.958V16.1695C96.1071 16.7183 95.6745 16.8815 94.9822 16.8815Z" fill="#0A0806"/>
<path d="M100.621 12.0456C100.621 13.0691 100.722 13.4548 101.01 13.7515C101.227 13.974 101.544 14.0779 102.251 14.152L104.472 14.3894C104.962 14.4487 105.106 14.508 105.207 14.6119C105.323 14.7306 105.395 14.9382 105.395 15.6206C105.395 16.3772 105.308 16.57 105.178 16.7035C105.063 16.8222 104.89 16.8815 104.544 16.8815H102.381C101.977 16.8815 101.818 16.8222 101.717 16.7183C101.573 16.57 101.53 16.3623 101.501 15.3981H100.52C100.535 16.7925 100.635 17.1189 100.967 17.4601C101.184 17.6826 101.602 17.8012 102.193 17.8012H104.789C105.352 17.8012 105.683 17.6974 105.928 17.4452C106.246 17.104 106.404 16.6442 106.404 15.5613C106.404 14.5674 106.318 14.1075 106.029 13.8108C105.827 13.6032 105.496 13.4993 104.803 13.4251L102.554 13.173C102.049 13.1285 101.919 13.0691 101.789 12.9505C101.674 12.8169 101.631 12.6241 101.631 11.9862C101.631 11.3039 101.717 11.0962 101.861 10.9478C101.977 10.8292 102.15 10.7847 102.467 10.7847H104.443C104.818 10.7847 104.991 10.8588 105.092 10.9627C105.222 11.0962 105.294 11.2742 105.323 12.2087H106.303C106.289 10.8885 106.159 10.5176 105.856 10.2061C105.64 9.98361 105.294 9.86494 104.674 9.86494H102.236C101.659 9.86494 101.342 9.96878 101.097 10.221C100.78 10.5473 100.621 11.0517 100.621 12.0456Z" fill="#0A0806"/>
<path d="M110.171 7.12061H107.863V8.07H109.132V16.8667H107.863V17.8012H111.382V16.8667H110.171V11.5264C110.978 10.9923 111.426 10.8143 112.06 10.8143H112.853C113.416 10.8143 113.574 10.8737 113.733 11.0368C113.906 11.2148 113.964 11.4522 113.964 11.9121V16.8667H112.752V17.8012H116.243V16.8667H115.002V11.8527C115.002 11.0072 114.887 10.577 114.598 10.2655C114.31 9.98361 113.978 9.8501 113.272 9.8501H112.363C111.555 9.8501 111.195 10.0726 110.171 10.9182V7.12061Z" fill="#0A0806"/>
<path d="M119.268 7.12061H116.961V8.07H118.23V16.8667H116.961V17.8012H119.268V16.748C120.292 17.6084 120.667 17.8161 121.46 17.8161H122.268C123.133 17.8161 123.58 17.6677 123.912 17.3265C124.359 16.8519 124.518 16.2288 124.518 13.8257C124.518 11.4374 124.359 10.8143 123.912 10.3396C123.58 9.99844 123.133 9.8501 122.268 9.8501H121.46C120.667 9.8501 120.292 10.0578 119.268 10.9182V7.12061ZM121.157 10.8143H122.052C122.672 10.8143 122.917 10.9033 123.09 11.0962C123.378 11.378 123.451 11.8676 123.451 13.8257C123.451 15.7986 123.378 16.2733 123.09 16.57C122.917 16.748 122.672 16.8519 122.052 16.8519H121.201C120.523 16.8519 120.061 16.6442 119.268 16.125V11.5264C120.033 11.022 120.494 10.8143 121.157 10.8143Z" fill="#0A0806"/>
<path d="M128.731 17.8012H130.664C131.457 17.8012 131.904 17.6974 132.236 17.3562C132.726 16.8519 132.885 16.214 132.885 13.8257C132.885 11.4522 132.726 10.8143 132.236 10.31C131.904 9.96878 131.457 9.86494 130.664 9.86494H128.731C127.938 9.86494 127.491 9.96878 127.159 10.31C126.669 10.8143 126.51 11.4522 126.51 13.8257C126.51 16.214 126.669 16.8519 127.159 17.3562C127.491 17.6974 127.938 17.8012 128.731 17.8012ZM127.563 13.8257C127.563 11.6895 127.679 11.3039 127.909 11.0665C128.083 10.8885 128.299 10.8292 128.847 10.8292H130.549C131.097 10.8292 131.313 10.8885 131.486 11.0665C131.717 11.3039 131.832 11.6895 131.832 13.8257C131.832 15.9766 131.717 16.3623 131.486 16.5997C131.313 16.7777 131.097 16.837 130.549 16.837H128.847C128.299 16.837 128.083 16.7777 127.909 16.5997C127.679 16.3623 127.563 15.9766 127.563 13.8257Z" fill="#0A0806"/>
<path d="M139.709 12.1494V13.44C138.944 13.3065 138.137 13.262 137.444 13.262C136.103 13.262 135.569 13.4548 135.238 13.796C134.935 14.1075 134.762 14.6712 134.762 15.6206C134.762 16.6293 134.949 17.0892 135.223 17.371C135.541 17.6974 135.973 17.8161 136.666 17.8161H137.574C138.338 17.8161 138.713 17.6232 139.709 16.7925V17.8012H141.987V16.8667H140.747V12.0901C140.747 11.0517 140.675 10.6215 140.329 10.2803C140.069 9.99844 139.723 9.86494 138.887 9.86494H137.012C136.291 9.86494 135.916 9.96878 135.598 10.2951C135.281 10.6363 135.137 11.0665 135.108 12.2384H136.146C136.161 11.5264 136.233 11.2148 136.42 11.022C136.579 10.8588 136.824 10.7995 137.315 10.7995H138.699C139.218 10.7995 139.377 10.8588 139.507 10.9923C139.651 11.1407 139.709 11.3632 139.709 12.1494ZM137.733 16.8815H136.896C136.449 16.8815 136.218 16.8222 136.045 16.659C135.887 16.4958 135.815 16.1695 135.815 15.4723C135.815 14.8196 135.887 14.5822 136.074 14.3745C136.262 14.1817 136.507 14.0927 137.401 14.0927H139.709V16.1695C138.858 16.7183 138.425 16.8815 137.733 16.8815Z" fill="#0A0806"/>
<path d="M145.29 16.8667V11.6599C146.112 11.0813 146.516 10.9775 147.107 10.9775H148.059V9.8501H147.222C146.573 9.8501 146.227 10.1468 145.29 11.1555V9.86494H142.982V10.8143H144.251V16.8667H142.982V17.8012H146.573V16.8667H145.29Z" fill="#0A0806"/>
<path d="M154.579 17.8012H156.887V16.8667H155.618V7.12061H153.252V8.05516H154.579V10.9182C153.57 10.0726 153.18 9.8501 152.387 9.8501H151.579C150.714 9.8501 150.281 9.99844 149.95 10.3396C149.488 10.8143 149.344 11.4374 149.344 13.8257C149.344 16.2288 149.488 16.8519 149.95 17.3265C150.281 17.6677 150.714 17.8161 151.579 17.8161H152.387C153.18 17.8161 153.555 17.6084 154.579 16.748V17.8012ZM152.69 16.8519H151.796C151.19 16.8519 150.945 16.748 150.757 16.57C150.483 16.2733 150.397 15.7986 150.397 13.8257C150.397 11.8676 150.483 11.378 150.757 11.0962C150.945 10.9033 151.19 10.8143 151.796 10.8143H152.661C153.325 10.8143 153.786 11.022 154.579 11.556V16.1398C153.8 16.659 153.339 16.8519 152.69 16.8519Z" fill="#0A0806"/>
</svg>
