<svg width="14" height="17" viewBox="0 0 14 17" fill="none" xmlns="http://www.w3.org/2000/svg">
<g clip-path="url(#clip0)">
<path d="M5.49007 3.71671C5.31538 3.69143 5.30706 3.683 5.39024 3.67457C5.5483 3.64929 5.91431 3.683 6.17218 3.74199C6.77111 3.88527 7.31181 4.2561 7.88579 4.90505L8.03552 5.08203L8.2518 5.04832C9.17515 4.89662 10.1235 5.01461 10.9137 5.38544C11.13 5.48658 11.4711 5.68885 11.5126 5.73941C11.5293 5.75627 11.5542 5.86583 11.5709 5.9754C11.6291 6.37151 11.6041 6.66649 11.4794 6.89404C11.4128 7.02046 11.4128 7.05417 11.4544 7.16373C11.4877 7.24801 11.5875 7.30701 11.679 7.30701C11.8787 7.30701 12.0866 6.98675 12.1864 6.54007L12.228 6.36308L12.3029 6.44736C12.7271 6.92775 13.0599 7.59356 13.1098 8.06552L13.1264 8.19194L13.0516 8.08238C12.9268 7.88854 12.8103 7.76212 12.6523 7.65255C12.3695 7.45871 12.07 7.39972 11.2797 7.35758C10.5643 7.31544 10.1567 7.25644 9.75745 7.12159C9.07533 6.89404 8.72595 6.59906 7.91906 5.51186C7.56137 5.03147 7.33677 4.7702 7.11217 4.55108C6.62138 4.07068 6.13059 3.81784 5.49007 3.71671Z" fill="#1BA58C"/>
<path d="M11.6874 4.78708C11.7041 4.46682 11.7457 4.25612 11.8372 4.06228C11.8705 3.98643 11.9037 3.91901 11.912 3.91901C11.9204 3.91901 11.9037 3.978 11.8788 4.04543C11.8122 4.23084 11.8039 4.49211 11.8455 4.78708C11.9037 5.16634 11.9287 5.21691 12.328 5.62988C12.511 5.82372 12.7273 6.06813 12.8104 6.16927L12.9519 6.35468L12.8104 6.21983C12.6358 6.05128 12.2365 5.73101 12.145 5.68887C12.0867 5.65516 12.0784 5.65516 12.0368 5.6973C12.0036 5.73101 11.9952 5.78158 11.9952 6.02599C11.9869 6.40525 11.937 6.64123 11.8122 6.88564C11.7457 7.01206 11.7374 6.98678 11.7956 6.8435C11.8372 6.73394 11.8455 6.68337 11.8455 6.32097C11.8455 5.58774 11.7623 5.41075 11.2549 5.11577C11.1301 5.03992 10.9138 4.93036 10.789 4.87136C10.656 4.81237 10.5561 4.7618 10.5644 4.7618C10.5811 4.74494 11.0719 4.88822 11.2632 4.9725C11.5544 5.09049 11.6043 5.09892 11.6375 5.09049C11.6625 5.06521 11.6791 4.99778 11.6874 4.78708Z" fill="#1BA58C"/>
<path d="M5.83128 6.04283C5.4819 5.55401 5.25731 4.79549 5.30722 4.23082L5.32385 4.05383L5.40704 4.07069C5.55677 4.09597 5.81464 4.19711 5.93942 4.27296C6.27216 4.47523 6.42189 4.75335 6.56331 5.44444C6.6049 5.64671 6.66313 5.88269 6.68808 5.95855C6.72968 6.08496 6.88773 6.37994 7.02082 6.56536C7.11233 6.7002 7.0541 6.76763 6.84613 6.75077C6.53003 6.71706 6.10579 6.42208 5.83128 6.04283Z" fill="#1BA58C"/>
<path d="M11.263 9.70897C9.61598 9.03473 9.03369 8.45321 9.03369 7.46714C9.03369 7.32386 9.04201 7.20587 9.04201 7.20587C9.05033 7.20587 9.10856 7.25644 9.18342 7.31543C9.51616 7.58513 9.89049 7.70312 10.9303 7.85482C11.5376 7.94753 11.8869 8.01495 12.203 8.12452C13.2096 8.46163 13.8335 9.15272 13.9832 10.0882C14.0248 10.3579 13.9998 10.872 13.9333 11.1417C13.875 11.3524 13.7087 11.7401 13.6671 11.7485C13.6588 11.7485 13.6421 11.7064 13.6421 11.639C13.6255 11.285 13.4508 10.9479 13.1597 10.6866C12.8103 10.3832 12.3611 10.1556 11.263 9.70897Z" fill="#1BA58C"/>
<path d="M10.0986 9.98705C10.082 9.86063 10.0404 9.7005 10.0154 9.63307L9.97384 9.50665L10.0487 9.59936C10.1568 9.72578 10.24 9.87748 10.3149 10.0882C10.3731 10.2483 10.3731 10.2989 10.3731 10.5601C10.3731 10.813 10.3648 10.872 10.3149 11.0153C10.2317 11.2428 10.1319 11.4029 9.96552 11.5799C9.66605 11.8918 9.27508 12.0603 8.71775 12.1362C8.61793 12.1446 8.3351 12.1699 8.08554 12.1867C7.46166 12.2205 7.04574 12.2879 6.67141 12.4227C6.62149 12.4396 6.57158 12.4564 6.56327 12.448C6.54663 12.4311 6.8045 12.2794 7.01246 12.1783C7.30361 12.035 7.60307 11.9592 8.26023 11.8412C8.58465 11.7906 8.91739 11.7232 9.00058 11.6895C9.8241 11.4282 10.2317 10.7793 10.0986 9.98705Z" fill="#1BA58C"/>
<path d="M10.8556 11.344C10.6394 10.8636 10.5895 10.4085 10.7059 9.97863C10.7226 9.93649 10.7392 9.89435 10.7558 9.89435C10.7725 9.89435 10.8224 9.91963 10.8723 9.95334C10.9721 10.0208 11.1801 10.1388 11.7125 10.4337C12.3862 10.8046 12.7689 11.0911 13.0351 11.4198C13.268 11.7064 13.4094 12.035 13.476 12.4396C13.5176 12.6671 13.4926 13.215 13.4344 13.4425C13.2514 14.1589 12.8354 14.732 12.2282 15.0607C12.1367 15.1113 12.0618 15.145 12.0535 15.145C12.0452 15.145 12.0785 15.0607 12.1284 14.9596C12.328 14.5297 12.353 14.1168 12.2032 13.6532C12.1117 13.3667 11.9204 13.0211 11.5378 12.4396C11.0802 11.7654 10.9721 11.5884 10.8556 11.344Z" fill="#1BA58C"/>
<path d="M4.65833 13.9229C5.2739 13.4004 6.03088 13.0295 6.72963 12.9115C7.0291 12.861 7.52821 12.8778 7.80272 12.9537C8.24359 13.0717 8.64288 13.3245 8.85084 13.6363C9.05049 13.9397 9.14199 14.201 9.23349 14.7825C9.26677 15.0101 9.30836 15.2461 9.31668 15.2966C9.38323 15.6001 9.51632 15.836 9.68269 15.9625C9.94056 16.1563 10.3898 16.1647 10.8306 15.9962C10.9055 15.9709 10.9721 15.9456 10.9721 15.954C10.9887 15.9709 10.7641 16.1226 10.6144 16.1984C10.4064 16.308 10.24 16.3417 10.0154 16.3417C9.61614 16.3417 9.27509 16.131 9.00058 15.7096C8.94235 15.6253 8.82589 15.3809 8.72607 15.1534C8.43492 14.4707 8.28519 14.2684 7.94413 14.0409C7.64466 13.847 7.26201 13.8049 6.97087 13.9482C6.58822 14.1336 6.4884 14.6308 6.75459 14.9342C6.86273 15.0607 7.06237 15.1618 7.22874 15.1871C7.53652 15.2292 7.80272 14.9848 7.80272 14.673C7.80272 14.4707 7.72785 14.3527 7.52821 14.26C7.26201 14.142 6.97087 14.2769 6.97919 14.5381C6.97919 14.6477 7.0291 14.7151 7.13724 14.7657C7.20378 14.7994 7.20378 14.7994 7.15387 14.791C6.91264 14.7404 6.85441 14.437 7.04573 14.2432C7.27865 14.0072 7.76944 14.1083 7.93581 14.437C8.00236 14.5718 8.01068 14.8415 7.95245 15.0101C7.81103 15.3809 7.41175 15.5748 7.00414 15.4652C6.72963 15.3894 6.61317 15.3135 6.28043 14.968C5.69814 14.3611 5.47354 14.2432 4.64169 14.1167L4.48364 14.0914L4.65833 13.9229Z" fill="#1BA58C"/>
<path fill-rule="evenodd" clip-rule="evenodd" d="M0.28271 0.362401C2.22092 2.74751 5.20725 6.4558 5.35698 6.65807C5.48176 6.82662 5.43185 6.98676 5.22389 7.10475C5.10743 7.17217 4.86619 7.23959 4.74973 7.23959C4.61664 7.23959 4.45859 7.17217 4.35045 7.06261C4.27558 6.98676 3.95116 6.50636 3.21913 5.35174C2.6618 4.4668 2.18764 3.73357 2.17932 3.72515C2.14605 3.70829 2.14605 3.70829 3.1609 5.54558C3.80143 6.70021 4.00939 7.11317 4.00939 7.16374C4.00939 7.27331 3.97612 7.3323 3.84302 7.484C3.61842 7.73684 3.5186 8.02339 3.44373 8.62177C3.36055 9.28758 3.13595 9.75955 2.49543 10.5602C2.12109 11.0322 2.06286 11.1164 1.97136 11.3103C1.8549 11.5463 1.82163 11.6811 1.80499 11.9845C1.78835 12.3048 1.82163 12.5071 1.91313 12.8105C1.99632 13.0802 2.08782 13.2571 2.31242 13.6027C2.50374 13.9061 2.6202 14.1336 2.6202 14.2179C2.6202 14.2853 2.63684 14.2853 2.93631 14.2179C3.65169 14.0494 4.24231 13.7628 4.56673 13.4088C4.76637 13.1897 4.81628 13.0717 4.81628 12.7683C4.81628 12.5745 4.80796 12.5323 4.75805 12.4143C4.67487 12.2289 4.51682 12.0772 4.17576 11.8412C3.72656 11.5294 3.53524 11.2766 3.48533 10.9395C3.44373 10.6529 3.49364 10.4591 3.7432 9.9281C4.00107 9.38029 4.06762 9.15273 4.10921 8.59649C4.13417 8.24252 4.17576 8.09924 4.27558 7.98968C4.38372 7.87169 4.47522 7.82955 4.7331 7.79584C5.15734 7.73684 5.43185 7.62728 5.64813 7.41658C5.83945 7.23959 5.92264 7.06261 5.93096 6.80134L5.93928 6.6075L5.83114 6.48951C5.44017 6.0344 0.0248372 0 -0.000118271 0C-0.00843675 0 0.124659 0.160131 0.28271 0.362401ZM2.83648 12.3469C2.92799 12.1868 2.87808 11.9845 2.72834 11.8834C2.58693 11.7907 2.37065 11.8328 2.37065 11.9592C2.37065 11.9929 2.38729 12.0267 2.4372 12.0435C2.51206 12.0857 2.52038 12.1278 2.46215 12.2205C2.40392 12.3132 2.40392 12.3975 2.47879 12.4565C2.59525 12.5492 2.7533 12.4986 2.83648 12.3469Z" fill="#1BA58C"/>
<path fill-rule="evenodd" clip-rule="evenodd" d="M6.20566 7.91379C6.00601 7.97279 5.81469 8.19191 5.75646 8.41104C5.72319 8.54588 5.73982 8.79029 5.79805 8.86615C5.88956 8.98414 5.97274 9.01785 6.20566 9.01785C6.66317 9.01785 7.05414 8.81558 7.09573 8.57117C7.13733 8.3689 6.96264 8.09078 6.7214 7.96436C6.59663 7.89693 6.33875 7.87165 6.20566 7.91379ZM6.73804 8.33519C6.80459 8.23405 6.77963 8.12449 6.65485 8.04864C6.43026 7.90536 6.0892 8.02335 6.0892 8.24248C6.0892 8.35204 6.26389 8.47003 6.43026 8.47003C6.5384 8.47003 6.68813 8.40261 6.73804 8.33519Z" fill="#1BA58C"/>
</g>
<defs>
<clipPath id="clip0">
<rect width="14" height="16.3333" fill="white"/>
</clipPath>
</defs>
</svg>
