<svg width="24" height="24" viewBox="0 0 24 24" fill="none" xmlns="http://www.w3.org/2000/svg">
<path fill-rule="evenodd" clip-rule="evenodd" d="M10.9854 18.7982C10.9854 18.1677 11.4964 17.6566 12.1269 17.6566C12.7574 17.6566 13.2685 18.1677 13.2685 18.7982C13.2685 19.4287 12.7574 19.9397 12.1269 19.9397C11.4964 19.9397 10.9854 19.4287 10.9854 18.7982Z" fill="#B70A0A"/>
<path fill-rule="evenodd" clip-rule="evenodd" d="M12.1263 6.99927C12.5466 6.99927 12.8873 7.34008 12.8873 7.7605V15.3728C12.8873 15.7932 12.5466 16.134 12.1263 16.134C11.706 16.134 11.3652 15.7932 11.3652 15.3728V7.7605C11.3652 7.34008 11.706 6.99927 12.1263 6.99927Z" fill="#B70A0A"/>
<path fill-rule="evenodd" clip-rule="evenodd" d="M23.756 20.695C24.515 22.2134 23.4112 24 21.7139 24L2.28608 24C0.58884 24 -0.515048 22.2134 0.243982 20.695L9.9579 1.2624C10.7993 -0.420796 13.2007 -0.4208 14.0421 1.26239L23.756 20.695ZM21.7139 22.4775C22.2797 22.4775 22.6476 21.882 22.3946 21.3759L12.6807 1.94326C12.4002 1.3822 11.5998 1.3822 11.3193 1.94326L1.60538 21.3759C1.35237 21.882 1.72033 22.4775 2.28608 22.4775L21.7139 22.4775Z" fill="#B70A0A"/>
</svg>
